<?xml version="1.0" encoding="utf-8"?>
<!-- Generator: Adobe Illustrator 21.0.0, SVG Export Plug-In . SVG Version: 6.00 Build 0)  -->
<svg version="1.1" id="Layer_1" xmlns="http://www.w3.org/2000/svg" xmlns:xlink="http://www.w3.org/1999/xlink" x="0px" y="0px"
	 viewBox="0 0 795 526" style="enable-background:new 0 0 795 526;" xml:space="preserve">
<style type="text/css">
	.st0{fill:#FFFFFF;}
	.st1{fill:#F7F7F7;}
	.st2{opacity:0.9;fill:#F6F7F7;enable-background:new    ;}
	.st3{fill:#FD723B;}
	
		.st4{opacity:8.000000e-02;fill:none;stroke:#0D0E38;stroke-width:1.1411;stroke-linecap:square;stroke-dasharray:4.67;enable-background:new    ;}
	.st5{fill:none;stroke:#FFFFFF;stroke-width:1.1411;stroke-linecap:square;stroke-opacity:0.1308;stroke-dasharray:4.67;}
	.st6{opacity:0.2;fill:#8C93D9;enable-background:new    ;}
	.st7{opacity:0.3;fill:#FFFFFF;enable-background:new    ;}
	.st8{fill:#1B1E50;}
	.st9{fill:url(#SVGID_1_);}
	.st10{opacity:0.7;fill:#8E99AB;enable-background:new    ;}
	.st11{fill:#8E99AB;}
	.st12{fill:#3080E3;}
	.st13{opacity:0.9;fill:#121212;enable-background:new    ;}
	.st14{fill:#EFEFEF;}
	.st15{fill:#0D0E38;}
	.st16{fill:#B8B9CC;}
	.st17{fill:#F8F7F7;}
	.st18{fill:#34CE56;}
	.st19{fill:#F9F9F9;}
	.st20{clip-path:url(#SVGID_3_);}
	.st21{fill:#191D23;}
	.st22{clip-path:url(#SVGID_5_);}
	.st23{clip-path:url(#SVGID_7_);}
	.st24{fill:#F5FAFF;}
	.st25{opacity:0.7;fill:#A0A0A0;enable-background:new    ;}
	.st26{opacity:0.5;fill:#191D23;enable-background:new    ;}
</style>
<g>
	<path class="st0" d="M769.2,526H25.8C11.6,526,0,513.3,0,497.6V28.4C0,12.8,11.6,0,25.8,0h743.4C783.4,0,795,12.8,795,28.4v469.1
		C795,513.3,783.4,526,769.2,526z"/>
	<path class="st1" d="M727.3,463.8H645c-8.8,0-15.9-7.1-15.9-15.9V313.6c0-8.8,7.1-15.9,15.9-15.9h82.3c8.8,0,15.9,7.1,15.9,15.9
		v134.3C743.2,456.7,736.1,463.8,727.3,463.8z"/>
	<path class="st2" d="M562.2,295c0-21.3-17.3-38.6-38.6-38.6S485,273.7,485,295v130.2c0,21.3,17.3,38.6,38.6,38.6
		c21.3,0,38.6-17.3,38.6-38.6V295z"/>
	<path class="st3" d="M484.4,378.9H562v45.9c0,21.4-17.4,38.8-38.8,38.8s-38.8-17.4-38.8-38.8L484.4,378.9L484.4,378.9z"/>
	<path class="st4" d="M168,291.6v153.2"/>
	<path class="st4" d="M203.9,291.6v153.2"/>
	<path class="st4" d="M132.1,291.6v153.2"/>
	<path class="st4" d="M96.6,291.6v153.2"/>
	<path class="st4" d="M274.8,291.6v153.2"/>
	<path class="st4" d="M310.7,291.6v153.2"/>
	<path class="st4" d="M239.8,291.6v153.2"/>
	<path class="st4" d="M382.5,291.6v153.2"/>
	<path class="st4" d="M418.4,291.6v153.2"/>
	<path class="st4" d="M346.6,291.6v153.2"/>
	<path class="st5" d="M489.3,291.6v153.2"/>
	<path class="st4" d="M454.3,291.6v153.2"/>
	<path class="st5" d="M525.2,291.6v153.2"/>
	<path class="st6" d="M483.8,340.4c0,0,17.7,19.9,33.5,13.6c10.8-4.3,18.7,1.5,25.6,2.9c7,1.4,18.7-5.8,18.7-5.8v28.2h-77.9
		L483.8,340.4z"/>
	<path class="st7" d="M481.1,405.7c0,0,24.5-13.5,46.1-9.3c14.9,2.9,25-1,34.6-2c0-9.1,0-15.1,0-15.1H481L481.1,405.7z"/>
	<path class="st8" d="M95,385.4c3.8,2.2,7.1-1.1,9.9-2c2.7-0.9,5.2,0,12.5,1.1c7.4,1.1,4.5,5,11.2,2.4c6.7-2.6,10.7,3.4,10.7,3.4
		s3.9,9.4,11.3,2.1s12.1-2.1,16.5-0.5s8.5,2.9,15.7-0.2c3.6-1.3,22.7-8.8,36-7.3c16,1.7,15.3,27,29.5,27s14.7-19.1,26.5-24.7
		c11.9-5.6,28.8-4.3,38.9,8.2c10.1,12.4,20.4,7.1,22.3,1.6c1.8-5.6,14.1-17.8,25.9-12.9s10.6,5.4,25.8,2.2
		c15.2-3.2,12.3,10.9,21.1,14c8.8,3.1,20.5-2.1,35,6.8c14.4,8.9,40.8,5.7,40.8-4.1c0-9.4,0-24.1,0-24.1l-389.5-0.7
		C95,377.8,95,381.6,95,385.4z"/>
	
		<linearGradient id="SVGID_1_" gradientUnits="userSpaceOnUse" x1="289.55" y1="-64.1573" x2="289.55" y2="-140.03" gradientTransform="matrix(1 0 0 -1 0 240)">
		<stop  offset="0" style="stop-color:#5B6AFF"/>
		<stop  offset="1" style="stop-color:#AF70FF"/>
	</linearGradient>
	<path class="st9" d="M95,364.2c0,0,5.4,1.7,7.4,3.1c2,1.3,3.8,0,9.4-1.7s3.4-7.8,8.4-3.8c5,4.1,8.1-5.4,8.1-5.4s2.9-14.6,8.5-3.3
		c5.5,11.3,9,3.3,12.4,0.8s6.4-4.5,11.8,0.3c2.7,2,17,13.6,27,11.3c12-2.7,11.5-41.9,22.1-41.9c10.7,0,11,29.6,19.9,38.2
		s21.6,6.7,29.2-12.5s15.4-11.1,16.7-2.4c1.4,8.6,10.6,27.5,19.4,20c8.9-7.5,7.9-8.4,19.4-3.4c11.4,4.9,9.3-16.8,15.8-21.7
		c6.6-4.9,15.4,3.3,26.3-10.5s11.8-56.2,27.6,6c4.7,14,11.9,16,24.2,1.3c12.3-14.7,15.1-11.4,28.9,2c13.9,13.5,15-27.8,22.6-27.8
		s6.4,13.6,24.2,27.8c-0.1,6,0,38.6,0,38.6l-389.5,0.9v-15.8H95V364.2z"/>
	<path class="st10" d="M61,299.4h-0.9v-5.6l-1.7,0.6v-0.8l2.4-0.9H61V299.4z M67.6,296.5c0,1-0.2,1.7-0.5,2.2s-0.9,0.7-1.6,0.7
		s-1.3-0.2-1.6-0.7c-0.3-0.5-0.5-1.2-0.5-2.1v-1.1c0-1,0.2-1.7,0.5-2.2c0.3-0.5,0.9-0.7,1.6-0.7s1.3,0.2,1.6,0.7
		c0.3,0.5,0.5,1.2,0.5,2.1V296.5z M66.8,295.4c0-0.7-0.1-1.3-0.3-1.6c-0.2-0.3-0.5-0.5-0.9-0.5c-0.5,0-0.8,0.2-0.9,0.5
		c-0.2,0.3-0.3,0.9-0.3,1.5v1.3c0,0.7,0.1,1.3,0.3,1.6c0.2,0.3,0.5,0.5,0.9,0.5s0.7-0.2,0.9-0.5c0.2-0.3,0.3-0.9,0.3-1.6V295.4z
		 M72.9,296.5c0,1-0.2,1.7-0.5,2.2s-0.9,0.7-1.6,0.7s-1.3-0.2-1.6-0.7c-0.3-0.5-0.5-1.2-0.5-2.1v-1.1c0-1,0.2-1.7,0.5-2.2
		s0.9-0.7,1.6-0.7s1.3,0.2,1.6,0.7c0.3,0.5,0.5,1.2,0.5,2.1V296.5L72.9,296.5z M72,295.4c0-0.7-0.1-1.3-0.3-1.6
		c-0.2-0.3-0.5-0.5-0.9-0.5c-0.5,0-0.8,0.2-0.9,0.5c-0.2,0.3-0.3,0.9-0.3,1.5v1.3c0,0.7,0.1,1.3,0.3,1.6c0.2,0.3,0.5,0.5,0.9,0.5
		s0.7-0.2,0.9-0.5c0.2-0.3,0.3-0.9,0.3-1.6V295.4z M73.9,294c0-0.4,0.2-0.7,0.4-1c0.2-0.2,0.5-0.4,1-0.4c0.4,0,0.7,0.2,1,0.4
		c0.2,0.2,0.4,0.6,0.4,1v0.3c0,0.4-0.2,0.7-0.4,1c-0.2,0.2-0.5,0.4-0.9,0.4s-0.7-0.2-1-0.4c-0.2-0.2-0.4-0.6-0.4-1L73.9,294
		L73.9,294z M74.5,294.3c0,0.2,0.1,0.5,0.2,0.6c0.2,0.2,0.3,0.2,0.5,0.2s0.4-0.1,0.5-0.2c0.2-0.2,0.2-0.4,0.2-0.6V294
		c0-0.2-0.1-0.5-0.2-0.6c-0.2-0.2-0.3-0.2-0.5-0.2s-0.4,0.1-0.5,0.2c-0.2,0.2-0.2,0.4-0.2,0.6V294.3z M77.2,297.8
		c0-0.4,0.2-0.7,0.4-1c0.2-0.2,0.5-0.4,1-0.4c0.4,0,0.7,0.2,1,0.4c0.3,0.2,0.4,0.6,0.4,1v0.3c0,0.4-0.2,0.7-0.4,1
		c-0.2,0.2-0.5,0.4-0.9,0.4s-0.7-0.2-1-0.4c-0.2-0.2-0.4-0.6-0.4-1L77.2,297.8L77.2,297.8z M77.8,298.1c0,0.2,0.1,0.5,0.2,0.6
		c0.2,0.2,0.3,0.2,0.5,0.2s0.4-0.1,0.5-0.2c0.2-0.2,0.2-0.4,0.2-0.6v-0.3c0-0.2-0.1-0.5-0.2-0.6c-0.2-0.2-0.3-0.2-0.5-0.2
		s-0.4,0.1-0.5,0.2c-0.2,0.2-0.2,0.4-0.2,0.6V298.1z M75.5,298.9l-0.5-0.3l3.3-5.3l0.5,0.3L75.5,298.9z"/>
	<path class="st10" d="M67.8,330.4l-2.8,6.2h-0.9l2.7-6h-3.6v-0.7h4.5C67.8,329.9,67.8,330.4,67.8,330.4z M69.1,333.2l0.3-3.4h3.4
		v0.8h-2.7l-0.2,1.8c0.3-0.2,0.7-0.3,1.1-0.3c0.6,0,1.1,0.2,1.5,0.6s0.5,0.9,0.5,1.6s-0.2,1.3-0.5,1.6c-0.4,0.4-0.9,0.6-1.6,0.6
		c-0.6,0-1.1-0.2-1.4-0.5s-0.5-0.8-0.6-1.3h0.8c0.1,0.4,0.2,0.7,0.4,0.9c0.2,0.2,0.5,0.3,0.9,0.3s0.7-0.2,0.9-0.4
		c0.2-0.2,0.3-0.6,0.3-1.1s-0.2-0.8-0.4-1.1c-0.2-0.2-0.5-0.4-0.9-0.4s-0.6,0.1-0.9,0.2l-0.2,0.2L69.1,333.2z M73.9,331.2
		c0-0.4,0.2-0.7,0.4-1c0.2-0.2,0.5-0.4,1-0.4c0.4,0,0.7,0.2,1,0.4c0.2,0.2,0.4,0.6,0.4,1v0.3c0,0.4-0.2,0.7-0.4,1
		c-0.2,0.2-0.5,0.4-0.9,0.4s-0.7-0.2-1-0.4c-0.2-0.2-0.4-0.6-0.4-1L73.9,331.2L73.9,331.2z M74.5,331.6c0,0.2,0.1,0.5,0.2,0.6
		c0.2,0.2,0.3,0.2,0.5,0.2s0.4-0.1,0.5-0.2s0.2-0.4,0.2-0.6v-0.3c0-0.2-0.1-0.5-0.2-0.6c-0.2-0.2-0.3-0.2-0.5-0.2s-0.4,0.1-0.5,0.2
		c-0.2,0.2-0.2,0.4-0.2,0.6V331.6z M77.2,335c0-0.4,0.2-0.7,0.4-1c0.2-0.2,0.5-0.4,1-0.4c0.4,0,0.7,0.2,1,0.4c0.2,0.2,0.4,0.6,0.4,1
		v0.3c0,0.4-0.2,0.7-0.4,1c-0.2,0.2-0.5,0.4-0.9,0.4s-0.7-0.2-1-0.4c-0.2-0.2-0.4-0.6-0.4-1L77.2,335L77.2,335z M77.8,335.3
		c0,0.2,0.1,0.5,0.2,0.6c0.2,0.2,0.3,0.2,0.5,0.2s0.4-0.1,0.5-0.2s0.2-0.4,0.2-0.6V335c0-0.2-0.1-0.5-0.2-0.6
		c-0.2-0.2-0.3-0.2-0.5-0.2s-0.4,0.1-0.5,0.2c-0.2,0.2-0.2,0.4-0.2,0.6V335.3z M75.5,336.1l-0.5-0.3l3.3-5.3l0.5,0.3L75.5,336.1z"/>
	<path class="st10" d="M63.8,370.1l0.3-3.4h3.4v0.8h-2.7l-0.2,1.8c0.3-0.2,0.7-0.3,1.1-0.3c0.6,0,1.1,0.2,1.5,0.6s0.5,0.9,0.5,1.6
		s-0.2,1.3-0.5,1.6c-0.4,0.4-0.9,0.6-1.6,0.6c-0.6,0-1.1-0.2-1.4-0.5c-0.4-0.3-0.5-0.8-0.6-1.3h0.8c0.1,0.4,0.2,0.7,0.4,0.9
		c0.2,0.2,0.5,0.3,0.9,0.3s0.7-0.2,0.9-0.4c0.2-0.2,0.3-0.6,0.3-1.1s-0.2-0.8-0.4-1.1c-0.2-0.2-0.5-0.4-0.9-0.4s-0.6,0.1-0.9,0.2
		l-0.2,0.2L63.8,370.1z M72.9,370.6c0,1-0.2,1.7-0.5,2.2s-0.9,0.7-1.6,0.7s-1.3-0.2-1.6-0.7c-0.3-0.5-0.5-1.2-0.5-2.1v-1.1
		c0-1,0.2-1.7,0.5-2.2s0.9-0.7,1.6-0.7s1.3,0.2,1.6,0.7c0.3,0.5,0.5,1.2,0.5,2.1V370.6L72.9,370.6z M72,369.4c0-0.7-0.1-1.3-0.3-1.6
		c-0.2-0.3-0.5-0.5-0.9-0.5c-0.5,0-0.8,0.2-0.9,0.5c-0.2,0.3-0.3,0.9-0.3,1.5v1.3c0,0.7,0.1,1.3,0.3,1.6c0.2,0.3,0.5,0.5,0.9,0.5
		s0.7-0.2,0.9-0.5c0.2-0.3,0.3-0.9,0.3-1.6V369.4z M73.9,368c0-0.4,0.2-0.7,0.4-1c0.2-0.2,0.5-0.4,1-0.4c0.4,0,0.7,0.2,1,0.4
		c0.2,0.2,0.4,0.6,0.4,1v0.3c0,0.4-0.2,0.7-0.4,1c-0.2,0.2-0.5,0.4-0.9,0.4s-0.7-0.2-1-0.4c-0.2-0.2-0.4-0.6-0.4-1L73.9,368
		L73.9,368z M74.5,368.4c0,0.2,0.1,0.5,0.2,0.6c0.2,0.2,0.3,0.2,0.5,0.2s0.4-0.1,0.5-0.2s0.2-0.4,0.2-0.6v-0.3
		c0-0.2-0.1-0.5-0.2-0.6c-0.2-0.2-0.3-0.2-0.5-0.2s-0.4,0.1-0.5,0.2c-0.2,0.2-0.2,0.4-0.2,0.6V368.4z M77.2,371.8
		c0-0.4,0.2-0.7,0.4-1c0.2-0.2,0.5-0.4,1-0.4c0.4,0,0.7,0.2,1,0.4c0.2,0.2,0.4,0.6,0.4,1v0.3c0,0.4-0.2,0.7-0.4,1
		c-0.2,0.2-0.5,0.4-0.9,0.4s-0.7-0.2-1-0.4c-0.2-0.2-0.4-0.6-0.4-1L77.2,371.8L77.2,371.8z M77.8,372.2c0,0.2,0.1,0.5,0.2,0.6
		c0.2,0.2,0.3,0.2,0.5,0.2s0.4-0.1,0.5-0.2s0.2-0.4,0.2-0.6v-0.3c0-0.2-0.1-0.5-0.2-0.6c-0.2-0.2-0.3-0.2-0.5-0.2s-0.4,0.1-0.5,0.2
		c-0.2,0.2-0.2,0.4-0.2,0.6V372.2z M75.5,373l-0.5-0.3l3.3-5.3l0.5,0.3L75.5,373z"/>
	<path class="st10" d="M67.8,410.3h-4.4v-0.6l2.4-2.6c0.3-0.4,0.5-0.7,0.7-0.9s0.2-0.5,0.2-0.8s-0.1-0.6-0.3-0.9s-0.5-0.3-0.9-0.3
		s-0.8,0.2-1,0.4c-0.2,0.2-0.3,0.5-0.3,1h-0.9c0-0.6,0.2-1.1,0.6-1.5c0.4-0.4,0.9-0.5,1.6-0.5c0.6,0,1.1,0.2,1.5,0.5
		s0.5,0.8,0.5,1.3c0,0.6-0.4,1.4-1.3,2.4l-1.8,2h3.4L67.8,410.3L67.8,410.3z M69.1,406.9l0.3-3.4h3.4v0.8h-2.7l-0.2,1.8
		c0.3-0.2,0.7-0.3,1.1-0.3c0.6,0,1.1,0.2,1.5,0.6s0.5,0.9,0.5,1.6s-0.2,1.3-0.5,1.6c-0.4,0.4-0.9,0.6-1.6,0.6
		c-0.6,0-1.1-0.2-1.4-0.5c-0.4-0.3-0.5-0.8-0.6-1.3h0.8c0.1,0.4,0.2,0.7,0.4,0.9c0.2,0.2,0.5,0.3,0.9,0.3s0.7-0.2,0.9-0.4
		c0.2-0.2,0.3-0.6,0.3-1.1s-0.2-0.8-0.4-1.1c-0.2-0.2-0.5-0.4-0.9-0.4s-0.6,0.1-0.9,0.2l-0.2,0.2L69.1,406.9z M73.9,404.9
		c0-0.4,0.2-0.7,0.4-1c0.2-0.2,0.5-0.4,1-0.4c0.4,0,0.7,0.2,1,0.4c0.2,0.2,0.4,0.6,0.4,1v0.3c0,0.4-0.2,0.7-0.4,1
		c-0.2,0.2-0.5,0.4-0.9,0.4s-0.7-0.2-1-0.4c-0.2-0.2-0.4-0.6-0.4-1L73.9,404.9L73.9,404.9z M74.5,405.3c0,0.2,0.1,0.5,0.2,0.6
		c0.2,0.2,0.3,0.2,0.5,0.2s0.4-0.1,0.5-0.2c0.2-0.2,0.2-0.4,0.2-0.6V405c0-0.2-0.1-0.5-0.2-0.6c-0.2-0.2-0.3-0.2-0.5-0.2
		s-0.4,0.1-0.5,0.2c-0.2,0.2-0.2,0.4-0.2,0.6V405.3z M77.2,408.6c0-0.4,0.2-0.7,0.4-1c0.2-0.2,0.5-0.4,1-0.4c0.4,0,0.7,0.2,1,0.4
		c0.2,0.2,0.4,0.6,0.4,1v0.3c0,0.4-0.2,0.7-0.4,1c-0.2,0.2-0.5,0.4-0.9,0.4s-0.7-0.2-1-0.4c-0.2-0.2-0.4-0.6-0.4-1L77.2,408.6
		L77.2,408.6z M77.8,409c0,0.2,0.1,0.5,0.2,0.6c0.2,0.2,0.3,0.2,0.5,0.2s0.4-0.1,0.5-0.2c0.2-0.2,0.2-0.4,0.2-0.6v-0.3
		c0-0.2-0.1-0.5-0.2-0.6c-0.2-0.2-0.3-0.2-0.5-0.2s-0.4,0.1-0.5,0.2c-0.2,0.2-0.2,0.4-0.2,0.6V409z M75.5,409.8l-0.5-0.3l3.3-5.3
		l0.5,0.3L75.5,409.8z"/>
	<path class="st10" d="M80.6,444.3c0,1-0.2,1.7-0.5,2.2s-0.9,0.7-1.6,0.7s-1.3-0.2-1.6-0.7c-0.3-0.5-0.5-1.2-0.5-2.1v-1.1
		c0-1,0.2-1.7,0.5-2.2s0.9-0.7,1.6-0.7s1.3,0.2,1.6,0.7c0.3,0.5,0.5,1.2,0.5,2.1V444.3L80.6,444.3z M79.7,443.1
		c0-0.7-0.1-1.3-0.3-1.6c-0.2-0.3-0.5-0.5-0.9-0.5c-0.5,0-0.8,0.2-0.9,0.5c-0.2,0.3-0.3,0.9-0.3,1.5v1.3c0,0.7,0.1,1.3,0.3,1.6
		s0.5,0.5,0.9,0.5s0.7-0.2,0.9-0.5c0.2-0.3,0.3-0.9,0.3-1.6V443.1z"/>
	<path class="st11" d="M497.7,216.6h3.7v0.9h-4.7v-7.8h1V216.6z M502.1,214.5c0-0.5,0.1-1.1,0.3-1.6c0.2-0.5,0.5-0.8,0.9-1
		c0.4-0.2,0.9-0.4,1.3-0.4c0.8,0,1.4,0.2,1.9,0.8c0.5,0.5,0.7,1.3,0.7,2.2v0.1c0,0.5-0.1,1.1-0.3,1.5c-0.2,0.5-0.5,0.8-0.9,1
		c-0.4,0.2-0.9,0.4-1.4,0.4c-0.8,0-1.4-0.2-1.9-0.8C502.3,216.2,502.1,215.5,502.1,214.5L502.1,214.5z M503.1,214.6
		c0,0.6,0.2,1.2,0.5,1.6c0.3,0.4,0.7,0.5,1.2,0.5s0.9-0.2,1.2-0.6c0.3-0.4,0.5-0.9,0.5-1.6c0-0.6-0.2-1.2-0.5-1.6s-0.7-0.6-1.2-0.6
		s-0.9,0.2-1.2,0.5C503.3,213.3,503.1,213.9,503.1,214.6z M513.8,216.1l1.1-4.5h1l-1.7,5.8h-0.8L512,213l-1.4,4.4h-0.8l-1.6-5.8h1
		l1.2,4.3l1.3-4.3h0.8L513.8,216.1z M519.3,217.5c-0.8,0-1.4-0.2-1.9-0.8c-0.5-0.5-0.7-1.2-0.7-2v-0.2c0-0.5,0.1-1.1,0.3-1.6
		s0.5-0.8,0.9-1.1c0.4-0.2,0.9-0.4,1.3-0.4c0.8,0,1.3,0.2,1.7,0.7s0.6,1.2,0.6,2.1v0.4h-3.9c0,0.5,0.2,1,0.5,1.4
		c0.3,0.3,0.7,0.5,1.3,0.5c0.3,0,0.6-0.1,0.9-0.2c0.2-0.2,0.5-0.3,0.6-0.5l0.6,0.5C521,217.2,520.3,217.5,519.3,217.5z M519.2,212.3
		c-0.4,0-0.7,0.2-1,0.5c-0.2,0.3-0.5,0.7-0.5,1.3h2.9V214c0-0.5-0.2-0.9-0.4-1.2C519.9,212.5,519.6,212.3,519.2,212.3z M523.7,211.6
		v0.7c0.5-0.5,1-0.9,1.7-0.9c1.3,0,1.9,0.7,1.9,2v3.8h-1v-3.8c0-0.4-0.1-0.7-0.3-0.9c-0.2-0.2-0.5-0.3-0.9-0.3
		c-0.3,0-0.6,0.1-0.9,0.2c-0.2,0.2-0.5,0.4-0.5,0.7v4.2h-1v-5.8L523.7,211.6L523.7,211.6z M528.5,214.5c0-0.9,0.2-1.6,0.6-2.1
		c0.4-0.5,0.9-0.8,1.6-0.8s1.3,0.2,1.6,0.7v-3.1h1v8.2h-0.9l-0.1-0.6c-0.4,0.5-0.9,0.7-1.6,0.7s-1.3-0.3-1.6-0.9
		C528.8,216.2,528.5,215.5,528.5,214.5L528.5,214.5z M529.5,214.6c0,0.6,0.2,1.2,0.4,1.6c0.2,0.4,0.6,0.5,1.1,0.5
		c0.6,0,1.1-0.3,1.4-0.9v-2.7c-0.3-0.5-0.8-0.8-1.3-0.8s-0.9,0.2-1.2,0.5C529.7,213.3,529.5,213.8,529.5,214.6z M538.9,214.4v3.1h-1
		v-7.8h2.9c0.9,0,1.5,0.2,2,0.6c0.5,0.5,0.7,1,0.7,1.7c0,0.8-0.2,1.3-0.7,1.7s-1.2,0.6-2,0.6L538.9,214.4L538.9,214.4z M538.9,213.5
		h1.9c0.5,0,0.9-0.2,1.3-0.4c0.3-0.2,0.5-0.6,0.5-1.1s-0.2-0.9-0.5-1.1c-0.3-0.3-0.7-0.4-1.2-0.5H539L538.9,213.5L538.9,213.5z
		 M550.6,214.9c-0.1,0.9-0.4,1.5-0.9,1.9c-0.5,0.5-1.2,0.7-2,0.7c-0.9,0-1.6-0.3-2.2-1c-0.5-0.6-0.9-1.6-0.9-2.7V213
		c0-0.7,0.2-1.3,0.4-1.9c0.2-0.5,0.6-0.9,1.1-1.3c0.5-0.3,1-0.5,1.6-0.5c0.9,0,1.5,0.2,2,0.7s0.8,1.1,0.9,1.9h-1
		c-0.1-0.6-0.3-1.1-0.5-1.3c-0.3-0.3-0.7-0.4-1.3-0.4s-1.2,0.2-1.6,0.7s-0.5,1.2-0.5,2v0.8c0,0.9,0.2,1.5,0.5,2
		c0.4,0.5,0.9,0.8,1.5,0.8c0.5,0,1-0.2,1.3-0.4c0.3-0.2,0.5-0.7,0.6-1.3h1V214.9z"/>
	<circle class="st3" cx="559.1" cy="213.4" r="2.7"/>
	<circle class="st12" cx="469.6" cy="213.4" r="2.7"/>
	<path class="st11" d="M383.2,214.4v3.1h-1v-7.8h2.9c0.9,0,1.5,0.2,2,0.6c0.5,0.5,0.7,1,0.7,1.7c0,0.8-0.2,1.3-0.7,1.7
		s-1.2,0.6-2,0.6L383.2,214.4L383.2,214.4z M383.2,213.5h1.9c0.5,0,0.9-0.2,1.3-0.4c0.3-0.2,0.5-0.6,0.5-1.1s-0.2-0.9-0.5-1.1
		c-0.3-0.3-0.7-0.4-1.2-0.5h-1.9L383.2,213.5L383.2,213.5z M394.9,214.9c-0.1,0.9-0.4,1.5-0.9,1.9c-0.5,0.5-1.2,0.7-2,0.7
		c-0.9,0-1.6-0.3-2.2-1c-0.5-0.6-0.9-1.6-0.9-2.7V213c0-0.7,0.2-1.3,0.4-1.9c0.2-0.5,0.6-0.9,1.1-1.3c0.5-0.3,1-0.5,1.6-0.5
		c0.9,0,1.5,0.2,2,0.7s0.8,1.1,0.9,1.9h-1c-0.1-0.6-0.3-1.1-0.5-1.3c-0.3-0.3-0.7-0.4-1.3-0.4c-0.6,0-1.2,0.2-1.6,0.7
		s-0.5,1.2-0.5,2v0.8c0,0.9,0.2,1.5,0.5,2c0.4,0.5,0.9,0.8,1.5,0.8c0.5,0,1-0.2,1.3-0.4c0.3-0.2,0.5-0.7,0.6-1.3h1V214.9z
		 M403.7,214.6c0,0.9-0.2,1.6-0.6,2.1s-0.9,0.8-1.6,0.8s-1.3-0.2-1.6-0.7v2.8h-1v-8h0.9l0.1,0.6c0.4-0.5,0.9-0.8,1.6-0.8
		s1.3,0.2,1.6,0.8c0.4,0.5,0.6,1.3,0.6,2.2V214.6z M402.7,214.5c0-0.6-0.2-1.2-0.4-1.6c-0.3-0.4-0.6-0.5-1.2-0.5s-1,0.2-1.3,0.8v2.7
		c0.3,0.5,0.8,0.8,1.3,0.8s0.9-0.2,1.1-0.5C402.6,215.8,402.7,215.2,402.7,214.5z M407.4,217.5c-0.8,0-1.4-0.2-1.9-0.8
		c-0.5-0.5-0.7-1.2-0.7-2v-0.2c0-0.5,0.1-1.1,0.3-1.6c0.2-0.5,0.5-0.8,0.9-1.1c0.4-0.2,0.9-0.4,1.3-0.4c0.8,0,1.3,0.2,1.7,0.7
		c0.4,0.5,0.6,1.2,0.6,2.1v0.4h-3.9c0,0.5,0.2,1,0.5,1.4c0.3,0.3,0.7,0.5,1.3,0.5c0.3,0,0.6-0.1,0.9-0.2c0.2-0.2,0.5-0.3,0.6-0.5
		l0.6,0.5C409.1,217.2,408.3,217.5,407.4,217.5z M407.2,212.3c-0.4,0-0.7,0.2-1,0.5c-0.2,0.3-0.5,0.7-0.5,1.3h2.9V214
		c0-0.5-0.2-0.9-0.4-1.2C408,212.5,407.7,212.3,407.2,212.3z M413.6,212.5c-0.2,0-0.3,0-0.5,0c-0.6,0-1.1,0.3-1.3,0.9v4.2h-1v-5.8
		h0.9v0.7c0.3-0.5,0.8-0.8,1.4-0.8c0.2,0,0.3,0,0.5,0.1V212.5z M415.1,217.4v-5h-0.9v-0.8h0.9V211c0-0.6,0.2-1.1,0.5-1.4
		c0.3-0.3,0.8-0.5,1.4-0.5c0.2,0,0.5,0,0.7,0.1l-0.1,0.8c-0.2,0-0.3-0.1-0.5-0.1c-0.3,0-0.5,0.1-0.8,0.3c-0.2,0.2-0.2,0.5-0.2,0.8
		v0.6h1.3v0.8H416v5L415.1,217.4L415.1,217.4z M418.1,214.5c0-0.5,0.1-1.1,0.3-1.6c0.2-0.5,0.5-0.8,0.9-1c0.4-0.2,0.9-0.4,1.3-0.4
		c0.8,0,1.4,0.2,1.9,0.8c0.5,0.5,0.7,1.3,0.7,2.2v0.1c0,0.5-0.1,1.1-0.3,1.5c-0.2,0.5-0.5,0.8-0.9,1c-0.4,0.2-0.9,0.4-1.4,0.4
		c-0.8,0-1.4-0.2-1.9-0.8C418.4,216.2,418.1,215.5,418.1,214.5L418.1,214.5z M419.2,214.6c0,0.6,0.2,1.2,0.5,1.6
		c0.3,0.4,0.7,0.5,1.2,0.5s0.9-0.2,1.2-0.6c0.3-0.4,0.5-0.9,0.5-1.6c0-0.6-0.2-1.2-0.5-1.6s-0.7-0.6-1.2-0.6s-0.9,0.2-1.2,0.5
		C419.3,213.3,419.2,213.9,419.2,214.6z M427.5,212.5c-0.2,0-0.3,0-0.5,0c-0.6,0-1.1,0.3-1.3,0.9v4.2h-1v-5.8h0.9v0.7
		c0.3-0.5,0.8-0.8,1.4-0.8c0.2,0,0.3,0,0.5,0.1V212.5z M429.3,211.6v0.6c0.4-0.5,1-0.8,1.7-0.8c0.8,0,1.3,0.3,1.6,0.9
		c0.2-0.3,0.5-0.5,0.8-0.7c0.3-0.2,0.7-0.2,1.1-0.2c1.3,0,1.9,0.7,2,2v3.9h-1v-3.8c0-0.4-0.1-0.7-0.3-0.9c-0.2-0.2-0.5-0.3-0.9-0.3
		s-0.7,0.1-0.9,0.3c-0.2,0.2-0.4,0.5-0.4,0.9v3.8h-1v-3.8c0-0.9-0.4-1.3-1.3-1.3c-0.6,0-1.1,0.3-1.3,0.9v4.2h-1v-5.8L429.3,211.6
		L429.3,211.6z M441.6,217.4c-0.1-0.1-0.1-0.3-0.2-0.6c-0.5,0.5-1,0.7-1.6,0.7c-0.5,0-1-0.2-1.4-0.5c-0.4-0.3-0.5-0.7-0.5-1.3
		s0.2-1.1,0.7-1.4s1.1-0.5,2-0.5h0.9v-0.5c0-0.3-0.1-0.6-0.3-0.9c-0.2-0.2-0.5-0.3-0.9-0.3s-0.6,0.1-0.9,0.2
		c-0.2,0.2-0.4,0.4-0.4,0.6h-1c0-0.3,0.1-0.5,0.3-0.9c0.2-0.2,0.5-0.5,0.9-0.6c0.4-0.2,0.7-0.2,1.2-0.2c0.7,0,1.2,0.2,1.6,0.5
		c0.4,0.3,0.5,0.8,0.6,1.4v2.7c0,0.5,0.1,0.9,0.2,1.3v0.1h-1.1v0.2H441.6z M439.9,216.7c0.3,0,0.6-0.1,0.9-0.2
		c0.3-0.2,0.5-0.4,0.6-0.6v-1.2h-0.8c-1.2,0-1.8,0.4-1.8,1.1c0,0.3,0.1,0.5,0.3,0.7C439.4,216.6,439.6,216.7,439.9,216.7z
		 M445,211.6v0.7c0.5-0.5,1-0.9,1.7-0.9c1.3,0,1.9,0.7,1.9,2v3.8h-1v-3.8c0-0.4-0.1-0.7-0.3-0.9c-0.2-0.2-0.5-0.3-0.9-0.3
		c-0.3,0-0.6,0.1-0.9,0.2c-0.3,0.1-0.5,0.4-0.5,0.7v4.2h-1v-5.8L445,211.6L445,211.6z M452.4,216.7c0.4,0,0.6-0.1,0.9-0.3
		c0.2-0.2,0.4-0.5,0.5-0.8h0.9c0,0.3-0.2,0.6-0.3,0.9c-0.2,0.3-0.5,0.5-0.9,0.7c-0.3,0.2-0.7,0.2-1.1,0.2c-0.8,0-1.4-0.2-1.9-0.8
		c-0.5-0.5-0.7-1.3-0.7-2.2v-0.2c0-0.5,0.1-1.1,0.3-1.5c0.2-0.5,0.5-0.8,0.9-1c0.4-0.2,0.9-0.4,1.4-0.4c0.6,0,1.2,0.2,1.6,0.5
		c0.4,0.3,0.6,0.9,0.7,1.5h-0.9c0-0.4-0.2-0.7-0.4-0.9c-0.2-0.2-0.5-0.4-0.9-0.4c-0.5,0-0.9,0.2-1.2,0.5c-0.3,0.4-0.4,0.9-0.4,1.6
		v0.2c0,0.7,0.2,1.2,0.4,1.6C451.6,216.4,451.8,216.7,452.4,216.7z M458.2,217.5c-0.8,0-1.4-0.2-1.9-0.8c-0.5-0.5-0.7-1.2-0.7-2
		v-0.2c0-0.5,0.1-1.1,0.3-1.6c0.2-0.5,0.5-0.8,0.9-1.1c0.4-0.2,0.9-0.4,1.3-0.4c0.8,0,1.3,0.2,1.7,0.7c0.4,0.5,0.6,1.2,0.6,2.1v0.4
		h-3.9c0,0.5,0.2,1,0.5,1.4c0.3,0.3,0.7,0.5,1.3,0.5c0.3,0,0.6-0.1,0.9-0.2c0.2-0.2,0.5-0.3,0.6-0.5l0.6,0.5
		C459.9,217.2,459.1,217.5,458.2,217.5z M458,212.3c-0.4,0-0.7,0.2-1,0.5c-0.2,0.3-0.5,0.7-0.5,1.3h2.9V214c0-0.5-0.2-0.9-0.4-1.2
		C458.8,212.5,458.5,212.3,458,212.3z"/>
	<path class="st13" d="M64,214.1c0-0.5-0.2-1-0.6-1.3c-0.4-0.3-1.1-0.6-2.1-0.9s-1.9-0.6-2.4-1c-1.2-0.7-1.7-1.7-1.7-2.9
		c0-1,0.4-1.9,1.3-2.6c0.9-0.7,2-1,3.3-1c0.9,0,1.7,0.2,2.4,0.5c0.7,0.3,1.3,0.8,1.6,1.4c0.4,0.6,0.6,1.3,0.6,2h-2.2
		c0-0.7-0.2-1.2-0.6-1.6c-0.4-0.4-1-0.5-1.8-0.5c-0.7,0-1.3,0.2-1.7,0.5c-0.4,0.3-0.6,0.8-0.6,1.3s0.2,0.9,0.6,1.2
		c0.5,0.3,1.2,0.6,2.1,0.9c1,0.3,1.8,0.6,2.4,1c0.6,0.4,1,0.8,1.3,1.3s0.4,1.1,0.4,1.7c0,1.1-0.4,1.9-1.3,2.6
		c-0.8,0.6-2,0.9-3.3,0.9c-0.9,0-1.8-0.2-2.6-0.5c-0.8-0.3-1.4-0.8-1.8-1.4c-0.4-0.6-0.6-1.3-0.6-2.1h2.2c0,0.7,0.2,1.3,0.7,1.7
		s1.2,0.6,2,0.6s1.3-0.2,1.7-0.5C63.9,215.1,64,214.6,64,214.1z M71.3,214.4l2-6.4h2.3l-3.8,11c-0.5,1.6-1.6,2.4-3,2.4
		c-0.3,0-0.6-0.1-1-0.2v-1.6h0.4c0.5,0,0.9-0.1,1.3-0.3c0.3-0.2,0.5-0.5,0.6-1l0.3-0.8L67,208h2.3L71.3,214.4z M82.1,214.8
		c0-0.4-0.2-0.7-0.5-0.9c-0.3-0.2-0.9-0.4-1.6-0.5c-0.7-0.2-1.3-0.3-1.8-0.5c-1.1-0.5-1.6-1.3-1.6-2.3c0-0.8,0.3-1.5,1-2
		s1.6-0.9,2.7-0.9c1.2,0,2,0.3,2.7,0.9c0.7,0.5,1,1.3,1,2.2h-2.1c0-0.4-0.2-0.8-0.5-1c-0.3-0.3-0.7-0.4-1.3-0.4
		c-0.5,0-0.9,0.1-1.2,0.3c-0.3,0.2-0.5,0.5-0.5,0.9c0,0.3,0.2,0.5,0.4,0.8c0.3,0.2,0.9,0.4,1.6,0.5c0.9,0.2,1.5,0.4,2,0.6
		s0.9,0.5,1.1,0.9s0.3,0.8,0.3,1.3c0,0.9-0.4,1.6-1.1,2.1s-1.6,0.8-2.8,0.8c-0.8,0-1.5-0.2-2.1-0.4c-0.6-0.3-1.1-0.7-1.4-1.2
		s-0.5-1-0.5-1.6h2c0,0.5,0.2,0.9,0.5,1.2c0.3,0.2,0.8,0.4,1.4,0.4c0.5,0,1-0.1,1.3-0.3C82,215.5,82.1,215.2,82.1,214.8z
		 M88.8,205.6v2.4h1.6v1.6h-1.6v5.3c0,0.4,0.1,0.6,0.2,0.8c0.2,0.2,0.4,0.2,0.8,0.2c0.2,0,0.5,0,0.8-0.1v1.6
		c-0.5,0.2-0.9,0.2-1.4,0.2c-1.6,0-2.4-0.9-2.4-2.7v-5.4h-1.6v-1.6h1.6v-2.4L88.8,205.6L88.8,205.6z M96.3,217.6
		c-1.3,0-2.4-0.4-3.3-1.3c-0.9-0.9-1.3-2-1.3-3.4v-0.2c0-0.9,0.2-1.8,0.5-2.5c0.4-0.8,0.9-1.3,1.6-1.7c0.6-0.4,1.4-0.6,2.2-0.6
		c1.3,0,2.3,0.4,3,1.3c0.7,0.9,1.1,2,1.1,3.5v0.9H94c0.1,0.8,0.3,1.4,0.8,1.9s1,0.7,1.7,0.7c1,0,1.8-0.4,2.4-1.2l1.2,1.1
		c-0.4,0.5-0.9,1-1.6,1.3C97.8,217.4,97.1,217.6,96.3,217.6z M96.1,209.4c-0.5,0-1.1,0.2-1.4,0.6c-0.4,0.4-0.5,1-0.7,1.7h4v-0.2
		c-0.1-0.7-0.2-1.3-0.5-1.6C97.1,209.6,96.6,209.4,96.1,209.4z M103.8,207.9l0.1,1c0.7-0.8,1.6-1.2,2.7-1.2c1.3,0,2.1,0.5,2.6,1.5
		c0.7-0.9,1.6-1.5,2.9-1.5c1,0,1.8,0.3,2.4,0.9c0.5,0.5,0.8,1.4,0.8,2.6v6.3h-2.1v-6.2c0-0.6-0.2-1-0.4-1.3
		c-0.2-0.3-0.7-0.4-1.3-0.4c-0.5,0-0.9,0.2-1.2,0.4c-0.3,0.2-0.5,0.6-0.6,1v6.5h-2.1v-6.3c0-1.1-0.6-1.6-1.7-1.6
		c-0.9,0-1.5,0.3-1.8,1v6.9H102v-9.6H103.8L103.8,207.9z M123.3,215.2c0.4,0,0.7,0.1,0.9,0.3c0.2,0.2,0.3,0.5,0.3,0.9
		c0,0.3-0.1,0.6-0.3,0.9c-0.2,0.2-0.5,0.3-0.9,0.3s-0.7-0.1-0.9-0.3c-0.2-0.2-0.3-0.5-0.3-0.9c0-0.3,0.1-0.6,0.3-0.9
		C122.6,215.3,122.9,215.2,123.3,215.2z M137.2,217.4c-0.1-0.2-0.2-0.5-0.2-0.9c-0.7,0.7-1.5,1.1-2.5,1.1c-0.9,0-1.7-0.2-2.4-0.8
		c-0.6-0.5-0.9-1.3-0.9-2c0-1,0.4-1.8,1.1-2.4c0.8-0.5,1.8-0.8,3.2-0.8h1.3V211c0-0.5-0.2-0.9-0.4-1.2c-0.3-0.3-0.7-0.5-1.3-0.5
		c-0.5,0-0.9,0.2-1.2,0.4c-0.3,0.2-0.5,0.5-0.5,0.9h-2.1c0-0.5,0.2-1,0.5-1.5s0.8-0.8,1.4-1.1c0.6-0.2,1.3-0.4,2-0.4
		c1.1,0,2,0.3,2.7,0.9c0.6,0.5,1,1.3,1,2.4v4.3c0,0.9,0.2,1.6,0.4,2v0.2H137.2L137.2,217.4z M134.8,215.9c0.4,0,0.8-0.1,1.2-0.3
		c0.4-0.2,0.6-0.5,0.9-0.9v-1.8h-1.2c-0.8,0-1.4,0.2-1.8,0.4c-0.4,0.2-0.6,0.7-0.6,1.2c0,0.4,0.2,0.7,0.4,1
		C134,215.8,134.4,215.9,134.8,215.9z M145.2,215.9c0.5,0,0.9-0.2,1.3-0.5c0.3-0.3,0.5-0.7,0.5-1.2h2c0,0.6-0.2,1.2-0.5,1.6
		c-0.3,0.5-0.8,0.9-1.4,1.3c-0.6,0.3-1.3,0.5-1.9,0.5c-1.3,0-2.4-0.5-3.1-1.3c-0.8-0.9-1.2-2-1.2-3.6v-0.2c0-1.4,0.4-2.6,1.2-3.4
		c0.8-0.9,1.8-1.3,3.1-1.3c1.1,0,2,0.3,2.7,1c0.7,0.6,1.1,1.5,1.1,2.6h-2c0-0.5-0.2-1-0.5-1.3c-0.3-0.3-0.8-0.5-1.3-0.5
		c-0.7,0-1.3,0.2-1.6,0.8c-0.4,0.5-0.5,1.3-0.5,2.3v0.3c0,1,0.2,1.8,0.5,2.4C143.9,215.6,144.5,215.9,145.2,215.9z M153.4,205.6v2.4
		h1.6v1.6h-1.6v5.3c0,0.4,0.1,0.6,0.2,0.8c0.2,0.2,0.4,0.2,0.8,0.2c0.2,0,0.5,0,0.8-0.1v1.6c-0.5,0.2-0.9,0.2-1.4,0.2
		c-1.6,0-2.4-0.9-2.4-2.7v-5.4h-1.6v-1.6h1.6v-2.4L153.4,205.6L153.4,205.6z M159,217.4h-2.1v-9.6h2.1V217.4z M156.7,205.4
		c0-0.3,0.1-0.6,0.3-0.8c0.2-0.2,0.5-0.3,0.9-0.3s0.7,0.1,0.9,0.3c0.2,0.2,0.3,0.5,0.3,0.8c0,0.3-0.1,0.6-0.3,0.8
		c-0.2,0.2-0.5,0.3-0.9,0.3s-0.7-0.1-0.9-0.3C156.8,206,156.7,205.8,156.7,205.4z M164.7,214.7l2-6.8h2.2l-3.3,9.6h-1.9l-3.3-9.6
		h2.2L164.7,214.7z M172.5,217.4h-2.1v-9.6h2.1V217.4z M170.2,205.4c0-0.3,0.1-0.6,0.3-0.8c0.2-0.2,0.5-0.3,0.9-0.3s0.7,0.1,0.9,0.3
		c0.2,0.2,0.3,0.5,0.3,0.8c0,0.3-0.1,0.6-0.3,0.8c-0.2,0.2-0.5,0.3-0.9,0.3s-0.7-0.1-0.9-0.3C170.3,206,170.2,205.8,170.2,205.4z
		 M177.5,205.6v2.4h1.6v1.6h-1.6v5.3c0,0.4,0.1,0.6,0.2,0.8c0.2,0.2,0.4,0.2,0.8,0.2c0.2,0,0.5,0,0.8-0.1v1.6
		c-0.5,0.2-0.9,0.2-1.4,0.2c-1.6,0-2.4-0.9-2.4-2.7v-5.4h-1.6v-1.6h1.6v-2.4L177.5,205.6L177.5,205.6z M184.2,214.4l2-6.4h2.3
		l-3.8,11c-0.5,1.6-1.6,2.4-3,2.4c-0.3,0-0.6-0.1-1-0.2v-1.6h0.4c0.5,0,0.9-0.1,1.2-0.3c0.3-0.2,0.5-0.5,0.6-1l0.3-0.8l-3.4-9.5h2.3
		L184.2,214.4z"/>
	<path class="st11" d="M60.5,233.7h-2.8l-0.6,1.7h-0.9l2.6-6.7h0.8l2.6,6.7h-0.9L60.5,233.7z M58,233h2.3l-1.2-3.1L58,233z
		 M63.6,230.5v0.6c0.4-0.5,0.9-0.7,1.5-0.7c1,0,1.6,0.6,1.6,1.8v3.3h-0.9v-3.2c0-0.4-0.1-0.6-0.2-0.8c-0.2-0.2-0.4-0.2-0.8-0.2
		c-0.3,0-0.5,0.1-0.7,0.2c-0.2,0.2-0.4,0.3-0.5,0.5v3.5h-0.9v-4.9L63.6,230.5L63.6,230.5z M71.1,235.5c-0.1-0.1-0.1-0.2-0.2-0.5
		c-0.4,0.4-0.9,0.6-1.4,0.6s-0.9-0.2-1.2-0.4c-0.3-0.3-0.5-0.6-0.5-1c0-0.5,0.2-0.9,0.6-1.2c0.4-0.3,0.9-0.5,1.6-0.5h1v-0.4
		c0-0.3-0.1-0.5-0.2-0.7c-0.2-0.2-0.5-0.2-0.8-0.2s-0.5,0.1-0.8,0.2c-0.2,0.2-0.3,0.3-0.3,0.5H68c0-0.2,0.1-0.5,0.2-0.7
		c0.2-0.2,0.4-0.4,0.7-0.5c0.3-0.2,0.6-0.2,1-0.2c0.5,0,1,0.2,1.3,0.5c0.3,0.3,0.5,0.7,0.5,1.2v2.3c0,0.5,0.1,0.8,0.2,1.1v0.1
		L71.1,235.5L71.1,235.5z M69.7,234.8c0.2,0,0.5-0.1,0.8-0.2c0.2-0.2,0.4-0.3,0.5-0.5v-1h-0.6c-1,0-1.6,0.3-1.6,0.9
		c0,0.2,0.1,0.5,0.2,0.6C69.1,234.8,69.4,234.8,69.7,234.8z M74.1,235.5h-0.9v-7.1h0.9V235.5z M77,234.2l1.2-3.8h0.9l-2,5.7
		c-0.3,0.9-0.8,1.3-1.5,1.3h-0.2l-0.3-0.1v-0.7h0.2c0.3,0,0.5-0.1,0.7-0.2c0.2-0.1,0.3-0.3,0.4-0.6l0.2-0.5l-1.8-4.9h0.9L77,234.2z
		 M81,229.3v1.2h1v0.6h-1v3.1c0,0.2,0.1,0.3,0.2,0.5c0.1,0.1,0.2,0.2,0.4,0.2c0.1,0,0.2,0,0.4-0.1v0.7c-0.2,0.1-0.5,0.1-0.6,0.1
		c-0.4,0-0.7-0.1-0.9-0.3c-0.2-0.2-0.3-0.5-0.3-0.9v-3.1h-0.9v-0.6h0.9v-1.2L81,229.3L81,229.3z M83.9,235.5H83v-4.9h0.9V235.5z
		 M82.9,229.2c0-0.2,0.1-0.2,0.2-0.3s0.2-0.2,0.4-0.2c0.2,0,0.3,0.1,0.4,0.2s0.2,0.2,0.2,0.3c0,0.2-0.1,0.2-0.2,0.3
		s-0.2,0.2-0.4,0.2c-0.2,0-0.3-0.1-0.4-0.2C83,229.4,82.9,229.4,82.9,229.2z M87.2,234.8c0.3,0,0.5-0.1,0.8-0.3
		c0.2-0.2,0.4-0.4,0.4-0.7h0.8c0,0.3-0.1,0.5-0.3,0.8c-0.2,0.2-0.4,0.5-0.7,0.6c-0.3,0.2-0.6,0.2-0.9,0.2c-0.7,0-1.3-0.2-1.6-0.7
		c-0.4-0.5-0.6-1.1-0.6-1.9v-0.2c0-0.5,0.1-0.9,0.2-1.3c0.2-0.4,0.5-0.7,0.8-0.9c0.3-0.2,0.7-0.3,1.2-0.3s1,0.2,1.4,0.5
		c0.4,0.3,0.5,0.8,0.6,1.3h-0.8c0-0.3-0.2-0.5-0.4-0.8c-0.2-0.3-0.5-0.3-0.8-0.3c-0.5,0-0.8,0.2-1,0.5c-0.2,0.3-0.4,0.8-0.4,1.3v0.2
		c0,0.5,0.1,1,0.4,1.3C86.4,234.7,86.8,234.8,87.2,234.8z M92.2,233c0-0.8,0.2-1.4,0.5-1.8c0.4-0.5,0.9-0.7,1.4-0.7s1,0.2,1.4,0.6
		v-2.7h0.9v7.1h-0.8l-0.1-0.5c-0.3,0.4-0.8,0.6-1.4,0.6c-0.5,0-1-0.2-1.4-0.7C92.5,234.4,92.2,233.7,92.2,233L92.2,233z M93.1,233
		c0,0.5,0.1,1,0.3,1.3c0.2,0.3,0.5,0.5,0.9,0.5c0.5,0,0.9-0.2,1.2-0.7v-2.3c-0.2-0.5-0.6-0.7-1.2-0.7c-0.4,0-0.7,0.2-0.9,0.5
		C93.3,231.9,93.1,232.4,93.1,233z M100.9,235.5c-0.1-0.1-0.1-0.2-0.2-0.5c-0.4,0.4-0.9,0.6-1.4,0.6s-0.9-0.2-1.2-0.4
		c-0.3-0.3-0.5-0.6-0.5-1c0-0.5,0.2-0.9,0.6-1.2c0.4-0.3,0.9-0.5,1.6-0.5h0.9v-0.4c0-0.3-0.1-0.5-0.2-0.7c-0.2-0.2-0.5-0.2-0.8-0.2
		s-0.5,0.1-0.8,0.2c-0.2,0.2-0.3,0.3-0.3,0.5h-0.9c0-0.2,0.1-0.5,0.2-0.7c0.2-0.2,0.4-0.4,0.7-0.5c0.3-0.2,0.6-0.2,1-0.2
		c0.5,0,1,0.2,1.3,0.5c0.3,0.3,0.5,0.7,0.5,1.2v2.3c0,0.5,0.1,0.8,0.2,1.1v0.1L100.9,235.5L100.9,235.5z M99.5,234.8
		c0.2,0,0.5-0.1,0.8-0.2c0.2-0.2,0.4-0.3,0.5-0.5v-1h-0.6c-1,0-1.6,0.3-1.6,0.9c0,0.2,0.1,0.5,0.2,0.6
		C98.9,234.8,99.1,234.8,99.5,234.8z M104.1,229.3v1.2h0.9v0.6h-0.9v3.1c0,0.2,0.1,0.3,0.2,0.5c0.1,0.1,0.2,0.2,0.4,0.2
		c0.1,0,0.2,0,0.4-0.1v0.7c-0.2,0.1-0.5,0.1-0.6,0.1c-0.4,0-0.7-0.1-0.9-0.3c-0.2-0.2-0.3-0.5-0.3-0.9v-3.1h-0.9v-0.6h0.9v-1.2
		L104.1,229.3L104.1,229.3z M109,235.5c-0.1-0.1-0.1-0.2-0.2-0.5c-0.4,0.4-0.9,0.6-1.4,0.6s-0.9-0.2-1.2-0.4c-0.3-0.3-0.5-0.6-0.5-1
		c0-0.5,0.2-0.9,0.6-1.2c0.4-0.3,0.9-0.5,1.6-0.5h0.9v-0.4c0-0.3-0.1-0.5-0.2-0.7c-0.2-0.2-0.5-0.2-0.8-0.2s-0.5,0.1-0.8,0.2
		c-0.2,0.2-0.3,0.3-0.3,0.5H106c0-0.2,0.1-0.5,0.2-0.7c0.1-0.2,0.4-0.4,0.7-0.5c0.3-0.2,0.6-0.2,1-0.2c0.5,0,1,0.2,1.3,0.5
		c0.3,0.3,0.5,0.7,0.5,1.2v2.3c0,0.5,0.1,0.8,0.2,1.1v0.1L109,235.5L109,235.5z M107.6,234.8c0.2,0,0.5-0.1,0.8-0.2
		c0.2-0.2,0.4-0.3,0.5-0.5v-1h-0.6c-1,0-1.6,0.3-1.6,0.9c0,0.2,0.1,0.5,0.2,0.6C107.1,234.8,107.4,234.8,107.6,234.8z"/>
	<path class="st14" d="M343,264.9c0-4.5,3.7-8.2,8.2-8.2H388c4.5,0,8.2,3.7,8.2,8.2s-3.7,8.2-8.2,8.2h-36.8
		C346.6,273.1,343,269.4,343,264.9z"/>
	<path class="st15" d="M359.3,264.9c-0.3,0.3-0.8,0.5-1.2,0.5c-0.6,0-1.1-0.2-1.4-0.6c-0.4-0.4-0.5-0.9-0.5-1.6
		c0-0.5,0.1-0.9,0.3-1.2c0.2-0.4,0.5-0.6,0.8-0.9c0.3-0.2,0.7-0.3,1.2-0.3s0.9,0.1,1.2,0.3c0.3,0.2,0.6,0.5,0.8,0.9s0.3,0.9,0.3,1.4
		v0.5c0,1.1-0.3,2-0.9,2.7c-0.5,0.6-1.3,0.9-2.4,1h-0.3v-1.1h0.3C358.6,266.5,359.2,266,359.3,264.9z M358.4,264.4
		c0.2,0,0.4-0.1,0.5-0.2c0.1-0.1,0.2-0.2,0.4-0.4v-0.5c0-0.5-0.1-0.8-0.2-1c-0.2-0.2-0.4-0.4-0.7-0.4c-0.2,0-0.5,0.2-0.6,0.4
		c-0.2,0.2-0.2,0.5-0.2,0.9s0.1,0.6,0.2,0.9C357.9,264.3,358.1,264.4,358.4,264.4z M361.8,264.3l0.4-3.4h3.8v1.1h-2.7l-0.2,1.4
		c0.3-0.2,0.6-0.2,1-0.2c0.6,0,1.1,0.2,1.5,0.6c0.4,0.4,0.5,0.9,0.5,1.6c0,0.4-0.1,0.8-0.3,1.2c-0.2,0.3-0.5,0.6-0.8,0.8
		c-0.3,0.2-0.7,0.3-1.2,0.3c-0.4,0-0.8-0.1-1.1-0.2c-0.3-0.2-0.6-0.4-0.8-0.7c-0.2-0.3-0.3-0.6-0.3-1h1.3c0,0.3,0.2,0.5,0.3,0.6
		c0.2,0.2,0.4,0.2,0.6,0.2c0.3,0,0.5-0.1,0.7-0.3c0.2-0.2,0.2-0.5,0.2-0.9s-0.1-0.7-0.3-0.9c-0.2-0.2-0.5-0.3-0.8-0.3
		s-0.5,0.1-0.8,0.2l-0.2,0.2L361.8,264.3z M366.9,262.2c0-0.4,0.2-0.7,0.4-1c0.2-0.2,0.6-0.4,1-0.4c0.5,0,0.8,0.2,1,0.4
		c0.2,0.2,0.4,0.6,0.4,1v0.3c0,0.4-0.2,0.8-0.4,1c-0.2,0.2-0.6,0.4-1,0.4c-0.5,0-0.8-0.2-1-0.4c-0.2-0.2-0.4-0.6-0.4-1V262.2z
		 M367.8,262.6c0,0.2,0.1,0.3,0.2,0.5c0.1,0.1,0.2,0.2,0.4,0.2s0.3-0.1,0.4-0.2c0.1-0.1,0.2-0.2,0.2-0.5v-0.3c0-0.2-0.1-0.3-0.2-0.5
		c-0.1-0.1-0.2-0.2-0.4-0.2s-0.3,0.1-0.4,0.2c-0.1,0.1-0.2,0.2-0.2,0.5V262.6z M370.2,266c0-0.4,0.2-0.8,0.4-1
		c0.2-0.2,0.6-0.4,1-0.4c0.5,0,0.8,0.2,1,0.4c0.2,0.2,0.4,0.6,0.4,1v0.3c0,0.4-0.2,0.7-0.4,1c-0.2,0.2-0.6,0.4-1,0.4
		c-0.5,0-0.8-0.2-1.1-0.4c-0.2-0.2-0.4-0.6-0.4-1L370.2,266L370.2,266z M371,266.4c0,0.2,0.1,0.3,0.2,0.5c0.1,0.2,0.2,0.2,0.4,0.2
		c0.4,0,0.5-0.2,0.5-0.6v-0.3c0-0.2-0.1-0.3-0.2-0.5c-0.1-0.1-0.2-0.2-0.4-0.2c-0.2,0-0.3,0.1-0.4,0.2c-0.1,0.1-0.2,0.2-0.2,0.5v0.2
		H371z M368.7,267.1l-0.6-0.3l3.3-5.3l0.6,0.3L368.7,267.1z"/>
	<path class="st16" d="M376.2,265.1c0-0.8,0.2-1.4,0.5-1.8c0.4-0.5,0.9-0.7,1.4-0.7s1,0.2,1.4,0.6v-2.7h0.9v7.1h-0.8l-0.1-0.5
		c-0.3,0.4-0.8,0.6-1.4,0.6c-0.5,0-1-0.2-1.4-0.7C376.4,266.5,376.2,265.9,376.2,265.1L376.2,265.1z M377.1,265.2
		c0,0.5,0.1,1,0.3,1.3c0.2,0.3,0.5,0.5,0.9,0.5c0.5,0,0.9-0.2,1.2-0.7V264c-0.2-0.5-0.6-0.7-1.2-0.7c-0.4,0-0.7,0.2-0.9,0.5
		C377.2,264.1,377.1,264.6,377.1,265.2z M384.1,263.4c-0.2,0-0.2,0-0.4,0c-0.5,0-0.9,0.2-1.1,0.7v3.5h-0.9v-4.9h0.9v0.5
		c0.3-0.5,0.7-0.7,1.2-0.7c0.2,0,0.3,0,0.4,0.1L384.1,263.4L384.1,263.4z"/>
	<path class="st17" d="M404.1,264.9c0-4.5,3.7-8.2,8.2-8.2h34.5c4.5,0,8.2,3.7,8.2,8.2s-3.7,8.2-8.2,8.2h-34.5
		C407.8,273.1,404.1,269.4,404.1,264.9z"/>
	<path class="st18" d="M414.8,268.4h-1.1V263l-1.6,0.5v-0.9l2.6-0.9h0.2v6.7H414.8z M421.6,268.4h-4.5v-0.8l2.2-2.4
		c0.3-0.4,0.5-0.6,0.7-0.9c0.2-0.2,0.2-0.5,0.2-0.7c0-0.3-0.1-0.5-0.2-0.8c-0.1-0.3-0.4-0.3-0.7-0.3c-0.4,0-0.6,0.1-0.9,0.3
		c-0.2,0.2-0.3,0.5-0.3,0.9H417c0-0.4,0.1-0.8,0.3-1.1c0.2-0.3,0.5-0.5,0.8-0.8c0.3-0.2,0.7-0.2,1.2-0.2c0.6,0,1.2,0.2,1.6,0.5
		c0.4,0.3,0.5,0.8,0.5,1.3c0,0.3-0.1,0.7-0.3,1c-0.2,0.4-0.5,0.8-0.9,1.3l-1.6,1.7h3.1v1H421.6z M422.8,265.1l0.4-3.4h3.6v0.9H424
		l-0.2,1.6c0.3-0.2,0.6-0.2,1-0.2c0.6,0,1.1,0.2,1.5,0.6s0.5,0.9,0.5,1.6s-0.2,1.3-0.6,1.6c-0.4,0.4-0.9,0.6-1.6,0.6
		c-0.6,0-1.1-0.2-1.5-0.5c-0.4-0.3-0.6-0.8-0.6-1.4h1.1c0.1,0.3,0.2,0.5,0.3,0.8c0.2,0.2,0.5,0.2,0.7,0.2c0.3,0,0.6-0.2,0.8-0.4
		c0.2-0.2,0.3-0.5,0.3-1c0-0.4-0.1-0.7-0.3-0.9c-0.2-0.2-0.5-0.4-0.9-0.4c-0.2,0-0.4,0-0.5,0.1s-0.3,0.2-0.5,0.3L422.8,265.1z
		 M435.4,266.2c-0.1,0.7-0.3,1.3-0.8,1.6c-0.5,0.3-1.1,0.6-1.8,0.6c-0.5,0-1-0.2-1.4-0.4c-0.4-0.2-0.7-0.6-0.9-1.1
		c-0.2-0.5-0.3-1-0.3-1.6v-0.6c0-0.6,0.1-1.2,0.3-1.6c0.2-0.4,0.5-0.9,0.9-1.1c0.4-0.2,0.9-0.4,1.5-0.4c0.7,0,1.3,0.2,1.8,0.6
		c0.5,0.4,0.7,0.9,0.8,1.7h-1.2c-0.1-0.5-0.2-0.9-0.4-1c-0.2-0.2-0.5-0.3-1-0.3s-0.9,0.2-1.2,0.5c-0.2,0.4-0.4,0.9-0.4,1.6v0.6
		c0,0.7,0.2,1.3,0.4,1.6c0.2,0.4,0.6,0.5,1.2,0.5c0.5,0,0.8-0.1,1-0.3c0.2-0.2,0.4-0.5,0.5-1L435.4,266.2L435.4,266.2z M437.6,265.9
		v2.5h-1.2v-6.7h2.6c0.8,0,1.3,0.2,1.8,0.5c0.5,0.4,0.6,0.9,0.6,1.6c0,0.6-0.2,1.2-0.6,1.6c-0.4,0.4-1,0.5-1.8,0.5L437.6,265.9
		L437.6,265.9z M437.6,264.9h1.4c0.4,0,0.7-0.1,0.9-0.3c0.2-0.2,0.3-0.5,0.3-0.9s-0.1-0.6-0.3-0.9c-0.2-0.2-0.5-0.3-0.9-0.3h-1.4
		V264.9z M447.4,261.7v4.5c0,0.7-0.2,1.3-0.7,1.7s-1,0.6-1.8,0.6s-1.4-0.2-1.8-0.6c-0.5-0.4-0.7-0.9-0.7-1.7v-4.5h1.2v4.5
		c0,0.5,0.1,0.8,0.3,1c0.2,0.2,0.5,0.4,1,0.4c0.9,0,1.3-0.5,1.3-1.4v-4.5H447.4z"/>
	<g>
		<path class="st19" d="M280.5,46.7h208.2c4,0,7.2,3.2,7.2,7.2v69.7c0,4-3.2,7.2-7.2,7.2H280.5c-4,0-7.2-3.2-7.2-7.2V54
			C273.2,50,276.5,46.7,280.5,46.7z"/>
	</g>
	<g>
		<g>
			<g>
				<defs>
					<rect id="SVGID_2_" x="458.1" y="58.4" width="24" height="11.6"/>
				</defs>
				<clipPath id="SVGID_3_">
					<use xlink:href="#SVGID_2_"  style="overflow:visible;"/>
				</clipPath>
				<g class="st20">
					<path class="st10" d="M459.8,64.5h-1v1.9H458v-5h1.8c0.6,0,1,0.1,1.3,0.4c0.3,0.3,0.4,0.6,0.4,1.1c0,0.3-0.1,0.6-0.3,0.8
						c-0.2,0.3-0.4,0.4-0.7,0.5l1.1,2.1l0,0h-1L459.8,64.5z M458.9,63.8h0.9c0.3,0,0.5-0.1,0.7-0.2s0.3-0.3,0.3-0.6
						s-0.1-0.4-0.3-0.6c-0.1-0.1-0.4-0.2-0.7-0.3h-0.9V63.8z M463.1,65.6c0.1,0,0.3,0.1,0.4,0.1c0.1,0.1,0.1,0.2,0.1,0.3
						c0,0.1-0.1,0.3-0.1,0.3c-0.1,0.1-0.2,0.1-0.4,0.1c-0.1,0-0.3-0.1-0.4-0.1c-0.1-0.1-0.1-0.2-0.1-0.3c0-0.1,0.1-0.3,0.1-0.3
						C462.9,65.6,462.9,65.6,463.1,65.6z"/>
					<path class="st21" d="M470.4,64.7c-0.4,0.4-0.9,0.6-1.4,0.6c-0.6,0-1.1-0.2-1.5-0.6c-0.4-0.4-0.6-1-0.6-1.8
						c0-0.5,0.1-0.9,0.3-1.3s0.4-0.7,0.8-0.9s0.8-0.3,1.2-0.3c0.7,0,1.3,0.3,1.7,0.8c0.4,0.6,0.6,1.3,0.6,2.2v0.3
						c0,1.3-0.3,2.3-0.9,3c-0.6,0.7-1.5,1-2.6,1l0,0v-1h0.2c0.7,0,1.3-0.2,1.7-0.5C470.1,65.9,470.3,65.4,470.4,64.7z M469.2,64.4
						c0.3,0,0.4-0.1,0.7-0.2c0.2-0.1,0.4-0.3,0.5-0.6v-0.4c0-0.5-0.1-1-0.3-1.3c-0.2-0.3-0.5-0.5-0.8-0.5s-0.6,0.1-0.8,0.4
						c-0.2,0.3-0.3,0.6-0.3,1.1c0,0.4,0.1,0.8,0.3,1.1C468.6,64.3,468.9,64.4,469.2,64.4z M474.2,66.4c0.3,0,0.4,0.1,0.5,0.2
						c0.1,0.1,0.2,0.3,0.2,0.5c0,0.2-0.1,0.3-0.2,0.4c-0.1,0.1-0.3,0.2-0.5,0.2s-0.4-0.1-0.5-0.2c-0.1-0.1-0.2-0.3-0.2-0.4
						c0-0.2,0.1-0.4,0.2-0.5C473.8,66.5,473.9,66.4,474.2,66.4z M480.2,64.7c-0.4,0.4-0.9,0.6-1.4,0.6c-0.6,0-1.1-0.2-1.5-0.6
						c-0.4-0.4-0.6-1-0.6-1.8c0-0.5,0.1-0.9,0.3-1.3c0.2-0.4,0.4-0.7,0.8-0.9s0.8-0.3,1.2-0.3c0.7,0,1.3,0.3,1.7,0.8
						c0.4,0.6,0.6,1.3,0.6,2.2v0.3c0,1.3-0.3,2.3-0.9,3c-0.6,0.7-1.5,1-2.6,1h-0.1v-1h0.2c0.7,0,1.3-0.2,1.7-0.5
						C480,65.9,480.2,65.4,480.2,64.7z M479.1,64.4c0.3,0,0.4-0.1,0.7-0.2c0.2-0.1,0.4-0.3,0.5-0.6v-0.4c0-0.5-0.1-1-0.3-1.3
						c-0.2-0.3-0.5-0.5-0.8-0.5s-0.6,0.1-0.8,0.4c-0.2,0.3-0.3,0.6-0.3,1.1c0,0.4,0.1,0.8,0.3,1.1C478.5,64.2,478.8,64.4,479.1,64.4
						z"/>
				</g>
			</g>
		</g>
	</g>
	<g>
		<path class="st12" d="M300,68.5h21.7c5.2,0,9.4,4.2,9.4,9.4v21.7c0,5.2-4.2,9.4-9.4,9.4H300c-5.2,0-9.4-4.2-9.4-9.4V78
			C290.6,72.7,294.8,68.5,300,68.5z"/>
	</g>
	<path class="st0" d="M307.2,80.1c2.4,0,4.3,1.9,4.3,4.3s-1.9,4.3-4.3,4.3s-4.3-1.9-4.3-4.3S304.9,80.1,307.2,80.1z M309.3,83.2
		c0-0.4-0.3-0.6-0.6-0.6c-0.4,0-0.6,0.3-0.6,0.6c0,0.4,0.3,0.6,0.6,0.6S309.3,83.5,309.3,83.2z M305.1,83.2c0-0.4,0.3-0.6,0.6-0.6
		c0.4,0,0.6,0.3,0.6,0.6c0,0.4-0.3,0.6-0.6,0.6C305.4,83.9,305.1,83.5,305.1,83.2z M305.6,85.4c-0.2,0.1-0.2,0.4-0.1,0.6l0,0
		c0.1,0.1,0.6,0.7,1.6,0.7s1.6-0.7,1.7-0.7c0.1-0.2,0.1-0.4-0.1-0.6c-0.2-0.1-0.4-0.1-0.6,0.1c0,0-0.3,0.4-1,0.4c-0.6,0-1-0.4-1-0.4
		l0,0C306.1,85.3,305.8,85.3,305.6,85.4z"/>
	<path class="st0" d="M317.8,91.6h0.1c0.5,0,1-0.4,1-1c0-0.5-0.4-1-1-1h-3.1c-0.2,0-0.3-0.1-0.3-0.3c0.2-1.3,0.4-1.8,0.6-3.1
		c0.1-1.3-1.7-1.5-2-0.3c-0.5,2.3-2.4,3.8-3,4.3c-0.1,0.1-0.2,0.3-0.2,0.4V96c0,0.2,0.1,0.4,0.3,0.4c0.7,0.3,1.5,1,3.7,1
		c1.4,0,3.5,0,3.5,0c0.5,0,1-0.4,1-1c0-0.5-0.4-1-1-1h0.1c0.5,0,1-0.3,1-0.8c0.1-0.6-0.4-1.1-1-1.1h0.1c0.5,0,1-0.3,1-0.8
		C318.8,92.1,318.3,91.6,317.8,91.6z"/>
	<path class="st0" d="M308.6,90.2h-2.4c-0.3,0-0.5,0.2-0.5,0.5v5.1c0,0.3,0.2,0.5,0.5,0.5h2.4c0.3,0,0.5-0.2,0.5-0.5v-5.1
		C309.1,90.5,308.9,90.2,308.6,90.2z"/>
	<path class="st10" d="M353.1,96.7v4.9c0,0.7-0.2,1.2-0.6,1.7s-1,0.7-1.7,0.7h-0.3c-0.8,0-1.4-0.2-1.9-0.6c-0.4-0.4-0.7-1-0.7-1.8
		v-4.9h1v4.9c0,0.5,0.1,1,0.4,1.2c0.3,0.3,0.7,0.4,1.2,0.4s1-0.1,1.2-0.4c0.3-0.3,0.4-0.7,0.4-1.2v-4.9L353.1,96.7L353.1,96.7z
		 M357.6,102.6c0-0.3-0.1-0.4-0.3-0.6c-0.2-0.1-0.5-0.3-1-0.4c-0.4-0.1-0.8-0.2-1.1-0.4c-0.3-0.1-0.4-0.3-0.6-0.5
		c-0.1-0.2-0.2-0.4-0.2-0.7c0-0.4,0.2-0.8,0.6-1.1c0.4-0.3,0.8-0.4,1.4-0.4s1.1,0.1,1.5,0.4s0.6,0.7,0.6,1.2h-1
		c0-0.3-0.1-0.4-0.3-0.6c-0.2-0.2-0.5-0.3-0.8-0.3s-0.6,0.1-0.8,0.2s-0.3,0.3-0.3,0.6c0,0.2,0.1,0.4,0.3,0.5c0.2,0.1,0.5,0.2,1,0.3
		c0.4,0.1,0.8,0.3,1.1,0.4c0.3,0.1,0.5,0.3,0.6,0.5s0.2,0.4,0.2,0.7c0,0.5-0.2,0.9-0.6,1.1c-0.4,0.3-0.9,0.4-1.5,0.4
		c-0.4,0-0.8-0.1-1.1-0.3c-0.3-0.1-0.6-0.4-0.8-0.6s-0.3-0.6-0.3-0.9h0.9c0,0.3,0.1,0.6,0.4,0.8c0.3,0.2,0.5,0.3,0.9,0.3
		c0.3,0,0.6-0.1,0.8-0.2C357.5,102.9,357.6,102.7,357.6,102.6z M361.9,104.1c-0.7,0-1.3-0.3-1.8-0.7c-0.4-0.5-0.7-1.1-0.7-1.9v-0.2
		c0-0.5,0.1-1,0.3-1.4c0.2-0.4,0.5-0.8,0.8-1c0.4-0.3,0.8-0.4,1.2-0.4c0.7,0,1.2,0.3,1.7,0.7c0.4,0.4,0.6,1.1,0.6,2v0.4h-3.6
		c0,0.5,0.2,1,0.4,1.3c0.3,0.3,0.7,0.5,1.1,0.5c0.3,0,0.6-0.1,0.8-0.2c0.3-0.1,0.4-0.3,0.6-0.5l0.6,0.4
		C363.5,103.7,362.8,104.1,361.9,104.1z M361.8,99.2c-0.4,0-0.7,0.1-1,0.4s-0.4,0.6-0.4,1.1h2.7v-0.1c0-0.4-0.1-0.8-0.4-1.1
		C362.5,99.4,362.2,99.2,361.8,99.2z M367.7,99.4c-0.1,0-0.3-0.1-0.4-0.1c-0.6,0-1,0.3-1.2,0.8v3.8h-0.9v-5.3h0.9v0.6
		c0.3-0.5,0.7-0.7,1.3-0.7c0.2,0,0.3,0,0.4,0.1L367.7,99.4L367.7,99.4z M374.2,102.6c0-0.3-0.1-0.4-0.3-0.6c-0.2-0.1-0.5-0.3-1-0.4
		c-0.4-0.1-0.8-0.2-1.1-0.4c-0.3-0.1-0.4-0.3-0.6-0.5c-0.1-0.2-0.2-0.4-0.2-0.7c0-0.4,0.2-0.8,0.6-1.1s0.8-0.4,1.4-0.4
		s1.1,0.1,1.5,0.4s0.6,0.7,0.6,1.2h-0.9c0-0.3-0.1-0.4-0.3-0.6c-0.2-0.2-0.5-0.3-0.8-0.3s-0.6,0.1-0.8,0.2c-0.2,0.1-0.3,0.3-0.3,0.6
		c0,0.2,0.1,0.4,0.3,0.5c0.2,0.1,0.5,0.2,1,0.3c0.4,0.1,0.8,0.3,1.1,0.4c0.3,0.1,0.5,0.3,0.6,0.5s0.2,0.4,0.2,0.7
		c0,0.5-0.2,0.9-0.6,1.1c-0.4,0.3-0.9,0.4-1.5,0.4c-0.4,0-0.8-0.1-1.1-0.3c-0.3-0.1-0.6-0.4-0.8-0.6s-0.3-0.6-0.3-0.9h0.9
		c0,0.3,0.1,0.6,0.4,0.8c0.3,0.2,0.5,0.3,0.9,0.3c0.3,0,0.6-0.1,0.8-0.2C374.1,102.9,374.2,102.7,374.2,102.6z M379.6,103.9
		c-0.1-0.1-0.1-0.3-0.1-0.6c-0.4,0.4-1,0.6-1.5,0.6s-1-0.1-1.3-0.4s-0.5-0.7-0.5-1.1c0-0.6,0.2-1,0.6-1.3s1-0.4,1.8-0.4h0.9v-0.4
		c0-0.3-0.1-0.6-0.3-0.8c-0.2-0.2-0.4-0.3-0.8-0.3c-0.3,0-0.6,0.1-0.8,0.3c-0.2,0.2-0.3,0.4-0.3,0.6h-1c0-0.3,0.1-0.5,0.3-0.8
		c0.2-0.3,0.4-0.4,0.8-0.6c0.3-0.1,0.7-0.2,1.1-0.2c0.6,0,1.1,0.1,1.5,0.4s0.5,0.8,0.6,1.3v2.5c0,0.5,0.1,0.9,0.2,1.1v0.1
		L379.6,103.9L379.6,103.9z M378.1,103.2c0.3,0,0.6-0.1,0.8-0.3c0.3-0.1,0.4-0.3,0.6-0.6v-1.1h-0.7c-1.1,0-1.7,0.3-1.7,1
		c0,0.3,0.1,0.5,0.3,0.7C377.5,103.2,377.8,103.2,378.1,103.2z M383.1,97.3v1.3h1v0.7h-1v3.3c0,0.2,0.1,0.4,0.1,0.5
		c0.1,0.1,0.3,0.2,0.4,0.2s0.3,0,0.4-0.1v0.8c-0.3,0.1-0.4,0.1-0.7,0.1c-0.4,0-0.7-0.1-1-0.4c-0.2-0.3-0.3-0.6-0.3-1.1v-3.3h-1v-0.7
		h1v-1.3H383.1L383.1,97.3z M386.2,103.9h-0.9v-5.3h0.9V103.9z M385.1,97.1c0-0.1,0.1-0.3,0.1-0.4c0.1-0.1,0.3-0.1,0.4-0.1
		s0.3,0.1,0.4,0.1c0.1,0.1,0.1,0.3,0.1,0.4s-0.1,0.3-0.1,0.4c-0.1,0.1-0.3,0.1-0.4,0.1s-0.3-0.1-0.4-0.1
		C385.2,97.5,385.1,97.3,385.1,97.1z M390.7,102.6c0-0.3-0.1-0.4-0.3-0.6c-0.2-0.1-0.5-0.3-1-0.4c-0.4-0.1-0.8-0.2-1.1-0.4
		c-0.3-0.1-0.4-0.3-0.6-0.5c-0.1-0.2-0.2-0.4-0.2-0.7c0-0.4,0.2-0.8,0.6-1.1s0.8-0.4,1.4-0.4s1.1,0.1,1.5,0.4s0.6,0.7,0.6,1.2h-1
		c0-0.3-0.1-0.4-0.3-0.6c-0.2-0.2-0.5-0.3-0.8-0.3s-0.6,0.1-0.8,0.2s-0.3,0.3-0.3,0.6c0,0.2,0.1,0.4,0.3,0.5c0.2,0.1,0.5,0.2,1,0.3
		c0.4,0.1,0.8,0.3,1.1,0.4c0.3,0.1,0.5,0.3,0.6,0.5s0.2,0.4,0.2,0.7c0,0.5-0.2,0.9-0.6,1.1c-0.4,0.3-0.9,0.4-1.5,0.4
		c-0.4,0-0.8-0.1-1.1-0.3c-0.3-0.1-0.6-0.4-0.8-0.6c-0.2-0.3-0.3-0.6-0.3-0.9h0.9c0,0.3,0.1,0.6,0.4,0.8c0.3,0.2,0.5,0.3,0.9,0.3
		c0.3,0,0.6-0.1,0.8-0.2C390.6,102.9,390.7,102.7,390.7,102.6z M393.3,103.9v-4.6h-0.8v-0.7h0.8V98c0-0.6,0.1-1,0.4-1.3
		s0.8-0.4,1.3-0.4c0.2,0,0.4,0,0.6,0.1l-0.1,0.8c-0.1,0-0.3-0.1-0.5-0.1c-0.3,0-0.5,0.1-0.7,0.3c-0.2,0.2-0.3,0.4-0.3,0.8v0.6h1.1
		v0.7H394v4.6h-0.7V103.9z M399.7,103.9c-0.1-0.1-0.1-0.3-0.1-0.6c-0.4,0.4-1,0.6-1.5,0.6s-1-0.1-1.3-0.4s-0.5-0.7-0.5-1.1
		c0-0.6,0.2-1,0.6-1.3s1-0.4,1.8-0.4h0.9v-0.4c0-0.3-0.1-0.6-0.3-0.8s-0.4-0.3-0.8-0.3c-0.3,0-0.6,0.1-0.8,0.3
		c-0.2,0.2-0.3,0.4-0.3,0.6h-1c0-0.3,0.1-0.5,0.3-0.8c0.2-0.3,0.4-0.4,0.8-0.6c0.3-0.1,0.7-0.2,1.1-0.2c0.6,0,1.1,0.1,1.5,0.4
		s0.5,0.8,0.6,1.3v2.5c0,0.5,0.1,0.9,0.2,1.1v0.1L399.7,103.9L399.7,103.9z M398.2,103.2c0.3,0,0.6-0.1,0.8-0.3
		c0.3-0.1,0.4-0.3,0.6-0.6v-1.1h-0.7c-1.1,0-1.7,0.3-1.7,1c0,0.3,0.1,0.5,0.3,0.7C397.6,103.2,397.9,103.2,398.2,103.2z M404,103.3
		c0.3,0,0.6-0.1,0.8-0.3c0.3-0.2,0.4-0.4,0.4-0.8h0.9c0,0.3-0.1,0.6-0.3,0.9c-0.2,0.3-0.4,0.5-0.8,0.6c-0.3,0.2-0.6,0.3-1,0.3
		c-0.7,0-1.3-0.3-1.7-0.7c-0.4-0.5-0.6-1.1-0.6-2v-0.1c0-0.5,0.1-1,0.3-1.4c0.2-0.4,0.4-0.7,0.8-1s0.8-0.3,1.3-0.3
		c0.6,0,1.1,0.2,1.5,0.5c0.4,0.4,0.6,0.8,0.6,1.4h-1c0-0.3-0.2-0.6-0.4-0.8c-0.3-0.3-0.5-0.3-0.9-0.3s-0.8,0.2-1.1,0.5
		s-0.4,0.8-0.4,1.5v0.2c0,0.6,0.1,1.1,0.4,1.4C403.2,103.1,403.6,103.3,404,103.3z M408.5,97.3v1.3h1v0.7h-1v3.3
		c0,0.2,0.1,0.4,0.1,0.5c0.1,0.1,0.3,0.2,0.4,0.2s0.3,0,0.4-0.1v0.8c-0.3,0.1-0.4,0.1-0.7,0.1c-0.4,0-0.7-0.1-1-0.4
		s-0.3-0.6-0.3-1.1v-3.3h-1v-0.7h1v-1.3H408.5L408.5,97.3z M411.5,103.9h-0.9v-5.3h0.9V103.9z M410.6,97.1c0-0.1,0.1-0.3,0.1-0.4
		c0.1-0.1,0.3-0.1,0.4-0.1c0.2,0,0.3,0.1,0.4,0.1c0.1,0.1,0.1,0.3,0.1,0.4s-0.1,0.3-0.1,0.4c-0.1,0.1-0.3,0.1-0.4,0.1
		c-0.2,0-0.3-0.1-0.4-0.1S410.6,97.3,410.6,97.1z M412.7,101.2c0-0.5,0.1-1,0.3-1.4c0.2-0.4,0.5-0.8,0.9-1c0.4-0.3,0.8-0.3,1.3-0.3
		c0.7,0,1.3,0.3,1.8,0.8s0.7,1.2,0.7,2v0.1c0,0.5-0.1,1-0.3,1.4c-0.2,0.4-0.5,0.8-0.8,1c-0.4,0.3-0.8,0.3-1.3,0.3
		c-0.7,0-1.3-0.3-1.8-0.8S412.8,102.2,412.7,101.2L412.7,101.2L412.7,101.2z M413.7,101.3c0,0.6,0.1,1.1,0.4,1.5s0.6,0.5,1.1,0.5
		s0.8-0.2,1.1-0.6c0.3-0.4,0.4-0.9,0.4-1.5s-0.1-1.1-0.4-1.4c-0.3-0.4-0.6-0.6-1.1-0.6s-0.8,0.2-1.1,0.6
		C413.8,100.1,413.7,100.6,413.7,101.3z M419.7,98.6v0.7c0.4-0.5,1-0.8,1.6-0.8c1.1,0,1.7,0.6,1.7,1.9v3.6h-0.9v-3.6
		c0-0.4-0.1-0.7-0.3-0.8c-0.2-0.2-0.4-0.3-0.8-0.3c-0.3,0-0.6,0.1-0.8,0.3c-0.3,0.1-0.4,0.4-0.5,0.6v3.8h-0.9v-5.3L419.7,98.6
		L419.7,98.6L419.7,98.6z"/>
	<path class="st21" d="M355.4,81.9c-0.8,0.8-1.7,1.1-2.8,1.1c-1.3,0-2.4-0.4-3.2-1.4c-0.8-1-1.2-2.2-1.2-3.8c0-1,0.2-1.9,0.6-2.7
		c0.4-0.8,1.1-1.5,1.8-2s1.7-0.7,2.7-0.7s1.9,0.3,2.7,0.8c0.8,0.5,1.4,1.2,1.8,2.2s0.6,2,0.6,3.2v1.1c0,2.5-0.6,4.6-1.9,6
		c-1.3,1.5-3.1,2.2-5.4,2.4h-0.8v-2.5h0.7C353.7,85.5,355.1,84.3,355.4,81.9z M353.4,80.7c0.5,0,0.9-0.1,1.3-0.4s0.6-0.6,0.8-0.9
		v-1.3c0-1-0.2-1.8-0.6-2.4s-1-0.8-1.6-0.8s-1.1,0.3-1.5,0.8c-0.4,0.6-0.6,1.3-0.6,2.1c0,0.8,0.2,1.5,0.6,2.1
		C352.1,80.5,352.7,80.7,353.4,80.7z M371.7,74.4l-5.9,13.7h-3.2l6-12.9H361v-2.5h10.9L371.7,74.4L371.7,74.4z M374.3,75.7
		c0-1,0.3-1.7,0.9-2.3c0.6-0.6,1.4-0.9,2.4-0.9s1.8,0.3,2.4,0.9s0.9,1.3,0.9,2.4v0.8c0,1-0.3,1.7-0.9,2.3c-0.6,0.6-1.4,0.9-2.4,0.9
		s-1.8-0.3-2.4-0.9s-0.9-1.4-0.9-2.4V75.7z M376.3,76.5c0,0.4,0.1,0.8,0.4,1c0.3,0.3,0.6,0.4,1,0.4s0.7-0.1,1-0.4s0.3-0.6,0.3-1
		v-0.8c0-0.4-0.1-0.8-0.3-1c-0.3-0.3-0.6-0.4-1-0.4s-0.7,0.1-1,0.4s-0.4,0.6-0.4,1.1V76.5z M381.7,84.3c0-1,0.3-1.7,1-2.3
		c0.6-0.6,1.4-0.9,2.4-0.9s1.8,0.3,2.4,0.9s1,1.3,1,2.4v0.8c0,1-0.3,1.7-0.9,2.3c-0.6,0.6-1.4,0.9-2.4,0.9s-1.8-0.3-2.4-0.9
		s-0.9-1.3-0.9-2.4v-0.8H381.7z M383.7,85.1c0,0.4,0.1,0.7,0.4,1s0.6,0.4,1,0.4c0.9,0,1.3-0.4,1.3-1.4v-0.8c0-0.4-0.1-0.8-0.4-1
		s-0.6-0.4-1-0.4s-0.7,0.1-1,0.4s-0.4,0.6-0.4,1L383.7,85.1L383.7,85.1z M378.2,86.9l-1.5-0.8l7.5-12l1.5,0.8L378.2,86.9z"/>
	<g>
		<path class="st19" d="M533.6,46.7h208.2c4,0,7.2,3.2,7.2,7.2v69.7c0,4-3.2,7.2-7.2,7.2H533.6c-4,0-7.2-3.2-7.2-7.2V54
			C526.3,50,529.6,46.7,533.6,46.7z"/>
	</g>
	<g>
		<g>
			<g>
				<defs>
					<rect id="SVGID_4_" x="719.3" y="58.4" width="24" height="11.6"/>
				</defs>
				<clipPath id="SVGID_5_">
					<use xlink:href="#SVGID_4_"  style="overflow:visible;"/>
				</clipPath>
				<g class="st22">
					<path class="st10" d="M721,64.5h-1v1.9h-0.9v-5h1.8c0.6,0,1,0.1,1.3,0.4c0.3,0.3,0.4,0.6,0.4,1.1c0,0.3-0.1,0.6-0.3,0.8
						c-0.2,0.3-0.4,0.4-0.7,0.5l1.1,2.1l0,0h-1L721,64.5z M720.1,63.8h0.9c0.3,0,0.5-0.1,0.7-0.2s0.3-0.3,0.3-0.6s-0.1-0.4-0.3-0.6
						c-0.1-0.1-0.4-0.2-0.7-0.3h-0.9V63.8z M724.3,65.6c0.1,0,0.3,0.1,0.4,0.1c0.1,0.1,0.1,0.2,0.1,0.3c0,0.1-0.1,0.3-0.1,0.3
						s-0.2,0.1-0.4,0.1c-0.1,0-0.3-0.1-0.4-0.1c-0.1-0.1-0.1-0.2-0.1-0.3c0-0.1,0.1-0.3,0.1-0.3C724.1,65.6,724.1,65.6,724.3,65.6z"
						/>
					<path class="st21" d="M731.6,64.7c-0.4,0.4-0.9,0.6-1.4,0.6c-0.6,0-1.1-0.2-1.5-0.6c-0.4-0.4-0.6-1-0.6-1.8
						c0-0.5,0.1-0.9,0.3-1.3s0.4-0.7,0.8-0.9c0.4-0.2,0.8-0.3,1.2-0.3c0.7,0,1.3,0.3,1.7,0.8c0.4,0.6,0.6,1.3,0.6,2.2v0.3
						c0,1.3-0.3,2.3-0.9,3c-0.6,0.7-1.5,1-2.6,1h-0.1v-1h0.2c0.7,0,1.3-0.2,1.7-0.5C731.3,65.9,731.5,65.4,731.6,64.7z M730.4,64.4
						c0.3,0,0.4-0.1,0.7-0.2c0.2-0.1,0.4-0.3,0.5-0.6v-0.4c0-0.5-0.1-1-0.3-1.3s-0.5-0.5-0.8-0.5s-0.6,0.1-0.8,0.4
						c-0.2,0.3-0.3,0.6-0.3,1.1c0,0.4,0.1,0.8,0.3,1.1C729.8,64.3,730,64.4,730.4,64.4z M735.4,66.4c0.3,0,0.4,0.1,0.5,0.2
						c0.1,0.1,0.2,0.3,0.2,0.5c0,0.2-0.1,0.3-0.2,0.4c-0.1,0.1-0.3,0.2-0.5,0.2s-0.4-0.1-0.5-0.2c-0.1-0.1-0.2-0.3-0.2-0.4
						c0-0.2,0.1-0.4,0.2-0.5C735,66.5,735.1,66.4,735.4,66.4z M741.4,64.7c-0.4,0.4-0.9,0.6-1.4,0.6c-0.6,0-1.1-0.2-1.5-0.6
						c-0.4-0.4-0.6-1-0.6-1.8c0-0.5,0.1-0.9,0.3-1.3s0.4-0.7,0.8-0.9s0.8-0.3,1.2-0.3c0.7,0,1.3,0.3,1.7,0.8
						c0.4,0.6,0.6,1.3,0.6,2.2v0.3c0,1.3-0.3,2.3-0.9,3c-0.6,0.7-1.5,1-2.6,1l0,0v-1h0.2c0.7,0,1.3-0.2,1.7-0.5
						C741.2,65.9,741.4,65.4,741.4,64.7z M740.3,64.4c0.3,0,0.4-0.1,0.7-0.2c0.2-0.1,0.4-0.3,0.5-0.6v-0.4c0-0.5-0.1-1-0.3-1.3
						s-0.5-0.5-0.8-0.5s-0.6,0.1-0.8,0.4c-0.2,0.3-0.3,0.6-0.3,1.1c0,0.4,0.1,0.8,0.3,1.1C739.6,64.2,740,64.4,740.3,64.4z"/>
				</g>
			</g>
		</g>
	</g>
	<g>
		<path class="st3" d="M553.2,68.5H575c5.2,0,9.4,4.2,9.4,9.4v21.7c0,5.2-4.2,9.4-9.4,9.4h-21.7c-5.2,0-9.4-4.2-9.4-9.4V78
			C543.7,72.7,548,68.5,553.2,68.5z"/>
	</g>
	<g>
		<path class="st19" d="M43.2,46.7h208.2c4,0,7.2,3.2,7.2,7.2v69.7c0,4-3.2,7.2-7.2,7.2H43.2c-4,0-7.2-3.2-7.2-7.2V54
			C36,50,39.2,46.7,43.2,46.7z"/>
	</g>
	<g>
		<g>
			<g>
				<defs>
					<rect id="SVGID_6_" x="221" y="58.4" width="24.7" height="11.6"/>
				</defs>
				<clipPath id="SVGID_7_">
					<use xlink:href="#SVGID_6_"  style="overflow:visible;"/>
				</clipPath>
				<g class="st23">
					<path class="st10" d="M223.3,64.5h-1v1.9h-0.9v-5h1.8c0.6,0,1,0.1,1.3,0.4c0.3,0.3,0.4,0.6,0.4,1.1c0,0.3-0.1,0.6-0.3,0.8
						c-0.2,0.3-0.4,0.4-0.7,0.5l1.1,2.1l0,0h-1L223.3,64.5z M222.3,63.8h0.9c0.3,0,0.5-0.1,0.7-0.2s0.3-0.3,0.3-0.6
						s-0.1-0.4-0.3-0.6c-0.1-0.1-0.4-0.2-0.7-0.3h-0.9V63.8z M226.6,65.6c0.1,0,0.3,0.1,0.4,0.1c0.1,0.1,0.1,0.2,0.1,0.3
						c0,0.1-0.1,0.3-0.1,0.3s-0.2,0.1-0.4,0.1c-0.1,0-0.3-0.1-0.4-0.1c-0.1-0.1-0.1-0.2-0.1-0.3c0-0.1,0.1-0.3,0.1-0.3
						C226.3,65.6,226.4,65.6,226.6,65.6z"/>
					<path class="st21" d="M233.8,64.7c-0.4,0.4-0.9,0.6-1.4,0.6c-0.6,0-1.1-0.2-1.5-0.6c-0.4-0.4-0.6-1-0.6-1.8
						c0-0.5,0.1-0.9,0.3-1.3c0.2-0.4,0.4-0.7,0.8-0.9c0.4-0.2,0.8-0.3,1.2-0.3c0.7,0,1.3,0.3,1.7,0.8c0.4,0.6,0.6,1.3,0.6,2.2v0.3
						c0,1.3-0.3,2.3-0.9,3c-0.6,0.7-1.5,1-2.6,1h-0.1v-1h0.2c0.7,0,1.3-0.2,1.7-0.5C233.6,65.9,233.7,65.4,233.8,64.7z M232.7,64.4
						c0.3,0,0.4-0.1,0.7-0.2c0.3-0.1,0.4-0.3,0.5-0.6v-0.4c0-0.5-0.1-1-0.3-1.3s-0.5-0.5-0.8-0.5s-0.6,0.1-0.8,0.4
						c-0.2,0.3-0.3,0.6-0.3,1.1c0,0.4,0.1,0.8,0.3,1.1C232.1,64.3,232.3,64.4,232.7,64.4z M237.6,66.4c0.3,0,0.4,0.1,0.5,0.2
						c0.1,0.1,0.2,0.3,0.2,0.5c0,0.2-0.1,0.3-0.2,0.4c-0.1,0.1-0.3,0.2-0.5,0.2s-0.4-0.1-0.5-0.2c-0.1-0.1-0.2-0.3-0.2-0.4
						c0-0.2,0.1-0.4,0.2-0.5C237.2,66.5,237.4,66.4,237.6,66.4z M240.6,64.2l0.4-3.6h3.9v1H242l-0.2,1.7c0.3-0.2,0.7-0.3,1.1-0.3
						c0.7,0,1.2,0.2,1.6,0.6c0.4,0.4,0.6,1,0.6,1.8s-0.2,1.3-0.6,1.8s-1,0.6-1.7,0.6c-0.6,0-1.2-0.2-1.7-0.6
						c-0.4-0.4-0.7-0.9-0.7-1.5h1.1c0.1,0.4,0.2,0.6,0.4,0.8s0.4,0.3,0.8,0.3c0.4,0,0.6-0.1,0.9-0.4c0.2-0.3,0.3-0.6,0.3-1.1
						s-0.1-0.8-0.3-1c-0.3-0.3-0.6-0.4-1-0.4c-0.2,0-0.4,0-0.6,0.1c-0.1,0.1-0.3,0.2-0.5,0.3L240.6,64.2z"/>
				</g>
			</g>
		</g>
	</g>
	<g>
		<path class="st12" d="M62.8,68.5h21.7c5.2,0,9.4,4.2,9.4,9.4v21.7c0,5.2-4.2,9.4-9.4,9.4H62.8c-5.2,0-9.4-4.2-9.4-9.4V78
			C53.4,72.7,57.6,68.5,62.8,68.5z"/>
	</g>
	<path class="st24" d="M84.3,85.5c0.6,0.6,0.6,1.5,0,2l-0.9,0.9L83,88.1l-1.5,1.5l-1-1l-0.3,0.3l-0.1-0.1c0.5,0.4,0.5,1.3,0,1.7
		l-0.7,0.7c0.2,0.3,0.3,0.6,0.3,1s-0.2,0.8-0.4,1.1l-3.1,3.1c-0.3,0.3-0.7,0.4-1.1,0.4s-0.7-0.1-1-0.3c-0.5,0.4-1.2,0.4-1.7-0.1
		l-3.1-3.1c-0.4-0.4-0.5-1.1-0.1-1.7L68.7,91c-0.5-0.5-0.6-1.3-0.3-1.8L68,88.8l-0.8,0.7L65.7,88l-0.3,0.3l-0.9-0.9
		c-0.6-0.6-0.6-1.5,0-2l3.7-3.6c0.6-0.6,1.5-0.6,2,0l1,1L71,83l1.5,1.5l-0.8,0.7l0.4,0.4c0.3-0.1,0.5-0.2,0.8-0.2
		c0.4,0,0.8,0.1,1.1,0.4l0.6,0.6l0.7-0.7c0.5-0.4,1.3-0.4,1.8,0L77,85.6l0.3-0.3l-1-1l1.5-1.5l-0.3-0.3l1-1c0.6-0.6,1.5-0.6,2,0
		L84.3,85.5z M70.5,83.5l-4.3,4.2l1.1,1.1l4.3-4.2L70.5,83.5z M79,92.9L75.9,96c-0.2,0.2-0.4,0.3-0.6,0.3s-0.4-0.1-0.5-0.1l0,0
		l0.4-0.4c0.5-0.4,0.5-1.3,0-1.7L72,90.9c-0.5-0.4-1.3-0.4-1.8,0l-0.4,0.3l0,0l-0.6-0.6c-0.4-0.3-0.4-0.9-0.1-1.3l0.2-0.2l-0.8-0.8
		l2.8-2.7l0.8,0.8l0.2-0.2c0.2-0.1,0.4-0.3,0.6-0.3s0.5,0.1,0.6,0.3l0.6,0.6l-1.6,1.5l0.4,0.4l0.1,0.1c0.5,0.4,1.3,0.4,1.8,0
		l0.7-0.7l3.3,3.2c0.2,0.2,0.3,0.4,0.3,0.6C79.2,92.4,79.2,92.7,79,92.9z M77.3,84.6l4.3,4.2l1.1-1.1l-4.3-4.2L77.3,84.6z"/>
	<path class="st25" d="M111.8,100.7c-0.8-0.3-1.4-0.5-1.8-0.9c-0.4-0.3-0.6-0.8-0.6-1.3c0-0.6,0.3-1,0.7-1.4
		c0.4-0.4,1.1-0.6,1.8-0.6c0.5,0,1,0.1,1.3,0.3s0.7,0.4,0.9,0.8c0.2,0.3,0.3,0.7,0.3,1.1h-1c0-0.4-0.1-0.8-0.4-1
		c-0.3-0.3-0.7-0.4-1.2-0.4c-0.4,0-0.8,0.1-1.1,0.3s-0.4,0.5-0.4,0.9c0,0.3,0.1,0.6,0.4,0.8c0.3,0.2,0.7,0.4,1.3,0.6
		s1.1,0.4,1.4,0.6s0.6,0.4,0.8,0.7s0.3,0.6,0.3,1c0,0.6-0.3,1.1-0.7,1.4c-0.4,0.4-1.1,0.5-1.8,0.5c-0.5,0-1-0.1-1.4-0.3
		c-0.4-0.2-0.8-0.4-1-0.8c-0.3-0.3-0.3-0.7-0.3-1.1h1c0,0.4,0.2,0.8,0.5,1c0.3,0.3,0.8,0.4,1.3,0.4s0.9-0.1,1.1-0.3
		c0.3-0.2,0.4-0.5,0.4-0.8s-0.1-0.6-0.4-0.8C112.9,101.1,112.5,100.9,111.8,100.7z M116.5,98.5v0.6c0.4-0.4,1-0.7,1.6-0.7
		c0.8,0,1.3,0.3,1.5,0.9c0.2-0.3,0.4-0.4,0.7-0.6c0.3-0.2,0.6-0.3,1-0.3c1.2,0,1.8,0.6,1.8,1.8v3.6h-0.9v-3.6c0-0.4-0.1-0.7-0.3-0.9
		c-0.2-0.2-0.4-0.3-0.9-0.3c-0.3,0-0.6,0.1-0.8,0.3c-0.3,0.2-0.4,0.4-0.4,0.8v3.6h-1v-3.5c0-0.8-0.4-1.1-1.1-1.1
		c-0.6,0-1,0.3-1.2,0.8v3.9h-0.9v-5.4L116.5,98.5L116.5,98.5z M124.2,101.2c0-0.5,0.1-1,0.3-1.4c0.2-0.4,0.5-0.8,0.9-1
		c0.4-0.3,0.8-0.3,1.3-0.3c0.8,0,1.3,0.3,1.8,0.8c0.4,0.5,0.7,1.2,0.7,2v0.1c0,0.5-0.1,1-0.3,1.4s-0.5,0.8-0.9,1
		c-0.4,0.3-0.8,0.3-1.3,0.3c-0.7,0-1.3-0.3-1.8-0.8C124.5,102.8,124.2,102.1,124.2,101.2L124.2,101.2z M125.2,101.3
		c0,0.6,0.1,1.1,0.4,1.5s0.6,0.6,1.1,0.6c0.4,0,0.8-0.2,1.1-0.6s0.4-0.9,0.4-1.5s-0.1-1.1-0.4-1.5c-0.3-0.4-0.6-0.6-1.1-0.6
		c-0.4,0-0.8,0.2-1.1,0.6C125.3,100.1,125.2,100.6,125.2,101.3z M130.1,101.2c0-0.5,0.1-1,0.3-1.4s0.5-0.8,0.9-1
		c0.4-0.3,0.8-0.3,1.3-0.3c0.8,0,1.3,0.3,1.8,0.8c0.4,0.5,0.7,1.2,0.7,2v0.1c0,0.5-0.1,1-0.3,1.4s-0.5,0.8-0.9,1
		c-0.4,0.3-0.8,0.3-1.3,0.3c-0.7,0-1.3-0.3-1.8-0.8C130.3,102.8,130.1,102.1,130.1,101.2L130.1,101.2z M131,101.3
		c0,0.6,0.1,1.1,0.4,1.5c0.3,0.4,0.6,0.6,1.1,0.6c0.4,0,0.8-0.2,1.1-0.6s0.4-0.9,0.4-1.5s-0.1-1.1-0.4-1.5c-0.3-0.4-0.6-0.6-1.1-0.6
		c-0.4,0-0.8,0.2-1.1,0.6C131.1,100.1,131,100.6,131,101.3z M137.3,97.3v1.3h1v0.7h-1v3.3c0,0.2,0.1,0.4,0.1,0.5
		c0.1,0.1,0.3,0.2,0.4,0.2c0.1,0,0.3,0,0.4-0.1v0.8c-0.3,0.1-0.5,0.1-0.7,0.1c-0.4,0-0.7-0.1-1-0.4c-0.2-0.3-0.3-0.6-0.3-1.1v-3.3
		h-1v-0.7h1v-1.3H137.3L137.3,97.3z M140.4,99.2c0.4-0.5,1-0.8,1.6-0.8c1.1,0,1.7,0.6,1.7,1.9v3.6h-0.9v-3.6c0-0.4-0.1-0.7-0.3-0.9
		c-0.2-0.2-0.4-0.3-0.8-0.3c-0.3,0-0.6,0.1-0.8,0.3s-0.4,0.4-0.5,0.6v3.8h-0.9v-7.6h0.9V99.2L140.4,99.2z M150.2,99.4
		c-0.1,0-0.3-0.1-0.4-0.1c-0.6,0-1,0.3-1.2,0.8v3.8h-0.9v-5.4h0.9v0.6c0.3-0.5,0.7-0.7,1.3-0.7c0.2,0,0.3,0,0.4,0.1L150.2,99.4
		L150.2,99.4z M154.3,103.4c-0.4,0.4-0.9,0.6-1.6,0.6c-0.6,0-1-0.2-1.3-0.5s-0.4-0.8-0.4-1.5v-3.5h0.9v3.5c0,0.8,0.3,1.2,1,1.2
		s1.1-0.3,1.4-0.8v-3.9h0.9v5.4h-0.9L154.3,103.4z M157.5,98.5v0.7c0.4-0.5,1-0.8,1.6-0.8c1.1,0,1.7,0.6,1.7,1.9v3.6h-0.9v-3.6
		c0-0.4-0.1-0.7-0.3-0.9c-0.2-0.2-0.4-0.3-0.8-0.3c-0.3,0-0.6,0.1-0.8,0.3s-0.4,0.4-0.5,0.6v3.8h-0.9v-5.4h0.9V98.5z"/>
	<path class="st21" d="M120.3,74.4l-6,13.7h-3.2l6-12.9h-7.6v-2.5h10.9v1.7H120.3z M123.4,80.5l0.9-7.8h8.6v2.5h-6.1l-0.4,3.3
		c0.7-0.4,1.5-0.6,2.3-0.6c1.5,0,2.6,0.4,3.4,1.3c0.8,0.9,1.3,2.2,1.3,3.8c0,1-0.2,1.9-0.6,2.7s-1,1.4-1.8,1.8s-1.7,0.6-2.7,0.6
		s-1.8-0.2-2.6-0.6c-0.8-0.4-1.4-0.9-1.9-1.6c-0.4-0.7-0.7-1.5-0.7-2.4h3c0.1,0.6,0.3,1.1,0.6,1.5c0.4,0.4,0.9,0.5,1.5,0.5
		c0.7,0,1.2-0.3,1.6-0.8c0.4-0.5,0.6-1.2,0.6-2.1s-0.2-1.5-0.6-2c-0.4-0.4-1-0.7-1.8-0.7c-0.7,0-1.3,0.2-1.8,0.6l-0.3,0.3
		L123.4,80.5z M135.9,75.7c0-1,0.3-1.7,0.9-2.3c0.6-0.6,1.4-0.9,2.4-0.9s1.8,0.3,2.4,0.9c0.6,0.6,0.9,1.3,0.9,2.4v0.8
		c0,1-0.3,1.7-0.9,2.3c-0.6,0.6-1.4,0.9-2.4,0.9s-1.8-0.3-2.4-0.9c-0.6-0.6-0.9-1.4-0.9-2.4V75.7z M138,76.5c0,0.4,0.1,0.8,0.4,1
		c0.3,0.3,0.6,0.4,1,0.4s0.7-0.1,1-0.4s0.3-0.6,0.3-1v-0.8c0-0.4-0.1-0.8-0.3-1c-0.3-0.3-0.6-0.4-1-0.4s-0.7,0.1-1,0.4
		s-0.4,0.6-0.4,1.1V76.5z M143.3,84.3c0-1,0.3-1.7,1-2.3c0.6-0.6,1.4-0.9,2.4-0.9s1.8,0.3,2.4,0.9c0.6,0.6,1,1.3,1,2.4v0.8
		c0,1-0.3,1.7-0.9,2.3c-0.6,0.6-1.4,0.9-2.4,0.9s-1.8-0.3-2.4-0.9c-0.6-0.6-0.9-1.3-0.9-2.4v-0.8H143.3z M145.3,85.1
		c0,0.4,0.1,0.7,0.4,1c0.3,0.3,0.6,0.4,1,0.4c0.8,0,1.3-0.4,1.3-1.4v-0.8c0-0.4-0.1-0.8-0.4-1c-0.3-0.3-0.6-0.4-1-0.4
		s-0.7,0.1-1,0.4s-0.4,0.6-0.4,1L145.3,85.1L145.3,85.1z M139.9,86.9l-1.5-0.8l7.5-12l1.5,0.8L139.9,86.9z"/>
	<g>
		<path class="st1" d="M640.6,190.6h91c6.4,0,11.5,5.2,11.5,11.5v66c0,6.4-5.2,11.5-11.5,11.5h-91c-6.4,0-11.5-5.2-11.5-11.5v-66
			C629.1,195.8,634.3,190.6,640.6,190.6z"/>
	</g>
	<g>
		<path class="st12" d="M656.4,206.2h1.3c6.7,0,12.2,5.5,12.2,12.2v1.3c0,6.7-5.5,12.2-12.2,12.2h-1.3c-6.7,0-12.2-5.5-12.2-12.2
			v-1.3C644.2,211.7,649.7,206.2,656.4,206.2z"/>
	</g>
	<path class="st21" d="M649,250.7v5.1c0,0.7-0.2,1.2-0.6,1.6c-0.4,0.4-0.9,0.6-1.6,0.6c-0.7,0-1.3-0.2-1.8-0.6
		c-0.4-0.4-0.6-1-0.6-1.8h1.4c0,0.4,0.1,0.7,0.2,0.9c0.2,0.2,0.4,0.3,0.7,0.3s0.5-0.1,0.6-0.2c0.1-0.2,0.2-0.4,0.2-0.7v-5.1h1.5
		V250.7z M655.6,254.8c0,0.1,0,0.3-0.1,0.5h-4.2c0,0.5,0.2,0.9,0.4,1.1c0.3,0.2,0.6,0.4,0.9,0.4c0.3,0,0.6-0.1,0.8-0.2
		c0.2-0.2,0.4-0.4,0.4-0.7h1.5c-0.1,0.4-0.2,0.8-0.5,1.1c-0.2,0.3-0.6,0.6-1,0.7c-0.4,0.2-0.8,0.3-1.3,0.3c-0.6,0-1-0.1-1.5-0.3
		c-0.4-0.2-0.8-0.6-1-1s-0.4-1-0.4-1.5c0-0.6,0.1-1.1,0.4-1.5c0.2-0.4,0.6-0.8,1-1c0.4-0.2,0.9-0.3,1.5-0.3s1,0.1,1.5,0.3
		c0.4,0.2,0.7,0.6,1,1C655.5,253.9,655.6,254.3,655.6,254.8z M654.1,254.7c0-0.5-0.1-0.8-0.4-1.1c-0.3-0.2-0.6-0.4-1-0.4
		s-0.7,0.1-1,0.4c-0.3,0.2-0.4,0.6-0.4,1.1H654.1z M658.1,250.3v7.6h-1.4v-7.6H658.1z M664.9,250.6c0.9,0,1.7,0.2,2.2,0.7
		c0.6,0.5,1,1.1,1.2,1.9h-1.5c-0.2-0.4-0.4-0.7-0.7-0.9c-0.3-0.2-0.7-0.3-1.2-0.3c-0.4,0-0.7,0.1-1,0.3c-0.3,0.2-0.5,0.5-0.7,0.8
		c-0.2,0.4-0.3,0.8-0.3,1.3s0.1,0.9,0.3,1.2c0.2,0.4,0.4,0.6,0.7,0.8c0.3,0.2,0.7,0.3,1,0.3c0.5,0,0.9-0.1,1.2-0.3
		c0.3-0.2,0.6-0.5,0.7-0.9h1.5c-0.2,0.8-0.6,1.4-1.2,1.9c-0.6,0.5-1.3,0.7-2.2,0.7c-0.7,0-1.3-0.2-1.8-0.5c-0.5-0.3-0.9-0.8-1.2-1.3
		c-0.3-0.6-0.4-1.2-0.4-1.9c0-0.7,0.1-1.4,0.4-1.9c0.3-0.6,0.7-1,1.2-1.3C663.6,250.7,664.2,250.6,664.9,250.6z M672.8,252.1
		c0.7,0,1.2,0.2,1.6,0.6c0.4,0.4,0.6,1,0.6,1.8v3.3h-1.4v-3.1c0-0.5-0.1-0.8-0.3-1c-0.2-0.3-0.6-0.4-1-0.4s-0.7,0.1-1,0.4
		c-0.2,0.3-0.4,0.6-0.4,1.1v3h-1.4v-7.5h1.4v3c0.2-0.4,0.4-0.7,0.7-0.9C671.9,252.2,672.3,252.1,672.8,252.1z M676,250.6
		c0-0.2,0.1-0.4,0.2-0.6c0.2-0.2,0.4-0.2,0.6-0.2s0.5,0.1,0.6,0.2c0.2,0.1,0.2,0.3,0.2,0.6c0,0.2-0.1,0.4-0.2,0.6
		c-0.2,0.1-0.4,0.2-0.6,0.2s-0.5-0.1-0.6-0.2C676.1,251,676,250.8,676,250.6z M677.6,252.2v5.7h-1.4v-5.7H677.6z M682.3,252.1
		c0.5,0,0.9,0.1,1.3,0.3c0.4,0.2,0.7,0.6,0.9,1s0.3,1,0.3,1.5c0,0.6-0.1,1.1-0.3,1.6c-0.2,0.4-0.5,0.8-0.9,1
		c-0.4,0.2-0.8,0.3-1.3,0.3s-0.9-0.1-1.2-0.3c-0.3-0.2-0.6-0.5-0.7-0.9v1.2H679v-7.5h1.4v3.1c0.1-0.4,0.4-0.7,0.7-0.9
		C681.5,252.3,681.9,252.1,682.3,252.1z M681.9,253.4c-0.4,0-0.8,0.2-1.1,0.5c-0.3,0.3-0.4,0.7-0.4,1.2s0.1,0.9,0.4,1.2
		c0.3,0.3,0.6,0.4,1.1,0.4s0.8-0.1,1.1-0.4s0.4-0.7,0.4-1.2s-0.1-0.9-0.4-1.2C682.7,253.5,682.3,253.4,681.9,253.4z M691.3,252.2
		v5.7h-1.4v-1.1c-0.2,0.4-0.4,0.7-0.7,0.9c-0.3,0.2-0.7,0.3-1.2,0.3c-0.7,0-1.2-0.2-1.6-0.6c-0.4-0.4-0.6-1-0.6-1.8v-3.3h1.4v3.1
		c0,0.5,0.1,0.8,0.3,1.1c0.2,0.2,0.5,0.4,0.9,0.4s0.7-0.1,1-0.4s0.4-0.6,0.4-1.1v-3h1.5V252.2z M693.8,256.7h2.8v1.2h-4.4v-1.1
		l2.6-3.3h-2.6v-1.2h4.2v1.1L693.8,256.7z M700.1,252.1c0.6,0,1,0.1,1.5,0.3c0.4,0.2,0.8,0.6,1,1c0.3,0.4,0.4,1,0.4,1.5
		c0,0.6-0.1,1.1-0.4,1.5c-0.3,0.4-0.6,0.8-1,1c-0.4,0.2-0.9,0.3-1.5,0.3s-1.1-0.1-1.5-0.3c-0.4-0.2-0.8-0.6-1-1
		c-0.3-0.4-0.4-1-0.4-1.5c0-0.6,0.1-1.1,0.4-1.5c0.3-0.4,0.6-0.8,1-1C699.1,252.3,699.6,252.1,700.1,252.1z M700.1,253.4
		c-0.4,0-0.7,0.1-1,0.4c-0.3,0.3-0.4,0.7-0.4,1.2s0.1,1,0.4,1.2c0.3,0.3,0.6,0.4,1,0.4s0.7-0.1,1-0.4s0.4-0.7,0.4-1.2
		s-0.1-1-0.4-1.2C700.9,253.5,700.5,253.4,700.1,253.4z"/>
	<path class="st26" d="M704.1,219.1c0,0.5-0.1,1-0.3,1.4s-0.5,0.7-1,0.9c-0.4,0.2-0.9,0.3-1.5,0.3h-1.8v-5.4h1.8
		c0.6,0,1.1,0.1,1.5,0.3c0.4,0.2,0.8,0.5,1,0.9C704,218,704.1,218.5,704.1,219.1z M701.2,221c0.7,0,1.2-0.2,1.5-0.5
		c0.3-0.3,0.5-0.8,0.5-1.4c0-0.6-0.2-1.1-0.5-1.4c-0.3-0.3-0.8-0.5-1.5-0.5h-0.9v3.9h0.9V221z M706.2,217.1v1.6h2v0.7h-2v1.7h2.2
		v0.7h-3.1v-5.4h3.1v0.7H706.2z M713.2,220.3c0,0.3-0.1,0.5-0.2,0.7c-0.1,0.2-0.3,0.4-0.6,0.5s-0.6,0.2-1,0.2s-0.7-0.1-1-0.2
		c-0.3-0.1-0.5-0.3-0.7-0.6c-0.2-0.2-0.3-0.5-0.3-0.8h0.9c0,0.2,0.1,0.4,0.3,0.6s0.4,0.3,0.7,0.3s0.5-0.1,0.6-0.2s0.2-0.3,0.2-0.6
		c0-0.2-0.1-0.4-0.2-0.5c-0.1-0.1-0.2-0.2-0.4-0.3s-0.4-0.2-0.7-0.2c-0.3-0.1-0.6-0.2-0.8-0.3s-0.4-0.3-0.5-0.5
		c-0.1-0.2-0.2-0.5-0.2-0.8c0-0.3,0.1-0.5,0.2-0.8c0.1-0.2,0.3-0.4,0.6-0.5s0.6-0.2,0.9-0.2c0.6,0,1,0.1,1.3,0.4
		c0.3,0.3,0.5,0.6,0.6,1H712c0-0.2-0.1-0.4-0.3-0.5s-0.4-0.2-0.6-0.2c-0.2,0-0.4,0.1-0.6,0.2c-0.1,0.1-0.2,0.3-0.2,0.5
		c0,0.2,0.1,0.3,0.2,0.5c0.1,0.1,0.2,0.2,0.4,0.3s0.4,0.1,0.6,0.2c0.3,0.1,0.6,0.2,0.8,0.3s0.4,0.3,0.6,0.5
		C713.2,219.7,713.2,220,713.2,220.3z M715.3,216.4v5.4h-0.9v-5.4H715.3z M719.2,216.3c0.6,0,1.2,0.2,1.6,0.5
		c0.4,0.3,0.7,0.8,0.9,1.3h-0.9c-0.1-0.3-0.3-0.5-0.6-0.7c-0.3-0.2-0.6-0.3-1-0.3c-0.3,0-0.6,0.1-0.9,0.2c-0.3,0.2-0.5,0.4-0.6,0.7
		c-0.1,0.3-0.2,0.6-0.2,1s0.1,0.8,0.2,1.1c0.2,0.3,0.4,0.5,0.6,0.7c0.3,0.2,0.6,0.2,1,0.2c0.5,0,0.8-0.1,1.2-0.4
		c0.3-0.3,0.5-0.7,0.6-1.2h-2v-0.6h2.7v0.8c-0.1,0.4-0.2,0.8-0.4,1.1c-0.2,0.3-0.5,0.6-0.9,0.8c-0.4,0.2-0.8,0.3-1.3,0.3
		s-1-0.1-1.4-0.4c-0.4-0.2-0.7-0.6-0.9-1s-0.3-0.9-0.3-1.4s0.1-1,0.3-1.4s0.5-0.7,0.9-1C718.2,216.4,718.7,216.3,719.2,216.3z
		 M727.4,221.8h-0.9l-2.6-4v4H723v-5.4h0.9l2.6,4v-4h0.9V221.8z"/>
	<path class="st0" d="M653.3,219.5c-0.2,0.2-0.6,0.3-0.8,0.3c-0.4,0-0.8-0.2-1-0.4c-0.3-0.3-0.4-0.7-0.4-1.2c0-0.3,0.1-0.6,0.2-0.8
		c0.1-0.3,0.3-0.4,0.6-0.6c0.2-0.2,0.5-0.2,0.8-0.2s0.6,0.1,0.8,0.2c0.2,0.2,0.4,0.4,0.6,0.7c0.1,0.3,0.2,0.6,0.2,1v0.3
		c0,0.8-0.2,1.4-0.6,1.9c-0.4,0.4-0.9,0.7-1.7,0.7h-0.2v-0.8h0.2C652.8,220.6,653.3,220.2,653.3,219.5z M652.7,219.1
		c0.2,0,0.3-0.1,0.4-0.1c0.1-0.1,0.2-0.2,0.3-0.3v-0.4c0-0.3-0.1-0.6-0.2-0.7c-0.1-0.2-0.3-0.3-0.5-0.3s-0.3,0.1-0.4,0.3
		c-0.1,0.2-0.2,0.4-0.2,0.7c0,0.3,0.1,0.4,0.2,0.6C652.3,219.1,652.5,219.1,652.7,219.1z M655.1,219.1l0.3-2.4h2.6v0.8h-1.9l-0.1,1
		c0.2-0.1,0.4-0.2,0.7-0.2c0.4,0,0.8,0.2,1,0.4c0.3,0.3,0.4,0.7,0.4,1.2c0,0.3-0.1,0.6-0.2,0.8c-0.1,0.2-0.3,0.4-0.6,0.6
		c-0.2,0.1-0.5,0.2-0.8,0.2s-0.6-0.1-0.8-0.2c-0.2-0.1-0.4-0.3-0.6-0.5c-0.2-0.2-0.2-0.4-0.2-0.7h0.9c0,0.2,0.1,0.3,0.2,0.4
		c0.1,0.1,0.3,0.2,0.4,0.2c0.2,0,0.4-0.1,0.5-0.2c0.1-0.2,0.2-0.4,0.2-0.7c0-0.3-0.1-0.5-0.2-0.6c-0.1-0.2-0.3-0.2-0.6-0.2
		s-0.4,0.1-0.6,0.2l-0.1,0.1L655.1,219.1z M658.7,217.6c0-0.3,0.1-0.5,0.3-0.7c0.2-0.2,0.4-0.3,0.7-0.3s0.6,0.1,0.7,0.3
		c0.2,0.2,0.3,0.4,0.3,0.7v0.2c0,0.3-0.1,0.6-0.3,0.7c-0.2,0.2-0.4,0.3-0.7,0.3s-0.6-0.1-0.7-0.3c-0.2-0.2-0.3-0.4-0.3-0.7V217.6z
		 M659.3,217.9c0,0.1,0.1,0.2,0.1,0.3c0.1,0.1,0.2,0.1,0.3,0.1s0.2-0.1,0.3-0.1c0.1-0.1,0.1-0.2,0.1-0.3v-0.2c0-0.1-0.1-0.2-0.1-0.3
		c-0.1-0.1-0.2-0.1-0.3-0.1s-0.2,0.1-0.3,0.1c-0.1,0.1-0.1,0.2-0.1,0.3V217.9z M661,220.2c0-0.3,0.1-0.6,0.3-0.7
		c0.2-0.2,0.4-0.3,0.7-0.3s0.6,0.1,0.7,0.3c0.2,0.2,0.3,0.4,0.3,0.7v0.2c0,0.3-0.1,0.5-0.3,0.7c-0.2,0.2-0.4,0.3-0.7,0.3
		s-0.6-0.1-0.8-0.3c-0.2-0.2-0.3-0.4-0.3-0.7L661,220.2L661,220.2z M661.6,220.5c0,0.1,0.1,0.2,0.1,0.3c0.1,0.1,0.2,0.1,0.3,0.1
		c0.3,0,0.4-0.2,0.4-0.4v-0.2c0-0.1-0.1-0.2-0.1-0.3c-0.1-0.1-0.2-0.1-0.3-0.1s-0.2,0.1-0.3,0.1c-0.1,0.1-0.1,0.2-0.1,0.3
		L661.6,220.5L661.6,220.5z M659.9,221.1l-0.4-0.2l2.3-3.7l0.4,0.2L659.9,221.1z"/>
	<g>
		<path class="st3" d="M656.4,305.7h1.3c6.7,0,12.2,5.5,12.2,12.2v1.3c0,6.7-5.5,12.2-12.2,12.2h-1.3c-6.7,0-12.2-5.5-12.2-12.2
			v-1.3C644.2,311.2,649.7,305.7,656.4,305.7z"/>
	</g>
	<path class="st0" d="M653.3,319c-0.2,0.2-0.6,0.3-0.8,0.3c-0.4,0-0.8-0.2-1-0.4c-0.3-0.3-0.4-0.7-0.4-1.2c0-0.3,0.1-0.6,0.2-0.8
		c0.1-0.3,0.3-0.4,0.6-0.6c0.2-0.2,0.5-0.2,0.8-0.2s0.6,0.1,0.8,0.2c0.2,0.2,0.4,0.4,0.6,0.7c0.1,0.3,0.2,0.6,0.2,1v0.3
		c0,0.8-0.2,1.4-0.6,1.9c-0.4,0.4-0.9,0.7-1.7,0.7h-0.2v-0.8h0.2C652.8,320.1,653.3,319.7,653.3,319z M652.7,318.6
		c0.2,0,0.3-0.1,0.4-0.1c0.1-0.1,0.2-0.2,0.3-0.3v-0.4c0-0.3-0.1-0.6-0.2-0.7s-0.3-0.3-0.5-0.3s-0.3,0.1-0.4,0.3
		c-0.1,0.2-0.2,0.4-0.2,0.7s0.1,0.4,0.2,0.6C652.3,318.6,652.5,318.6,652.7,318.6z M655.1,318.6l0.3-2.4h2.6v0.8h-1.9l-0.1,1
		c0.2-0.1,0.4-0.2,0.7-0.2c0.4,0,0.8,0.2,1,0.4c0.3,0.3,0.4,0.7,0.4,1.2c0,0.3-0.1,0.6-0.2,0.8c-0.1,0.2-0.3,0.4-0.6,0.6
		c-0.2,0.1-0.5,0.2-0.8,0.2s-0.6-0.1-0.8-0.2s-0.4-0.3-0.6-0.5c-0.2-0.2-0.2-0.4-0.2-0.7h0.9c0,0.2,0.1,0.3,0.2,0.4
		c0.1,0.1,0.3,0.2,0.4,0.2c0.2,0,0.4-0.1,0.5-0.2c0.1-0.2,0.2-0.4,0.2-0.7s-0.1-0.5-0.2-0.6c-0.1-0.2-0.3-0.2-0.6-0.2
		s-0.4,0.1-0.6,0.2l-0.1,0.1L655.1,318.6z M658.7,317.1c0-0.3,0.1-0.5,0.3-0.7s0.4-0.3,0.7-0.3s0.6,0.1,0.7,0.3
		c0.2,0.2,0.3,0.4,0.3,0.7v0.2c0,0.3-0.1,0.6-0.3,0.7c-0.2,0.2-0.4,0.3-0.7,0.3s-0.6-0.1-0.7-0.3c-0.2-0.2-0.3-0.4-0.3-0.7V317.1z
		 M659.3,317.4c0,0.1,0.1,0.2,0.1,0.3c0.1,0.1,0.2,0.1,0.3,0.1s0.2-0.1,0.3-0.1c0.1-0.1,0.1-0.2,0.1-0.3v-0.2c0-0.1-0.1-0.2-0.1-0.3
		c-0.1-0.1-0.2-0.1-0.3-0.1s-0.2,0.1-0.3,0.1s-0.1,0.2-0.1,0.3V317.4z M661,319.7c0-0.3,0.1-0.6,0.3-0.7c0.2-0.2,0.4-0.3,0.7-0.3
		s0.6,0.1,0.7,0.3c0.2,0.2,0.3,0.4,0.3,0.7v0.2c0,0.3-0.1,0.5-0.3,0.7s-0.4,0.3-0.7,0.3s-0.6-0.1-0.8-0.3c-0.2-0.2-0.3-0.4-0.3-0.7
		L661,319.7L661,319.7z M661.6,320c0,0.1,0.1,0.2,0.1,0.3c0.1,0.1,0.2,0.1,0.3,0.1c0.3,0,0.4-0.2,0.4-0.4v-0.2
		c0-0.1-0.1-0.2-0.1-0.3c-0.1-0.1-0.2-0.1-0.3-0.1s-0.2,0.1-0.3,0.1c-0.1,0.1-0.1,0.2-0.1,0.3L661.6,320L661.6,320z M659.9,320.5
		l-0.4-0.2l2.3-3.7l0.4,0.2L659.9,320.5z"/>
	<path class="st15" d="M607.9,82.1c-0.7,0.7-1.7,1-2.6,1c-1.4,0-2.4-0.5-3.1-1.4c-0.9-0.9-1.2-2.1-1.2-3.6c0-1,0.2-1.9,0.7-2.6
		c0.3-0.9,1-1.4,1.7-1.9s1.5-0.7,2.6-0.7c1,0,1.9,0.2,2.6,0.7c0.7,0.5,1.4,1.2,1.7,2.1s0.7,1.9,0.7,3.1v1c0,2.4-0.7,4.3-1.9,5.8
		c-1.2,1.4-2.9,2.1-5.2,2.2h-0.7v-2.4h0.7C606.4,85.5,607.8,84.3,607.9,82.1z M606.1,80.9c0.5,0,0.9-0.2,1.2-0.3s0.5-0.5,0.9-0.9
		v-1.2c0-1-0.2-1.7-0.5-2.2s-0.9-0.9-1.5-0.9c-0.5,0-1,0.3-1.4,0.9c-0.3,0.5-0.5,1.2-0.5,2.1s0.2,1.4,0.5,1.9
		C604.9,80.7,605.4,80.9,606.1,80.9z M613.4,80.7l0.9-7.4h8.2v2.4h-5.8l-0.3,3.1c0.7-0.3,1.4-0.5,2.2-0.5c1.4,0,2.4,0.5,3.3,1.4
		c0.9,0.9,1.2,2.1,1.2,3.6c0,0.9-0.2,1.7-0.7,2.6c-0.3,0.7-1,1.4-1.7,1.7c-0.7,0.3-1.5,0.7-2.6,0.7c-0.9,0-1.7-0.2-2.4-0.5
		s-1.4-0.9-1.7-1.5c-0.5-0.7-0.7-1.4-0.7-2.2h2.9c0,0.7,0.3,1,0.7,1.4c0.3,0.3,0.9,0.5,1.4,0.5c0.7,0,1.2-0.2,1.5-0.7
		s0.5-1.2,0.5-2.1s-0.2-1.5-0.7-1.9c-0.3-0.5-1-0.7-1.7-0.7s-1.2,0.2-1.7,0.5l-0.3,0.3L613.4,80.7z M624.8,76.1
		c0-0.9,0.3-1.5,0.9-2.2c0.5-0.5,1.4-0.9,2.2-0.9c1,0,1.7,0.3,2.2,0.9s0.9,1.4,0.9,2.2v0.7c0,0.9-0.3,1.7-0.9,2.2
		c-0.5,0.5-1.4,0.9-2.2,0.9c-1,0-1.7-0.3-2.2-0.9c-0.5-0.5-0.9-1.4-0.9-2.2V76.1z M626.7,76.9c0,0.3,0.2,0.7,0.3,1
		c0.2,0.2,0.5,0.3,0.9,0.3c0.3,0,0.7-0.2,0.9-0.3c0.2-0.2,0.3-0.5,0.3-1v-0.7c0-0.3-0.2-0.7-0.3-1c-0.2-0.2-0.5-0.3-0.9-0.3
		c-0.3,0-0.7,0.2-0.9,0.3c-0.2,0.2-0.3,0.5-0.3,1V76.9z M631.8,84.3c0-0.9,0.3-1.7,0.9-2.2c0.5-0.5,1.4-0.9,2.2-0.9
		c1,0,1.7,0.3,2.2,0.9c0.5,0.5,0.9,1.4,0.9,2.2V85c0,0.9-0.3,1.5-0.9,2.2c-0.5,0.5-1.4,0.9-2.2,0.9c-1,0-1.7-0.3-2.4-0.9
		c-0.5-0.5-0.9-1.4-0.9-2.2v-0.7H631.8z M633.7,85.2c0,0.3,0.2,0.7,0.3,1c0.2,0.3,0.5,0.3,0.9,0.3c0.9,0,1.2-0.5,1.2-1.4v-0.7
		c0-0.3-0.2-0.7-0.3-1c-0.2-0.2-0.5-0.3-0.9-0.3s-0.7,0.2-0.9,0.3c-0.2,0.2-0.3,0.5-0.3,1V85.2z M628.6,86.9l-1.4-0.7l7.2-11.5
		l1.4,0.7L628.6,86.9z"/>
	<path class="st26" d="M712.2,315.6v6h-1v-4.5l-1.7,4.5h-0.9l-1.7-4.5v4.5h-1v-6h1.2l2,4.8l1.9-4.8H712.2z M714.7,316.3v1.8h2.2v0.8
		h-2.2v1.9h2.5v0.8h-3.5v-6.1h3.5v0.8L714.7,316.3L714.7,316.3z M720.4,318.5l2.7,3.1h-1.2l-2.4-2.8v2.8h-1v-6.1h1v2.8l2.4-2.8h1.2
		L720.4,318.5z M728.1,315.5v0.8h-1.7v5.3h-1v-5.3h-1.7v-0.8H728.1z"/>
	<path class="st21" d="M645.7,351.9v1.7h2.3v1h-2.3v1.7h2.6v1h-3.8v-6.4h3.8v1L645.7,351.9L645.7,351.9z M655.6,352.2
		c0.6,0,1.1,0.2,1.5,0.6s0.5,0.9,0.5,1.6v2.9h-1.3v-2.8c0-0.4-0.1-0.7-0.3-0.9c-0.2-0.2-0.5-0.3-0.8-0.3c-0.4,0-0.6,0.1-0.9,0.3
		c-0.2,0.2-0.3,0.6-0.3,1v2.7h-1.3v-2.8c0-0.4-0.1-0.7-0.3-0.9c-0.2-0.2-0.5-0.3-0.8-0.3c-0.4,0-0.6,0.1-0.9,0.3
		c-0.2,0.2-0.3,0.6-0.3,1v2.7h-1.3v-5h1.3v1c0.1-0.3,0.3-0.6,0.6-0.8c0.3-0.2,0.6-0.3,1-0.3s0.8,0.1,1.1,0.3
		c0.3,0.2,0.5,0.5,0.7,0.8c0.2-0.3,0.4-0.6,0.7-0.8C654.9,352.3,655.2,352.2,655.6,352.2z M660,350.6v6.8h-1.3v-6.8H660z M666,354.6
		c0,0.1,0,0.3,0,0.4h-3.7c0,0.5,0.1,0.8,0.4,1c0.2,0.2,0.5,0.3,0.8,0.3s0.5-0.1,0.7-0.2s0.3-0.3,0.4-0.6h1.4
		c-0.1,0.4-0.2,0.7-0.4,0.9s-0.5,0.5-0.8,0.7s-0.7,0.2-1.1,0.2c-0.5,0-0.9-0.1-1.3-0.3c-0.4-0.2-0.7-0.5-0.9-0.9s-0.3-0.8-0.3-1.4
		c0-0.5,0.1-1,0.3-1.4s0.5-0.7,0.9-0.9s0.8-0.3,1.3-0.3s0.9,0.1,1.3,0.3c0.4,0.2,0.7,0.5,0.9,0.9C665.9,353.8,666,354.2,666,354.6z
		 M664.7,354.5c0-0.4-0.1-0.7-0.3-0.9c-0.2-0.2-0.5-0.3-0.9-0.3c-0.3,0-0.6,0.1-0.9,0.3c-0.2,0.2-0.4,0.5-0.4,0.9H664.7z
		 M669.9,352.2c0.6,0,1.1,0.2,1.4,0.6c0.3,0.4,0.5,0.9,0.5,1.6v2.9h-1.3v-2.8c0-0.4-0.1-0.7-0.3-0.9c-0.2-0.2-0.5-0.3-0.8-0.3
		c-0.4,0-0.7,0.1-0.9,0.4c-0.2,0.2-0.3,0.6-0.3,1v2.7h-1.3v-5.1h1.3v1c0.1-0.3,0.4-0.6,0.7-0.8C669.1,352.3,669.5,352.2,669.9,352.2
		z M678.5,354c0.4,0.1,0.7,0.3,0.9,0.6c0.2,0.3,0.4,0.6,0.4,1c0,0.5-0.2,1-0.5,1.3c-0.4,0.3-0.9,0.5-1.6,0.5h-2.8V351h2.7
		c0.7,0,1.2,0.1,1.5,0.4c0.4,0.3,0.5,0.7,0.5,1.2c0,0.4-0.1,0.7-0.3,1C679.1,353.8,678.9,354,678.5,354z M676.2,353.6h1.2
		c0.3,0,0.6-0.1,0.7-0.2c0.2-0.1,0.3-0.4,0.3-0.6s-0.1-0.5-0.2-0.6s-0.4-0.2-0.8-0.2h-1.1v1.6H676.2z M677.4,356.3
		c0.3,0,0.6-0.1,0.8-0.2c0.2-0.2,0.3-0.4,0.3-0.7c0-0.3-0.1-0.5-0.3-0.7s-0.4-0.2-0.8-0.2h-1.2v1.8L677.4,356.3L677.4,356.3z
		 M685.5,354.6c0,0.1,0,0.3,0,0.4h-3.7c0,0.5,0.1,0.8,0.4,1c0.2,0.2,0.5,0.3,0.8,0.3s0.5-0.1,0.7-0.2s0.3-0.3,0.4-0.6h1.4
		c-0.1,0.4-0.2,0.7-0.4,0.9s-0.5,0.5-0.8,0.7s-0.7,0.2-1.1,0.2c-0.5,0-0.9-0.1-1.3-0.3c-0.4-0.2-0.7-0.5-0.9-0.9s-0.3-0.8-0.3-1.4
		c0-0.5,0.1-1,0.3-1.4s0.5-0.7,0.9-0.9c0.4-0.2,0.8-0.3,1.3-0.3s0.9,0.1,1.3,0.3c0.4,0.2,0.7,0.5,0.9,0.9
		C685.4,353.8,685.5,354.2,685.5,354.6z M684.2,354.5c0-0.4-0.1-0.7-0.3-0.9c-0.2-0.2-0.5-0.3-0.9-0.3c-0.3,0-0.6,0.1-0.9,0.3
		s-0.4,0.5-0.4,0.9H684.2z M688.4,352.2c0.4,0,0.8,0.1,1.1,0.3c0.3,0.2,0.5,0.5,0.6,0.8v-1h1.3v5.1h-1.3v-1.1
		c-0.1,0.3-0.3,0.6-0.6,0.8c-0.3,0.2-0.7,0.3-1.1,0.3c-0.4,0-0.8-0.1-1.2-0.3c-0.3-0.2-0.6-0.5-0.8-0.9s-0.3-0.9-0.3-1.4
		s0.1-1,0.3-1.4s0.5-0.7,0.8-0.9C687.6,352.3,687.9,352.2,688.4,352.2z M688.8,353.4c-0.4,0-0.7,0.1-1,0.4c-0.2,0.3-0.4,0.6-0.4,1.1
		s0.1,0.8,0.4,1.1c0.2,0.3,0.6,0.4,1,0.4s0.7-0.1,1-0.4s0.4-0.6,0.4-1.1s-0.1-0.8-0.4-1.1C689.5,353.5,689.2,353.4,688.8,353.4z
		 M694.8,356.1l1.3-3.8h1.4l-1.9,5.1H694l-1.9-5.1h1.4L694.8,356.1z M702.9,354.6c0,0.1,0,0.3,0,0.4h-3.7c0,0.5,0.1,0.8,0.4,1
		c0.2,0.2,0.5,0.3,0.8,0.3s0.5-0.1,0.7-0.2s0.3-0.3,0.4-0.6h1.4c-0.1,0.4-0.2,0.7-0.4,0.9s-0.5,0.5-0.8,0.7s-0.7,0.2-1.1,0.2
		c-0.5,0-0.9-0.1-1.3-0.3c-0.4-0.2-0.7-0.5-0.9-0.9s-0.3-0.8-0.3-1.4c0-0.5,0.1-1,0.3-1.4s0.5-0.7,0.9-0.9s0.8-0.3,1.3-0.3
		s0.9,0.1,1.3,0.3c0.4,0.2,0.7,0.5,0.9,0.9C702.8,353.8,702.9,354.2,702.9,354.6z M701.6,354.5c0-0.4-0.1-0.7-0.3-0.9
		c-0.2-0.2-0.5-0.3-0.9-0.3c-0.3,0-0.6,0.1-0.9,0.3s-0.4,0.5-0.4,0.9H701.6z M705.1,353.3c0.2-0.3,0.4-0.6,0.7-0.8
		c0.3-0.2,0.7-0.3,1-0.3v1.4h-0.4c-0.9,0-1.4,0.4-1.4,1.3v2.4h-1.3v-5h1.3v1H705.1z"/>
	<path class="st12" d="M677,404.3v41.3c0,1.1-0.9,1.9-1.9,1.9l0,0c-1.1,0-1.9-0.9-1.9-1.9v-41.3c0-1.1,0.9-1.9,1.9-1.9l0,0
		C676.1,402.4,677,403.3,677,404.3z"/>
	<path class="st8" d="M664.4,408.1v37.6c0,1.1-0.9,1.9-1.9,1.9l0,0c-1.1,0-1.9-0.9-1.9-1.9v-37.6c0-1.1,0.9-1.9,1.9-1.9l0,0
		C663.5,406.1,664.4,407,664.4,408.1z"/>
	<path class="st12" d="M651.3,400.3v45.3c0,1.1-0.9,1.9-1.9,1.9l0,0c-1.1,0-1.9-0.9-1.9-1.9v-45.3c0-1.1,0.9-1.9,1.9-1.9l0,0
		C650.5,398.4,651.3,399.3,651.3,400.3z"/>
	<path class="st3" d="M688.7,392.2v53.4c0,1.1-0.9,1.9-1.9,1.9l0,0c-1.1,0-1.9-0.9-1.9-1.9v-53.4c0-1.1,0.9-1.9,1.9-1.9l0,0
		C687.8,390.3,688.7,391.1,688.7,392.2z"/>
	<path class="st8" d="M700.4,401.4v44.3c0,1.1-0.9,1.9-1.9,1.9l0,0c-1.1,0-1.9-0.9-1.9-1.9v-44.3c0-1.1,0.9-1.9,1.9-1.9l0,0
		C699.6,399.4,700.4,400.3,700.4,401.4z"/>
	<path class="st3" d="M713.9,386v59.6c0,1.1-0.9,1.9-1.9,1.9l0,0c-1.1,0-1.9-0.9-1.9-1.9V386c0-1.1,0.9-1.9,1.9-1.9l0,0
		C713.1,384.1,713.9,384.9,713.9,386z"/>
	<path class="st8" d="M727.3,397.9v47.7c0,1.1-0.9,1.9-1.9,1.9l0,0c-1.1,0-1.9-0.9-1.9-1.9v-47.7c0-1.1,0.9-1.9,1.9-1.9l0,0
		C726.4,396,727.3,396.9,727.3,397.9z"/>
	<path class="st10" d="M602.1,101.3v2.9h-1v-7.4h2.7c0.8,0,1.4,0.2,1.9,0.6c0.4,0.4,0.7,1,0.7,1.6c0,0.7-0.2,1.3-0.7,1.6
		c-0.4,0.4-1.1,0.6-1.9,0.6L602.1,101.3L602.1,101.3z M602.1,100.5h1.8c0.5,0,0.9-0.1,1.2-0.4s0.4-0.6,0.4-1s-0.1-0.8-0.4-1
		c-0.3-0.3-0.7-0.4-1.1-0.4h-1.8L602.1,100.5L602.1,100.5z M613.1,101.8c-0.1,0.8-0.4,1.4-0.9,1.8s-1.1,0.7-1.9,0.7
		c-0.9,0-1.6-0.3-2.1-1c-0.5-0.6-0.8-1.5-0.8-2.5V100c0-0.7,0.1-1.3,0.4-1.8c0.2-0.5,0.6-0.9,1-1.2c0.4-0.3,1-0.4,1.6-0.4
		c0.8,0,1.4,0.2,1.9,0.7c0.4,0.4,0.7,1,0.8,1.8h-1c-0.1-0.6-0.3-1-0.5-1.3c-0.3-0.3-0.7-0.4-1.2-0.4c-0.6,0-1.1,0.2-1.5,0.7
		c-0.4,0.4-0.5,1.1-0.5,1.9v0.7c0,0.8,0.1,1.4,0.5,1.9c0.4,0.4,0.8,0.7,1.4,0.7c0.5,0,1-0.1,1.3-0.4c0.3-0.2,0.5-0.7,0.6-1.3
		L613.1,101.8L613.1,101.8z M621.5,101.5c0,0.8-0.2,1.5-0.6,2s-0.9,0.7-1.6,0.7s-1.2-0.2-1.6-0.7v2.7h-1v-7.6h0.9l0.1,0.6
		c0.4-0.4,0.9-0.7,1.6-0.7c0.7,0,1.2,0.2,1.6,0.7c0.4,0.5,0.6,1.2,0.6,2.1V101.5z M620.5,101.4c0-0.6-0.1-1.1-0.4-1.5
		c-0.3-0.4-0.6-0.5-1.1-0.5c-0.6,0-1,0.2-1.3,0.7v2.6c0.3,0.5,0.7,0.7,1.3,0.7c0.4,0,0.8-0.1,1-0.5
		C620.5,102.6,620.5,102.1,620.5,101.4z M625,104.3c-0.7,0-1.3-0.2-1.8-0.7c-0.4-0.5-0.7-1.1-0.7-1.9v-0.1c0-0.5,0.1-1,0.3-1.5
		c0.2-0.4,0.5-0.7,0.9-1c0.4-0.2,0.8-0.4,1.2-0.4c0.7,0,1.3,0.2,1.6,0.7c0.4,0.4,0.6,1.1,0.6,2v0.4h-3.7c0,0.5,0.1,1,0.4,1.3
		c0.3,0.3,0.7,0.5,1.2,0.5c0.3,0,0.6-0.1,0.8-0.2s0.4-0.3,0.6-0.5l0.6,0.4C626.6,104,625.9,104.3,625,104.3z M624.8,99.4
		c-0.4,0-0.7,0.1-1,0.4c-0.2,0.3-0.4,0.7-0.4,1.2h2.7v-0.1c0-0.4-0.1-0.8-0.4-1.1C625.6,99.5,625.3,99.4,624.8,99.4z M630.8,99.5
		c-0.1,0-0.3,0-0.4,0c-0.6,0-1,0.3-1.3,0.8v3.9h-1v-5.5h0.9v0.7c0.3-0.5,0.7-0.7,1.3-0.7c0.1,0,0.3,0,0.4,0.1L630.8,99.5L630.8,99.5
		z M632.3,104.2v-4.7h-0.9v-0.7h0.9v-0.6c0-0.6,0.1-1,0.4-1.3c0.3-0.3,0.7-0.5,1.3-0.5c0.2,0,0.4,0,0.7,0.1l-0.1,0.7
		c-0.1,0-0.3-0.1-0.5-0.1c-0.3,0-0.5,0.1-0.7,0.3c-0.1,0.1-0.2,0.4-0.2,0.7v0.6h1.2v0.7h-1.2v4.7L632.3,104.2L632.3,104.2z
		 M635.1,101.4c0-0.5,0.1-1,0.3-1.5c0.2-0.4,0.5-0.7,0.9-1c0.4-0.2,0.8-0.4,1.3-0.4c0.7,0,1.3,0.2,1.8,0.7c0.4,0.5,0.7,1.2,0.7,2.1
		v0.1c0,0.5-0.1,1-0.3,1.4s-0.5,0.7-0.9,1s-0.8,0.4-1.3,0.4c-0.7,0-1.3-0.2-1.8-0.7C635.4,103,635.1,102.3,635.1,101.4L635.1,101.4z
		 M636.1,101.5c0,0.6,0.1,1.1,0.4,1.5c0.3,0.4,0.7,0.5,1.1,0.5c0.4,0,0.9-0.2,1.1-0.6c0.3-0.4,0.4-0.9,0.4-1.6
		c0-0.6-0.1-1.1-0.4-1.5c-0.3-0.4-0.7-0.6-1.1-0.6c-0.4,0-0.8,0.1-1.1,0.5C636.3,100.3,636.1,100.9,636.1,101.5z M644,99.5
		c-0.1,0-0.3,0-0.4,0c-0.6,0-1,0.3-1.3,0.8v3.9h-1v-5.5h0.9v0.7c0.3-0.5,0.7-0.7,1.3-0.7c0.1,0,0.3,0,0.4,0.1L644,99.5L644,99.5z
		 M645.8,98.7v0.6c0.4-0.4,1-0.7,1.6-0.7c0.7,0,1.3,0.3,1.6,0.9c0.1-0.3,0.4-0.4,0.7-0.7c0.3-0.1,0.7-0.2,1-0.2
		c1.2,0,1.8,0.7,1.9,1.9v3.7h-1v-3.6c0-0.4-0.1-0.7-0.3-0.9c-0.1-0.2-0.4-0.3-0.9-0.3c-0.4,0-0.7,0.1-0.9,0.3
		c-0.2,0.2-0.4,0.5-0.4,0.8v3.6h-1v-3.6c0-0.8-0.4-1.2-1.2-1.2c-0.6,0-1,0.3-1.3,0.8v4h-1v-5.5L645.8,98.7L645.8,98.7z M657.3,104.2
		c-0.1-0.1-0.1-0.3-0.1-0.6c-0.4,0.4-1,0.7-1.6,0.7c-0.5,0-1-0.1-1.3-0.4c-0.4-0.3-0.5-0.7-0.5-1.2c0-0.6,0.2-1,0.7-1.3
		c0.4-0.3,1-0.4,1.9-0.4h0.9v-0.4c0-0.3-0.1-0.6-0.3-0.8c-0.2-0.2-0.5-0.3-0.9-0.3s-0.6,0.1-0.8,0.2s-0.4,0.4-0.4,0.6h-1
		c0-0.3,0.1-0.5,0.3-0.8c0.2-0.2,0.4-0.4,0.8-0.6c0.4-0.1,0.7-0.2,1.1-0.2c0.7,0,1.1,0.1,1.5,0.4s0.5,0.7,0.6,1.3v2.5
		c0,0.5,0.1,0.9,0.2,1.2V104h-1v0.2H657.3z M655.8,103.5c0.3,0,0.6-0.1,0.8-0.2c0.3-0.1,0.4-0.4,0.6-0.6v-1.1h-0.7
		c-1.1,0-1.7,0.4-1.7,1c0,0.3,0.1,0.5,0.3,0.7C655.3,103.4,655.5,103.5,655.8,103.5z M660.5,98.7v0.7c0.4-0.5,1-0.8,1.6-0.8
		c1.2,0,1.8,0.7,1.8,1.9v3.6h-1v-3.6c0-0.4-0.1-0.7-0.3-0.9c-0.1-0.2-0.4-0.3-0.8-0.3c-0.3,0-0.6,0.1-0.8,0.2s-0.4,0.4-0.5,0.7v3.9
		h-1v-5.5L660.5,98.7L660.5,98.7z M667.6,103.5c0.4,0,0.6-0.1,0.9-0.3c0.2-0.2,0.4-0.4,0.4-0.7h0.9c0,0.3-0.1,0.6-0.3,0.9
		s-0.4,0.5-0.8,0.7c-0.3,0.1-0.7,0.2-1,0.2c-0.7,0-1.3-0.2-1.8-0.7c-0.4-0.5-0.7-1.2-0.7-2.1v-0.1c0-0.5,0.1-1,0.3-1.4
		s0.4-0.7,0.8-1s0.8-0.4,1.3-0.4c0.6,0,1.1,0.1,1.6,0.5c0.4,0.4,0.6,0.8,0.7,1.4H669c0-0.4-0.1-0.7-0.4-0.9s-0.5-0.4-0.9-0.4
		s-0.8,0.1-1.1,0.5s-0.4,0.8-0.4,1.5v0.1c0,0.7,0.1,1.1,0.4,1.5C666.8,103.2,667.1,103.5,667.6,103.5z M673.1,104.3
		c-0.7,0-1.3-0.2-1.8-0.7c-0.4-0.5-0.7-1.1-0.7-1.9v-0.1c0-0.5,0.1-1,0.3-1.5c0.2-0.4,0.5-0.7,0.9-1c0.4-0.2,0.8-0.4,1.2-0.4
		c0.7,0,1.3,0.2,1.6,0.7c0.4,0.4,0.6,1.1,0.6,2v0.4h-3.7c0,0.5,0.1,1,0.4,1.3c0.3,0.3,0.7,0.5,1.2,0.5c0.3,0,0.6-0.1,0.8-0.2
		s0.4-0.3,0.6-0.5l0.6,0.4C674.7,104,674,104.3,673.1,104.3z M672.9,99.4c-0.4,0-0.7,0.1-1,0.4c-0.2,0.3-0.4,0.7-0.4,1.2h2.7v-0.1
		c0-0.4-0.1-0.8-0.4-1.1C673.7,99.5,673.4,99.4,672.9,99.4z"/>
	<path class="st0" d="M573.1,94.4H564h-8.1c-1.4,0-2.6-1.1-2.6-2.6v-9c0-1.4,1.1-2.6,2.6-2.6h17.2c1.4,0,2.6,1.1,2.6,2.6v9
		C575.7,93.3,574.5,94.4,573.1,94.4z"/>
	<path class="st0" d="M568.2,98.7h-7.3c-0.4,0-0.7-0.3-0.7-0.7l0,0c0-0.4,0.3-0.7,0.7-0.7h7.3c0.4,0,0.7,0.3,0.7,0.7l0,0
		C568.9,98.4,568.5,98.7,568.2,98.7z"/>
	<rect x="563.9" y="94.1" class="st0" width="1.2" height="3.5"/>
	<path class="st3" d="M572.8,92.9h-16.6c-0.8,0-1.4-0.6-1.4-1.4v-8.3c0-0.8,0.6-1.4,1.4-1.4h16.6c0.8,0,1.4,0.6,1.4,1.4v8.3
		C574.1,92.3,573.5,92.9,572.8,92.9z"/>
</g>
</svg>
