<svg version="1.0" xmlns="http://www.w3.org/2000/svg"  width="188.000000pt" height="48.000000pt" viewBox="0 0 188.000000 48.000000"  preserveAspectRatio="xMidYMid meet">  <g transform="translate(0.000000,48.000000) scale(0.100000,-0.100000)" fill="#000000" stroke="none"> <path d="M1549 363 c-13 -16 -12 -17 4 -4 16 13 21 21 13 21 -2 0 -10 -8 -17 -17z"/> <path d="M910 230 c0 -109 2 -130 15 -130 13 0 15 21 15 130 0 109 -2 130 -15 130 -13 0 -15 -21 -15 -130z"/> <path d="M1330 347 c0 -9 -12 -11 -40 -9 -39 4 -40 3 -40 -27 0 -32 16 -42 26 -16 5 11 23 15 75 15 55 0 69 -3 69 -15 0 -8 7 -15 15 -15 10 0 15 10 15 31 0 30 -1 30 -42 28 -26 -2 -43 1 -46 9 -5 16 -32 16 -32 -1z"/> <path d="M1040 329 c0 -18 5 -20 38 -17 36 3 38 0 34 -32 -1 -5 -20 -10 -42 -10 -28 0 -40 -4 -40 -14 0 -10 14 -16 43 -18 l42 -3 -42 -42 c-32 -32 -39 -44 -29 -52 9 -8 21 -2 44 20 18 17 32 35 32 40 0 18 17 8 28 -15 16 -35 61 -64 72 -46 5 8 -6 26 -34 54 l-41 41 43 3 c28 2 42 8 42 18 0 10 -13 14 -46 14 -41 0 -45 2 -42 22 3 20 8 23 41 20 32 -3 37 -1 37 17 0 20 -6 21 -90 21 -84 0 -90 -1 -90 -21z"/> <path d="M76 324 c-24 -23 -19 -50 12 -73 47 -36 53 -42 46 -53 -4 -6 -21 -8 -41 -5 -28 5 -34 3 -31 -11 2 -12 15 -18 41 -20 47 -4 67 11 67 49 0 23 -9 34 -40 54 -22 14 -40 28 -40 30 0 12 46 22 63 13 13 -7 17 -5 17 12 0 17 -6 20 -39 20 -23 0 -46 -7 -55 -16z"/> <path d="M195 250 c0 -79 2 -90 18 -90 14 0 17 9 17 48 l1 47 25 -47 c19 -38 30 -48 49 -48 l25 0 -34 47 -34 47 29 43 c28 40 28 43 10 43 -13 0 -29 -15 -45 -42 l-26 -43 0 43 c0 33 -4 42 -17 42 -16 0 -18 -11 -18 -90z"/> <path d="M356 285 c13 -31 24 -71 24 -90 0 -28 4 -35 20 -35 16 0 20 7 20 35 0 19 11 59 24 90 23 50 23 55 7 55 -18 0 -41 -37 -41 -65 0 -8 -4 -15 -10 -15 -5 0 -10 7 -10 15 0 28 -23 65 -41 65 -16 0 -16 -5 7 -55z"/> <path d="M578 281 c-21 -33 -38 -64 -38 -70 0 -6 17 -11 39 -11 34 0 38 -3 34 -20 -4 -15 0 -20 15 -20 15 0 19 5 15 20 -4 14 0 20 11 20 9 0 16 7 16 15 0 8 -7 15 -16 15 -13 0 -15 10 -12 55 4 74 -15 73 -64 -4z m38 -23 c-2 -23 -9 -32 -25 -35 -11 -1 -21 0 -21 2 0 7 42 65 47 65 1 0 1 -14 -1 -32z"/> <path d="M690 250 c0 -83 2 -90 20 -90 17 0 19 5 14 40 -7 51 5 51 34 0 14 -25 30 -40 42 -40 26 0 25 3 -10 51 -31 44 -31 45 8 97 l24 32 -25 0 c-20 0 -29 -9 -44 -40 -23 -51 -37 -51 -29 0 6 36 4 40 -14 40 -19 0 -20 -6 -20 -90z"/> <path d="M1558 279 c-21 -33 -38 -64 -38 -69 0 -6 19 -10 41 -10 36 0 41 -2 36 -20 -4 -15 0 -20 14 -20 12 0 19 7 19 20 0 11 5 20 10 20 6 0 10 7 10 15 0 8 -6 15 -12 15 -9 0 -12 16 -10 55 3 48 2 55 -15 55 -11 -1 -32 -24 -55 -61z m40 -36 c-2 -9 -14 -18 -27 -20 -22 -3 -23 -2 -9 19 8 13 19 30 23 38 8 13 10 13 13 -2 2 -10 2 -25 0 -35z"/> <path d="M1670 250 c0 -85 1 -90 21 -90 19 0 21 5 17 40 -2 22 -1 40 2 40 3 0 15 -18 28 -40 17 -30 29 -40 47 -40 l25 0 -35 46 c-19 25 -32 51 -28 57 3 7 18 27 31 45 l24 32 -24 0 c-19 0 -29 -9 -43 -40 -10 -22 -21 -40 -26 -40 -4 0 -5 18 -2 40 5 36 3 40 -16 40 -20 0 -21 -5 -21 -90z"/> <path d="M1283 276 c-35 -22 -43 -46 -17 -46 8 0 12 -4 9 -10 -4 -6 7 -10 24 -10 24 0 31 -4 31 -20 0 -17 -7 -20 -43 -20 -32 0 -44 -4 -44 -15 0 -12 18 -15 104 -15 85 0 103 3 103 15 0 11 -12 15 -45 15 -38 0 -45 3 -45 20 0 16 7 20 30 20 20 0 30 5 30 15 0 12 -15 15 -72 15 l-73 1 33 18 c26 13 31 20 20 28 -9 8 -22 5 -45 -11z"/> <path d="M1365 289 c-4 -6 -5 -11 -4 -13 26 -19 79 -43 83 -39 13 13 4 23 -33 43 -26 13 -42 16 -46 9z"/> </g> </svg> 