<?xml version="1.0" encoding="utf-8"?>
<!-- Generator: Adobe Illustrator 21.0.0, SVG Export Plug-In . SVG Version: 6.00 Build 0)  -->
<svg version="1.1" id="Layer_1" xmlns="http://www.w3.org/2000/svg" xmlns:xlink="http://www.w3.org/1999/xlink" x="0px" y="0px"
	 viewBox="0 0 70.3 21.1" style="enable-background:new 0 0 70.3 21.1;" xml:space="preserve">
<style type="text/css">
	.st0{fill:#FFFFFF;}
	.st1{fill:#3080E3;}
	.st2{fill:#FCFBF9;}
</style>
<g>
	<g>
		<path class="st0" d="M37.2,11.7c-0.4-0.5-1-0.8-1.7-1c0.6-0.2,1.1-0.5,1.4-1c0.4-0.5,0.6-1.1,0.6-1.8c0-1-0.4-1.8-1.2-2.4
			s-1.8-0.9-3.1-0.9h-5.8v12.6h6c1.4,0,2.5-0.3,3.2-0.9c0.8-0.6,1.2-1.5,1.2-2.5C37.9,12.9,37.6,12.3,37.2,11.7z M30.2,6.7h2.6
			c0.7,0,1.2,0.1,1.6,0.4c0.3,0.2,0.5,0.6,0.5,1.1s-0.2,0.9-0.5,1.1c-0.3,0.2-0.9,0.4-1.6,0.4h-2.6C30.2,9.7,30.2,6.7,30.2,6.7z
			 M34.7,14.7c-0.3,0.3-0.9,0.4-1.6,0.4h-3v-3.2h3c0.7,0,1.3,0.1,1.6,0.4c0.3,0.3,0.5,0.7,0.5,1.2C35.3,14.1,35.1,14.5,34.7,14.7z"
			/>
		<path class="st0" d="M39.6,17.2v-13h2.7v13.1h-2.7V17.2z"/>
		<path class="st0" d="M44.4,4h2.9v2.5h-2.9V4z M44.5,17.2v-9h2.7v9H44.5z"/>
		<path class="st0" d="M58.1,11.8v5.4h-2.7v-5.3c0-0.6-0.1-1.1-0.4-1.4c-0.2-0.3-0.6-0.4-1.1-0.4c-0.6,0-1.1,0.2-1.4,0.6
			c-0.3,0.4-0.5,0.9-0.5,1.5v5h-2.7v-6.4c0-0.4,0-0.8,0-1.3c0-0.4,0-0.9-0.1-1.3h2.5l0.2,1.5c0.3-0.5,0.7-0.9,1.1-1.2
			C53.5,8.2,54.2,8,54.9,8C57,8,58.1,9.2,58.1,11.8z"/>
		<polygon class="st0" points="69.7,17.2 66.4,17.2 62.9,13.2 62.9,17.2 60.2,17.2 60.2,4.2 62.9,4.2 62.9,12.1 66.2,8.2 69.5,8.2 
			65.6,12.5 		"/>
	</g>
	<g>
		<path class="st1" d="M0,2.8C0,1.3,1.3,0,2.8,0h15.5c1.5,0,2.8,1.3,2.8,2.8v15.5c0,1.5-1.3,2.8-2.8,2.8H2.8c-1.5,0-2.8-1.3-2.8-2.8
			V2.8z"/>
		<polygon class="st2" points="10.6,5.1 7.3,10.6 10.6,10.6 		"/>
		<polygon class="st2" points="10.6,16.2 13.8,10.6 10.6,10.6 		"/>
	</g>
</g>
</svg>
