<svg width="2250" height="48" viewBox="0 0 2250 48" fill="none" xmlns="http://www.w3.org/2000/svg">
<path d="M41.0308 41.9854C38.0512 41.8658 35.6134 41.0423 33.7073 39.5126C33.3435 39.2204 32.4767 38.3443 32.1859 37.9748C31.4129 36.993 30.8874 36.0375 30.5369 34.9774C29.4583 31.7141 30.0134 27.432 32.1246 22.7324C33.9323 18.7089 36.7216 14.7184 41.5879 9.19165C42.3047 8.3784 44.4394 6 44.4532 6C44.4583 6 44.342 6.20356 44.1955 6.45147C42.9302 8.59228 41.8476 11.114 41.2578 13.297C40.3103 16.8 40.4246 19.8061 41.5925 22.1371C42.3981 23.743 43.7792 25.134 45.3323 25.9029C48.0511 27.2485 52.0318 27.3598 56.893 26.2286C57.2277 26.1503 73.8123 21.7032 93.748 16.346C113.684 10.9882 129.997 6.60813 130 6.61174C130.006 6.61637 83.6837 26.6383 59.6374 37.0255C55.8292 38.67 54.8108 39.0854 53.0205 39.7203C48.444 41.3437 44.3445 42.1183 41.0308 41.9854Z" fill="black"/>
<path d="M248.011 22.2207H237.955L246.664 17.0413L244.937 13.9587L236.227 19.138L241.254 10.1677L238.262 8.38833L233.234 17.3564V7H229.777V17.3575L224.749 8.38833L221.756 10.1677L226.783 19.1357L218.076 13.9587L216.348 17.0413L225.056 22.2207H215V25.7805H225.055L216.348 30.9598L218.075 34.0425L226.784 28.8631L221.756 37.8335L224.748 39.6128L229.777 30.6436V41H233.234V30.4215L238.354 39.5561L241.16 37.8879L236.039 28.7509L244.934 34.0413L246.662 30.9587L237.955 25.7793H248.01V22.2207H248.011V22.2207ZM231.506 28.8393C230.889 28.8394 230.278 28.7143 229.708 28.4711C229.138 28.2279 228.62 27.8714 228.183 27.422C227.747 26.9726 227.401 26.439 227.165 25.8518C226.929 25.2645 226.807 24.6351 226.807 23.9994C226.807 23.3638 226.928 22.7343 227.164 22.147C227.4 21.5597 227.746 21.0261 228.183 20.5765C228.619 20.127 229.137 19.7704 229.707 19.5271C230.277 19.2838 230.887 19.1585 231.504 19.1584C232.75 19.1582 233.945 19.6681 234.827 20.5757C235.708 21.4834 236.203 22.7145 236.203 23.9983C236.203 25.2821 235.708 26.5133 234.827 27.4212C233.946 28.3291 232.752 28.8392 231.506 28.8393V28.8393Z" fill="#615DEC"/>
<path d="M256.92 36.4361V11.564H261.351V36.4361H256.92V36.4361ZM299.416 19.5336H303.647V21.5962C304.547 19.9472 306.647 19.053 308.445 19.053C310.678 19.053 312.477 20.0504 313.309 21.8694C314.607 19.8067 316.341 19.053 318.507 19.053C321.538 19.053 324.436 20.9423 324.436 25.4768V36.4361H320.139V26.405C320.139 24.5837 319.272 23.209 317.24 23.209C315.34 23.209 314.207 24.722 314.207 26.5432V36.4372H309.811V26.405C309.811 24.5837 308.911 23.209 306.912 23.209C304.979 23.209 303.846 24.688 303.846 26.5432V36.4372H299.416V19.5336V19.5336ZM271.364 36.9257C266.372 36.9257 262.758 33.1098 262.758 27.9848C262.758 22.9415 266.361 19.036 271.364 19.036C276.391 19.036 279.97 22.9778 279.97 27.9848C279.97 33.0735 276.354 36.9257 271.364 36.9257ZM271.364 23.1727C270.126 23.1745 268.939 23.6823 268.064 24.5847C267.189 25.487 266.696 26.7103 266.696 27.986C266.696 29.2617 267.189 30.4849 268.064 31.3873C268.939 32.2896 270.126 32.7974 271.364 32.7992C272.602 32.7971 273.789 32.2892 274.664 31.3869C275.539 30.4845 276.03 29.2615 276.031 27.986C276.03 26.7105 275.539 25.4874 274.664 24.5851C273.789 23.6827 272.602 23.1748 271.364 23.1727V23.1727ZM289.434 36.9257C284.442 36.9257 280.827 33.1098 280.827 27.9848C280.827 22.9415 284.431 19.036 289.434 19.036C294.461 19.036 298.04 22.9778 298.04 27.9848C298.04 33.0735 294.421 36.9257 289.434 36.9257ZM289.434 23.1149C288.181 23.117 286.981 23.6307 286.096 24.5435C285.21 25.4562 284.713 26.6934 284.711 27.9837C284.713 29.274 285.21 30.5112 286.096 31.4239C286.981 32.3367 288.181 32.8504 289.434 32.8525C290.686 32.8504 291.887 32.3367 292.772 31.4239C293.657 30.5112 294.155 29.274 294.156 27.9837C294.155 26.6934 293.657 25.4562 292.772 24.5435C291.887 23.6307 290.686 23.117 289.434 23.1149V23.1149Z" fill="#212121"/>
<path d="M407.226 8H440.191V40.024H407.226V8Z" fill="#B72A1E"/>
<path d="M429.831 17.8083V14.5933H419.76V21.4914H419.487H417.586V23.6865H418.189H419.76V25.4221H419.423H417.586V27.6193H418.124H419.76V34.3728H423.644V27.6193H427.093L428.068 25.4221H423.644V24.6852V23.6865H428.858L429.831 21.4914H423.644V17.8083H429.831Z" fill="white"/>
<path d="M457.123 20.7254H460.351V31.0921H457.123V20.7254ZM469.765 31.071V29.6114H469.725C469.358 30.1687 468.853 30.6219 468.259 30.9274C467.665 31.2328 467.003 31.3802 466.335 31.3552C463.434 31.3552 461.465 28.7401 461.465 25.8401C461.465 22.9401 463.295 20.3653 466.293 20.3653C466.945 20.3391 467.592 20.4823 468.172 20.7808C468.753 21.0794 469.245 21.5231 469.603 22.0688H469.645V15.0155H472.564V31.0737L469.765 31.071ZM469.744 25.8811C469.744 24.3163 468.892 22.8417 467.066 22.8417C465.384 22.8417 464.51 24.345 464.51 25.9228C464.51 27.5628 465.423 29.0046 467.146 29.0046C468.81 29.0046 469.743 27.6263 469.743 25.8811H469.744ZM484.239 25.8811V26.6922H476.615C476.62 27.3361 476.878 27.9523 477.333 28.4077C477.789 28.8631 478.405 29.1212 479.049 29.1262C479.479 29.1409 479.904 29.0321 480.275 28.8127C480.645 28.5933 480.945 28.2724 481.139 27.888L483.98 28.1081C483.27 30.2414 481.361 31.3552 478.907 31.3552C475.76 31.3552 473.571 29.2068 473.571 25.8811C473.571 22.515 475.758 20.3653 478.907 20.3653C482.057 20.3653 484.243 22.515 484.243 25.8811H484.239ZM481.325 24.8267C481.292 24.2241 481.03 23.6569 480.592 23.2419C480.154 22.8268 479.573 22.5955 478.97 22.5955C478.367 22.5955 477.786 22.8268 477.348 23.2419C476.91 23.6569 476.648 24.2241 476.615 24.8267H481.325ZM485.302 15.2875V31.0723H488.226V15.0142H485.302V15.2875ZM491.114 14.6472C490.662 14.6593 490.232 14.8453 489.914 15.1665C489.596 15.4876 489.414 15.9192 489.406 16.3712C489.41 16.7073 489.513 17.0346 489.702 17.3122C489.892 17.5897 490.159 17.8051 490.47 17.9312C490.782 18.0572 491.124 18.0884 491.453 18.0208C491.782 17.9531 492.084 17.7897 492.32 17.551C492.557 17.3123 492.718 17.009 492.782 16.6792C492.847 16.3494 492.813 16.0079 492.684 15.6976C492.555 15.3873 492.337 15.122 492.058 14.9351C491.778 14.7482 491.45 14.648 491.114 14.6472V14.6472ZM458.735 14.6472C458.284 14.6607 457.856 14.8473 457.539 15.1683C457.222 15.4893 457.04 15.9201 457.033 16.3712C457.036 16.7073 457.139 17.0347 457.328 17.3124C457.517 17.5901 457.784 17.8056 458.096 17.9318C458.407 18.0579 458.749 18.0891 459.078 18.0214C459.407 17.9537 459.709 17.7902 459.946 17.5513C460.182 17.3125 460.342 17.009 460.407 16.6792C460.471 16.3494 460.436 16.0079 460.307 15.6978C460.177 15.3877 459.959 15.1228 459.68 14.9364C459.4 14.7501 459.071 14.6507 458.735 14.6506V14.6472ZM489.651 31.071H492.576V20.6489H489.651V31.071ZM499.501 28.7791C499.309 28.8241 499.112 28.845 498.914 28.8413C498.163 28.8413 497.962 28.6178 497.962 28.1518V22.8772H499.501V20.6482H497.962V17.388H495.038V20.6482H493.702V22.8772H495.038V28.4757C495.038 30.7259 496.195 31.1926 498.103 31.1926C498.571 31.1818 499.038 31.1411 499.501 31.071V28.7791ZM503.123 34.0359H506.176L511.228 20.6482H508.016L505.805 27.5423H505.765L503.551 20.6482H500.35L504.263 31.071L503.123 34.0359ZM445.833 23.6261V25.441H447.368V31.1304H450.592V25.441H453.638L454.445 23.6261H450.594V22.567H454.922L455.73 20.7514H450.594V17.7058H455.728V15.0606H447.369V20.7548H445.833V22.5704H447.368V23.6295L445.833 23.6261Z" fill="#035A90"/>
<path d="M448.259 40.3437H447.371V36.6756H448.259V40.3437ZM451.495 38.2554L452.83 40.3437H453.719V36.6756H452.83V38.7365L451.495 36.6756H450.607V40.3437H451.495V38.2554ZM457.461 37.3978H458.302V36.6756H455.724V37.3951H456.571V40.3437H457.459L457.461 37.3978ZM461.114 37.3978H462.323V36.6756H460.224V40.3437H462.323V39.6214H461.114V38.8629H462.323V38.1427H461.114V37.3978ZM465.448 38.9251L466.251 40.3437H467.316L466.508 38.9975C466.733 38.9153 466.924 38.7614 467.052 38.5597C467.18 38.358 467.238 38.1197 467.218 37.8816C467.227 37.7068 467.196 37.5322 467.128 37.3712C467.059 37.2102 466.954 37.0671 466.821 36.953C466.502 36.7459 466.124 36.6498 465.745 36.6797H464.557V40.3437H465.445L465.448 38.9251ZM465.448 38.4256V37.4054H465.79C465.859 37.3998 465.929 37.4092 465.995 37.4327C466.06 37.4563 466.12 37.4935 466.169 37.542C466.219 37.5904 466.258 37.6489 466.284 37.7136C466.309 37.7783 466.321 37.8477 466.317 37.9172C466.317 38.2356 466.103 38.4222 465.735 38.4222L465.448 38.4256ZM470.403 38.2554L471.739 40.3437H472.628V36.6756H471.739V38.7365L470.403 36.6756H469.515V40.3437H470.403V38.2554ZM477 39.8161L477.16 40.3437H478.138L476.935 36.6776H475.802L474.593 40.3437H475.544L475.703 39.8161H477ZM476.781 39.0952H475.923L476.352 37.7286L476.781 39.0952ZM481.363 37.3978H482.204V36.6756H479.626V37.3951H480.473V40.3437H481.361L481.363 37.3978ZM485.456 36.6783H484.567V40.3437H485.456V36.6783ZM491.392 38.5192C491.394 38.259 491.345 38.001 491.249 37.7593C491.159 37.5325 491.024 37.3261 490.852 37.1525C490.681 36.979 490.476 36.8419 490.25 36.7494C490.011 36.6527 489.756 36.6035 489.498 36.6045C489.367 36.6041 489.236 36.6153 489.107 36.638C488.983 36.6591 488.862 36.6921 488.744 36.7364C488.63 36.7787 488.52 36.8323 488.416 36.8963C488.314 36.9597 488.218 37.0332 488.13 37.1156C488.032 37.208 487.943 37.3099 487.865 37.4197C487.789 37.5267 487.725 37.6412 487.673 37.7614C487.621 37.8803 487.581 38.0045 487.555 38.1317C487.529 38.2605 487.515 38.3917 487.515 38.5233C487.515 38.7736 487.565 39.0214 487.663 39.2517C487.761 39.482 487.905 39.6901 488.086 39.8633C488.266 40.036 488.477 40.1726 488.708 40.2658C488.953 40.3633 489.213 40.4131 489.476 40.4127C489.733 40.413 489.987 40.3624 490.223 40.2637C490.682 40.0735 491.048 39.7118 491.243 39.2558C491.343 39.0223 491.394 38.771 491.394 38.5171L491.392 38.5192ZM488.421 38.5117C488.42 38.3642 488.447 38.218 488.5 38.0805C488.55 37.9532 488.624 37.8371 488.718 37.7388C488.812 37.6419 488.925 37.565 489.049 37.5126C489.181 37.4583 489.323 37.4306 489.465 37.4313C489.606 37.4304 489.746 37.4588 489.875 37.5147C489.999 37.5685 490.11 37.6471 490.201 37.7457C490.295 37.8466 490.368 37.9647 490.417 38.0935C490.469 38.2328 490.495 38.3806 490.494 38.5294C490.495 38.6712 490.467 38.8117 490.413 38.9428C490.362 39.0684 490.287 39.1828 490.192 39.2797C490.097 39.3778 489.983 39.4558 489.858 39.5091C489.733 39.5624 489.598 39.5899 489.461 39.59C489.324 39.5907 489.187 39.5634 489.06 39.5097C488.934 39.456 488.819 39.3771 488.724 39.2777C488.629 39.1792 488.554 39.0631 488.503 38.936C488.45 38.8015 488.422 38.6579 488.423 38.513L488.421 38.5117ZM494.236 38.2547L495.572 40.343H496.461V36.6756H495.572V38.7365L494.236 36.6756H493.348V40.3437H494.236V38.2547ZM500.873 39.8155L501.033 40.343H502.01L500.807 36.6769H499.674L498.463 40.3437H499.413L499.572 39.8161L500.873 39.8155ZM500.652 39.0945H499.795L500.224 37.7279L500.652 39.0945ZM504.894 39.6234V36.6756H504.006V40.3437H506.089V39.6214L504.894 39.6234Z" fill="#035A90"/>
<path d="M611.328 31.8639L604.845 28.2056C603.934 27.6934 602.769 27.998 602.242 28.8877C602.038 29.2381 601.958 29.6236 601.997 29.9984V37.1479C601.997 38.1697 602.847 39 603.896 39C604.942 39 605.792 38.1697 605.792 37.1479V33.0367L609.424 35.0855C610.334 35.6005 611.502 35.2931 612.026 34.4035C612.553 33.5138 612.241 32.3762 611.328 31.8639Z" fill="#29B5E8"/>
<path d="M595.205 24.0243C595.216 23.3638 594.86 22.7492 594.275 22.4176L587.792 18.7619C587.51 18.6029 587.187 18.5193 586.864 18.5193C586.199 18.5193 585.581 18.8671 585.25 19.4278C584.736 20.2959 585.043 21.4093 585.932 21.9107L589.668 24.0162L585.932 26.1244C585.501 26.3671 585.192 26.758 585.065 27.2271C584.935 27.6961 585.001 28.1868 585.25 28.6074C585.581 29.1681 586.199 29.5159 586.862 29.5159C587.187 29.5159 587.51 29.4323 587.792 29.2732L594.275 25.6176C594.854 25.2887 595.21 24.6794 595.205 24.0243Z" fill="#29B5E8"/>
<path d="M589.263 16.1711L595.745 19.8267C596.502 20.2554 597.435 20.1152 598.031 19.5464C598.409 19.2067 598.643 18.7214 598.643 18.1822V10.8548C598.643 9.83034 597.793 9 596.747 9C595.699 9 594.849 9.83034 594.849 10.8548V15.0253L591.167 12.9495C590.256 12.4346 589.091 12.7392 588.564 13.6289C588.037 14.5185 588.352 15.6562 589.263 16.1711Z" fill="#29B5E8"/>
<path d="M603.841 24.3209C603.841 24.4611 603.758 24.6552 603.656 24.7576L601.086 27.2675C600.984 27.3672 600.783 27.4481 600.639 27.4481H599.985C599.841 27.4481 599.64 27.3672 599.538 27.2675L596.966 24.7576C596.864 24.6552 596.781 24.4611 596.781 24.3209V23.6819C596.781 23.5391 596.864 23.345 596.966 23.2452L599.538 20.7326C599.64 20.6329 599.841 20.552 599.985 20.552H600.639C600.783 20.552 600.984 20.6329 601.086 20.7326L603.656 23.2452C603.758 23.345 603.841 23.5391 603.841 23.6819V24.3209ZM601.547 24.0135V23.9866C601.547 23.8841 601.486 23.7413 601.412 23.6658L600.653 22.9271C600.578 22.8516 600.432 22.7923 600.324 22.7923H600.297C600.192 22.7923 600.046 22.8516 599.968 22.9271L599.212 23.6658C599.138 23.7386 599.077 23.8814 599.077 23.9866V24.0135C599.077 24.1187 599.138 24.2616 599.212 24.3344L599.968 25.0757C600.046 25.1485 600.192 25.2078 600.297 25.2078H600.324C600.432 25.2078 600.578 25.1485 600.653 25.0757L601.412 24.3344C601.486 24.2616 601.547 24.1187 601.547 24.0135Z" fill="#29B5E8"/>
<path d="M604.845 19.8267L611.328 16.1711C612.239 15.6589 612.553 14.5185 612.026 13.6289C611.499 12.7392 610.335 12.4346 609.424 12.9495L605.792 14.9984V10.8548C605.792 9.83034 604.942 9 603.896 9C602.847 9 601.997 9.83034 601.997 10.8548V18.0367C601.961 18.4087 602.036 18.7969 602.243 19.1474C602.77 20.037 603.934 20.3417 604.845 19.8267Z" fill="#29B5E8"/>
<path d="M597.045 27.9898C596.615 27.909 596.154 27.9764 595.745 28.2055L589.263 31.8639C588.352 32.3761 588.037 33.5138 588.564 34.4034C589.091 35.2957 590.256 35.6004 591.167 35.0855L594.849 33.0096V37.1478C594.849 38.1696 595.699 38.9999 596.747 38.9999C597.793 38.9999 598.643 38.1696 598.643 37.1478V29.8204C598.643 28.8957 597.951 28.13 597.045 27.9898Z" fill="#29B5E8"/>
<path d="M615.379 19.4063C614.855 18.5139 613.687 18.2093 612.777 18.7242L606.294 22.3799C605.673 22.7303 605.331 23.372 605.342 24.0244C605.336 24.6741 605.678 25.3076 606.294 25.6527L612.777 29.311C613.687 29.8233 614.852 29.5186 615.379 28.629C615.906 27.7393 615.592 26.6017 614.681 26.0867L611.01 24.0163L614.681 21.9458C615.595 21.4336 615.906 20.2959 615.379 19.4063Z" fill="#29B5E8"/>
<path d="M715 23.5875V23.5902V23.6576C715 24.0027 714.705 24.2588 714.34 24.2588H705.233C705.249 24.4691 705.277 24.6739 705.321 24.8761C705.743 26.8037 707.432 28.2379 709.439 28.2541C709.444 28.2541 709.546 28.2541 709.704 28.2541C709.728 28.2541 709.753 28.2541 709.778 28.2541H709.969C710.01 28.2541 710.051 28.2541 710.096 28.2514C710.134 28.2514 710.173 28.2487 710.211 28.246C710.214 28.246 710.217 28.246 710.22 28.2433C710.885 28.1921 711.555 27.9306 712.154 27.51C712.154 27.51 712.154 27.51 712.157 27.51C712.188 27.4885 712.221 27.4642 712.251 27.4399C712.256 27.4372 712.262 27.4318 712.27 27.4265C712.295 27.4076 712.323 27.386 712.35 27.3645C712.361 27.3564 712.37 27.3483 712.381 27.3402C712.403 27.324 712.425 27.3051 712.447 27.2863C712.461 27.2755 712.477 27.262 712.491 27.2512C712.508 27.235 712.524 27.2189 712.544 27.2054C712.56 27.1892 712.579 27.173 712.596 27.1569C712.61 27.1461 712.624 27.1326 712.637 27.1191C712.659 27.1003 712.679 27.0814 712.701 27.0625C712.712 27.0517 712.723 27.0382 712.734 27.0275C712.756 27.0059 712.778 26.9843 712.8 26.9628C712.811 26.952 712.82 26.9439 712.831 26.9331C712.853 26.9088 712.875 26.8846 712.897 26.8603C712.908 26.8522 712.916 26.8414 712.924 26.8307C712.949 26.8064 712.971 26.7821 712.993 26.7579C713.002 26.7471 713.013 26.7363 713.021 26.7255C713.043 26.6986 713.062 26.6743 713.084 26.65C713.096 26.6366 713.107 26.6231 713.118 26.6096C713.137 26.5853 713.156 26.5638 713.173 26.5422C713.189 26.5206 713.203 26.5018 713.217 26.4829C713.231 26.464 713.245 26.4478 713.258 26.429C713.28 26.3993 713.302 26.3697 713.322 26.34C713.33 26.3292 713.336 26.3211 713.341 26.3131C713.396 26.2349 713.449 26.154 713.501 26.0704C713.501 26.0704 713.501 26.0677 713.504 26.065C713.515 26.0462 713.529 26.03 713.543 26.0111C713.548 26.003 713.554 25.9949 713.562 25.9895C713.57 25.9761 713.581 25.968 713.59 25.9572C713.598 25.9491 713.606 25.941 713.614 25.9329C713.625 25.9248 713.634 25.9168 713.645 25.9087C713.653 25.9006 713.661 25.8925 713.672 25.8871C713.686 25.8763 713.703 25.8655 713.719 25.8574C713.73 25.8494 713.744 25.8413 713.755 25.8359C713.769 25.8305 713.78 25.8251 713.791 25.8197C713.802 25.8143 713.813 25.8116 713.821 25.8062C713.838 25.8008 713.852 25.7981 713.868 25.7927C713.877 25.79 713.882 25.7873 713.89 25.7847C713.943 25.7739 713.998 25.7658 714.05 25.7658C714.108 25.7658 714.169 25.7739 714.224 25.79C714.227 25.79 714.227 25.79 714.23 25.79C714.252 25.7981 714.277 25.8035 714.299 25.8143C714.304 25.817 714.31 25.817 714.315 25.8197C714.34 25.8305 714.362 25.8413 714.384 25.8547L714.395 25.8601C714.699 26.0758 714.793 26.4532 714.608 26.7633L714.605 26.766C714.583 26.801 714.561 26.8361 714.539 26.8684C714.533 26.8765 714.528 26.8846 714.522 26.8927C713.877 27.8524 712.999 28.618 712.019 29.0763C711.997 29.0844 711.978 29.0952 711.956 29.106C711.953 29.106 711.947 29.1087 711.945 29.1087C711.492 29.3136 711.006 29.4565 710.487 29.5158C710.476 29.5158 710.465 29.5185 710.454 29.5185C710.41 29.5239 710.366 29.5293 710.322 29.532C710.297 29.532 710.272 29.5347 710.245 29.5373C710.214 29.5373 710.181 29.54 710.151 29.5427C710.09 29.5427 710.029 29.5454 709.969 29.5454C709.96 29.5454 709.731 29.5454 709.577 29.5454C709.488 29.5454 709.439 29.5454 709.433 29.5454C706.37 29.5239 703.902 27.0275 703.902 23.9703C703.902 20.8619 706.386 18.3521 709.475 18.3521C709.566 18.3521 709.657 18.3547 709.748 18.3574C710.824 18.4114 711.818 18.7699 712.643 19.3576C712.646 19.3603 712.648 19.363 712.651 19.363C712.698 19.3954 712.742 19.4304 712.786 19.4628C712.808 19.4816 712.833 19.5005 712.858 19.5194C712.88 19.5356 712.902 19.5544 712.924 19.5706C714.086 20.5169 714.87 21.9376 715 23.5821V23.5875ZM705.321 22.989H713.565C713.156 21.048 711.448 19.6434 709.475 19.6434C707.465 19.6434 705.771 21.021 705.321 22.989Z" fill="#29B5E8"/>
<path d="M691.715 18.5408C691.817 18.6405 691.886 18.7753 691.903 18.9317C691.903 18.9532 691.906 18.9748 691.906 18.9964V28.8984C691.906 29.2516 691.602 29.5454 691.243 29.5454C690.884 29.5454 690.584 29.2516 690.584 28.8984V27.5828C690.332 27.8794 690.056 28.149 689.756 28.3835C689.747 28.3916 689.739 28.397 689.731 28.4051C689.703 28.4266 689.673 28.4482 689.645 28.4671C688.734 29.1518 687.628 29.5454 686.471 29.5454C684.608 29.5454 682.969 28.5776 681.992 27.111C681.984 27.1003 681.973 27.0868 681.964 27.076C681.937 27.0302 681.909 26.9843 681.879 26.9358C681.86 26.9061 681.843 26.8765 681.824 26.8468C681.804 26.8172 681.788 26.7848 681.771 26.7525C681.744 26.7067 681.716 26.6581 681.691 26.6123C681.683 26.5961 681.677 26.5799 681.669 26.5638C681.308 25.8628 681.084 25.0729 681.045 24.2345C681.04 24.1402 681.037 24.0458 681.037 23.9487C681.037 23.8517 681.04 23.7573 681.045 23.663C681.084 22.8246 681.308 22.0347 681.669 21.331C681.677 21.3175 681.683 21.3014 681.691 21.2852C681.716 21.2394 681.744 21.1908 681.771 21.145C681.788 21.1127 681.804 21.0803 681.824 21.0506C681.84 21.021 681.86 20.9913 681.879 20.9617C681.906 20.9159 681.937 20.8673 681.964 20.8215C681.973 20.8107 681.984 20.7972 681.992 20.7865C682.969 19.3199 684.608 18.3521 686.471 18.3521C687.73 18.3521 688.919 18.8023 689.866 19.5868C690.125 19.7998 690.365 20.0343 690.584 20.2931V18.9964C690.584 18.9748 690.584 18.9532 690.586 18.9317C690.603 18.7753 690.672 18.6405 690.774 18.5408C690.774 18.5408 690.774 18.5408 690.774 18.5381C690.785 18.5273 690.799 18.5192 690.81 18.5084C690.813 18.5057 690.818 18.5003 690.821 18.4976C690.829 18.4895 690.84 18.4842 690.848 18.4788C690.857 18.4734 690.865 18.4653 690.873 18.4599C690.879 18.4572 690.884 18.4545 690.89 18.4491C690.904 18.4437 690.915 18.4356 690.929 18.4275C690.931 18.4275 690.934 18.4248 690.937 18.4248C690.953 18.4168 690.97 18.4087 690.986 18.4006C690.986 18.4006 690.986 18.4006 690.989 18.4006C691.028 18.3844 691.069 18.3736 691.111 18.3655C691.113 18.3655 691.119 18.3628 691.122 18.3628C691.138 18.3601 691.158 18.3574 691.177 18.3547C691.199 18.3547 691.221 18.3521 691.243 18.3521C691.268 18.3521 691.29 18.3547 691.312 18.3547C691.331 18.3574 691.348 18.3601 691.367 18.3628C691.37 18.3628 691.373 18.3655 691.378 18.3655C691.42 18.3736 691.461 18.3844 691.5 18.4006H691.503C691.519 18.4087 691.536 18.4168 691.549 18.4248C691.555 18.4248 691.558 18.4275 691.561 18.4275C691.572 18.4356 691.585 18.4437 691.596 18.4491C691.602 18.4545 691.61 18.4572 691.616 18.4599C691.624 18.4653 691.632 18.4734 691.641 18.4788C691.649 18.4842 691.657 18.4895 691.665 18.4976C691.671 18.5003 691.674 18.5057 691.679 18.5084C691.69 18.5192 691.704 18.5273 691.712 18.5381C691.715 18.5408 691.715 18.5408 691.715 18.5408ZM686.471 28.2541C688.737 28.2541 690.584 26.3238 690.584 23.9487C690.584 21.5629 688.737 19.6218 686.471 19.6218C684.222 19.6218 682.359 21.5602 682.359 23.9487C682.359 24.0242 682.362 24.097 682.365 24.1698C682.365 24.2022 682.37 24.2318 682.37 24.2615C682.373 24.3046 682.376 24.3477 682.381 24.3882C682.384 24.4232 682.389 24.4556 682.392 24.4879C682.398 24.5257 682.4 24.5661 682.406 24.6038C682.412 24.6335 682.417 24.6605 682.42 24.6874C682.428 24.7306 682.434 24.7737 682.442 24.8168C682.447 24.8384 682.453 24.8573 682.456 24.8761C682.467 24.9274 682.478 24.9759 682.489 25.0271C682.492 25.0379 682.494 25.0487 682.5 25.0595C682.969 26.9035 684.581 28.2541 686.471 28.2541Z" fill="#29B5E8"/>
<path d="M675.125 13.6829H674.946C674.924 13.6829 674.899 13.6829 674.877 13.6856C674.852 13.6829 674.83 13.6829 674.805 13.6829C674.741 13.6829 674.678 13.6829 674.615 13.6856C674.603 13.6856 674.59 13.6883 674.579 13.6883C674.529 13.6883 674.479 13.6909 674.43 13.6963C674.421 13.6963 674.41 13.6963 674.402 13.6963C674.35 13.7017 674.3 13.7044 674.25 13.7098C674.245 13.7125 674.239 13.7125 674.234 13.7125C674.178 13.7206 674.126 13.726 674.076 13.7341C674.074 13.7341 674.071 13.7341 674.071 13.7341C673.737 13.7853 673.436 13.877 673.168 14.0064C673.168 14.0091 673.166 14.0091 673.163 14.0091C673.124 14.0306 673.083 14.0522 673.044 14.0738C673.036 14.0765 673.03 14.0819 673.022 14.0872C672.989 14.1061 672.956 14.125 672.923 14.1466C672.909 14.1546 672.898 14.1654 672.887 14.1735C672.859 14.1897 672.834 14.2086 672.807 14.2274C672.787 14.2436 672.768 14.2598 672.749 14.2733C672.732 14.2867 672.716 14.3002 672.699 14.3137C672.669 14.3407 672.641 14.3649 672.614 14.3919C672.608 14.3973 672.603 14.4027 672.597 14.4081C672.564 14.4431 672.531 14.4755 672.498 14.5105C672.492 14.5186 672.487 14.5267 672.481 14.5321C672.454 14.5617 672.426 14.5914 672.401 14.621C672.393 14.6345 672.382 14.648 672.373 14.6615C672.351 14.6884 672.332 14.7127 672.313 14.7397C672.307 14.7504 672.302 14.7585 672.293 14.7666C672.271 14.799 672.249 14.8313 672.23 14.8637C672.227 14.8691 672.224 14.8718 672.222 14.8771C672.042 15.1656 671.915 15.5053 671.835 15.9151C671.835 15.9205 671.835 15.9285 671.833 15.9339C671.822 15.9852 671.813 16.0391 671.805 16.093C671.802 16.1092 671.799 16.1253 671.799 16.1415C671.791 16.1874 671.786 16.2332 671.78 16.2817C671.777 16.3087 671.775 16.3356 671.772 16.3653C671.766 16.403 671.761 16.4381 671.758 16.4785C671.755 16.519 671.753 16.5594 671.75 16.6025C671.747 16.6295 671.747 16.6564 671.744 16.6861C671.741 16.7427 671.739 16.802 671.736 16.8613C671.736 16.8775 671.733 16.8883 671.733 16.9018C671.73 16.9773 671.73 17.0554 671.73 17.1309V18.1958H670.356C670.27 18.1931 670.185 18.2093 670.108 18.2362C669.859 18.3252 669.683 18.5544 669.683 18.8213C669.683 19.072 669.81 19.2849 670.008 19.409C670.108 19.471 670.224 19.5087 670.351 19.5141H670.356V19.5168H671.73V28.9201C671.728 28.9336 671.73 28.9444 671.73 28.9578C671.73 28.9659 671.73 28.974 671.73 28.9821C671.739 29.1331 671.802 29.2706 671.904 29.3757L671.907 29.3784C671.921 29.3919 671.937 29.4054 671.951 29.4188C671.954 29.4215 671.957 29.4215 671.96 29.4242C671.971 29.435 671.984 29.4431 671.995 29.4512C672.001 29.4566 672.009 29.462 672.015 29.4647C672.02 29.4701 672.026 29.4728 672.034 29.4755C672.142 29.5429 672.269 29.5806 672.404 29.5806C672.426 29.5806 672.448 29.5779 672.467 29.5752C672.597 29.5644 672.716 29.5105 672.812 29.4323L672.815 29.4296C672.829 29.4188 672.84 29.4081 672.851 29.3946C672.854 29.3919 672.859 29.3892 672.862 29.3865C672.873 29.3757 672.881 29.3649 672.89 29.3568C672.994 29.2328 673.052 29.0792 673.044 28.9201V19.5168H674.523V19.5141H674.529C674.921 19.4952 675.208 19.196 675.197 18.8239C675.197 18.8213 675.197 18.8213 675.197 18.8186C675.2 18.8051 675.197 18.7916 675.197 18.7781C675.197 18.7727 675.197 18.7673 675.197 18.7646C675.186 18.6218 675.122 18.4924 675.023 18.3926C675.023 18.3926 675.023 18.3926 675.023 18.3899C675.02 18.3899 675.02 18.3899 675.02 18.3899C675.006 18.3764 674.995 18.3656 674.982 18.3549C674.976 18.3495 674.971 18.3468 674.968 18.3414C674.957 18.3333 674.948 18.3279 674.937 18.3198C674.929 18.3144 674.918 18.3063 674.91 18.3009C674.904 18.2982 674.896 18.2929 674.891 18.2902C674.877 18.2821 674.863 18.274 674.849 18.2686C674.846 18.2659 674.841 18.2632 674.838 18.2632C674.822 18.2551 674.805 18.247 674.788 18.2416C674.786 18.2389 674.783 18.2389 674.777 18.2362C674.761 18.2308 674.744 18.2255 674.728 18.2201C674.722 18.2201 674.717 18.2174 674.711 18.2174C674.695 18.2147 674.681 18.2093 674.664 18.2066C674.656 18.2066 674.648 18.2066 674.639 18.2039C674.628 18.2012 674.615 18.2012 674.601 18.1985C674.59 18.1985 674.579 18.1985 674.57 18.1985C674.562 18.1985 674.554 18.1958 674.546 18.1958C674.537 18.1958 674.526 18.1958 674.523 18.1958H673.044V17.1336C673.044 17.1255 673.044 17.1174 673.044 17.112C673.047 17.0581 673.047 17.0042 673.05 16.953C673.05 16.9395 673.05 16.9233 673.052 16.9099C673.052 16.864 673.055 16.8182 673.058 16.7751C673.058 16.767 673.061 16.7562 673.061 16.7481C673.063 16.6969 673.069 16.6457 673.075 16.5971C673.127 16.0714 673.243 15.7398 673.364 15.5376C673.367 15.5323 673.367 15.5296 673.37 15.5242C673.378 15.5107 673.389 15.4972 673.397 15.4837C673.403 15.4729 673.411 15.4622 673.419 15.4514C673.422 15.446 673.428 15.4352 673.433 15.4298C673.447 15.4109 673.461 15.3948 673.477 15.3786C673.651 15.1872 673.922 15.0713 674.314 15.0254C674.319 15.0254 674.322 15.0227 674.33 15.0227C674.352 15.02 674.377 15.0173 674.399 15.0173C674.41 15.0146 674.424 15.0146 674.435 15.0119C674.457 15.0119 674.477 15.0092 674.499 15.0092C674.515 15.0092 674.529 15.0065 674.548 15.0065C674.568 15.0039 674.587 15.0039 674.606 15.0039C674.626 15.0039 674.645 15.0012 674.664 15.0012C674.684 15.0012 674.703 15.0012 674.722 15.0012C674.75 15.0012 674.777 15.0012 674.805 15.0012H674.808C674.83 15.0012 674.849 14.9985 674.871 14.9958C674.896 14.9985 674.921 15.0012 674.946 15.0012H675.125C675.495 15.0012 675.799 14.7046 675.799 14.3407C675.799 13.9767 675.495 13.6829 675.125 13.6829Z" fill="#29B5E8"/>
<path d="M678.685 13.7016C678.685 13.7016 678.683 13.6989 678.68 13.6989C678.666 13.6935 678.655 13.6881 678.638 13.6854C678.633 13.6828 678.625 13.6801 678.616 13.6774C678.605 13.6747 678.594 13.672 678.583 13.6693C678.572 13.6666 678.561 13.6612 678.553 13.6612C678.539 13.6585 678.528 13.6558 678.514 13.6558C678.503 13.6531 678.495 13.6531 678.484 13.6504C678.462 13.6477 678.437 13.6477 678.415 13.6477C678.056 13.6477 677.752 13.9416 677.752 14.292V28.8984C677.752 29.2516 678.056 29.5454 678.415 29.5454C678.437 29.5454 678.462 29.5454 678.484 29.5427C678.487 29.5427 678.492 29.54 678.495 29.54C678.514 29.5374 678.533 29.5347 678.553 29.532C678.556 29.532 678.561 29.5293 678.567 29.5293C678.583 29.5239 678.6 29.5212 678.616 29.5158C678.619 29.5158 678.622 29.5158 678.625 29.5131C678.878 29.4349 679.066 29.2246 679.094 28.9658C679.097 28.9443 679.099 28.9227 679.099 28.8984V14.292C679.099 14.2705 679.097 14.2489 679.094 14.2273C679.069 13.9901 678.909 13.7933 678.685 13.7016Z" fill="#29B5E8"/>
<path d="M628.011 26.1082C628.006 26.0704 628.006 26.0354 628 26.0003C627.997 25.9734 627.995 25.9491 627.992 25.9248C627.986 25.8952 627.984 25.8682 627.978 25.8386C627.973 25.8116 627.967 25.7847 627.962 25.755C627.959 25.7334 627.953 25.7092 627.948 25.6876C627.939 25.6552 627.934 25.6256 627.926 25.5932C627.92 25.5771 627.915 25.5582 627.909 25.542C627.901 25.507 627.89 25.4746 627.876 25.4423C627.873 25.4288 627.868 25.4153 627.865 25.4045C627.851 25.3668 627.837 25.3317 627.821 25.294C627.818 25.2886 627.815 25.2805 627.813 25.2724C627.793 25.2347 627.777 25.1943 627.757 25.1565C627.755 25.1538 627.755 25.1511 627.752 25.1484C627.594 24.8384 627.371 24.5796 627.098 24.3612C627.098 24.3585 627.098 24.3585 627.095 24.3585C627.056 24.3289 627.018 24.2965 626.976 24.2669C626.976 24.2669 626.974 24.2642 626.971 24.2615C626.968 24.2615 626.965 24.2588 626.962 24.2561C626.938 24.2399 626.913 24.221 626.891 24.2049C626.551 23.9703 626.176 23.7843 625.629 23.5794C625.621 23.5767 625.613 23.574 625.605 23.5713C625.596 23.5659 625.585 23.5632 625.577 23.5578C625.268 23.4446 624.948 23.3368 624.619 23.2316C624.619 23.2316 624.619 23.2316 624.617 23.2316C624.617 23.2316 624.614 23.2316 624.614 23.2289C624.608 23.2289 624.603 23.2262 624.594 23.2235C624.564 23.2128 624.531 23.202 624.487 23.1885C624.465 23.1831 624.448 23.1777 624.432 23.1723C624.321 23.1346 624.208 23.0995 624.095 23.0618C624.015 23.0348 623.929 23.0079 623.827 22.9755C623.8 22.9674 623.733 22.9459 623.678 22.9297C623.675 22.9297 623.675 22.927 623.673 22.927C623.64 22.9162 623.606 22.9054 623.571 22.8946C623.295 22.8084 623.068 22.7329 622.875 22.6628C622.56 22.5496 622.273 22.4283 622.039 22.2827C622.033 22.28 622.028 22.2773 622.025 22.2746C621.705 22.0751 621.484 21.8298 621.432 21.509L621.429 21.5063C621.426 21.4847 621.423 21.4604 621.423 21.4389C621.421 21.4335 621.421 21.4308 621.421 21.4281C621.418 21.4011 621.418 21.3769 621.418 21.3499C621.418 21.3122 621.421 21.2744 621.423 21.2394C621.423 21.2286 621.423 21.2205 621.426 21.2124C621.429 21.1827 621.432 21.1558 621.434 21.1288C621.437 21.1207 621.437 21.1127 621.44 21.1046C621.445 21.0749 621.451 21.048 621.457 21.0183C621.459 21.0156 621.459 21.0102 621.462 21.0048C621.47 20.9725 621.479 20.9428 621.49 20.9132C621.49 20.9105 621.49 20.9105 621.49 20.9105C621.633 20.4926 621.973 20.1826 622.373 19.9642C622.4 19.9507 622.428 19.9372 622.453 19.9238C622.48 19.9103 622.505 19.8968 622.53 19.886C622.572 19.8671 622.613 19.8483 622.654 19.8321C622.679 19.8213 622.701 19.8105 622.726 19.8024C622.77 19.7863 622.814 19.7701 622.859 19.7539C622.881 19.7458 622.905 19.7377 622.93 19.7297C622.974 19.7162 623.016 19.7027 623.06 19.6919C623.088 19.6838 623.112 19.6757 623.14 19.6703C623.181 19.6596 623.223 19.6515 623.261 19.6407C623.289 19.6353 623.317 19.6299 623.344 19.6245C623.388 19.6164 623.43 19.6083 623.468 19.6029C623.493 19.6003 623.515 19.5976 623.54 19.5922C623.587 19.5868 623.637 19.5814 623.686 19.5787C623.698 19.576 623.709 19.576 623.722 19.5733C623.783 19.5706 623.844 19.5679 623.902 19.5679C623.971 19.5679 624.04 19.5706 624.106 19.5733C624.117 19.5733 624.128 19.5733 624.136 19.5733C624.625 19.6029 625.02 19.7189 625.345 19.8725C625.37 19.8833 625.395 19.8968 625.42 19.9076C625.434 19.9157 625.447 19.9238 625.461 19.9292C625.491 19.9453 625.522 19.9615 625.555 19.9804C625.56 19.9831 625.566 19.9858 625.571 19.9885C625.605 20.0073 625.638 20.0289 625.671 20.0478C625.674 20.0505 625.676 20.0505 625.676 20.0505C625.712 20.072 625.748 20.0963 625.784 20.1179C625.784 20.1206 625.787 20.1206 625.787 20.1233C625.823 20.1448 625.856 20.1664 625.889 20.1907C625.903 20.2014 625.914 20.2095 625.928 20.2176C626.005 20.2742 626.126 20.3659 626.237 20.4549C626.25 20.4629 626.261 20.471 626.27 20.4791C626.353 20.5465 626.43 20.6058 626.504 20.6597C626.518 20.6705 626.529 20.6786 626.537 20.684C626.54 20.6867 626.543 20.6894 626.546 20.6894C626.554 20.6948 626.562 20.7002 626.571 20.7056C626.59 20.7191 626.612 20.7325 626.631 20.746C626.64 20.7514 626.648 20.7541 626.656 20.7595C626.675 20.7703 626.695 20.7811 626.714 20.7918C626.722 20.7945 626.728 20.7972 626.736 20.7999C626.758 20.8107 626.778 20.8188 626.8 20.8269C626.805 20.8296 626.808 20.8296 626.813 20.8323C626.838 20.8404 626.863 20.8485 626.888 20.8512C626.888 20.8512 626.888 20.8512 626.891 20.8538C626.946 20.8619 626.998 20.8646 627.054 20.8512C627.059 20.8512 627.065 20.8485 627.07 20.8485C627.084 20.8458 627.1 20.8404 627.114 20.8377C627.12 20.835 627.123 20.8323 627.128 20.8296C627.134 20.8296 627.139 20.8269 627.145 20.8242C627.167 20.8134 627.189 20.8026 627.211 20.7891C627.216 20.7891 627.219 20.7865 627.222 20.7838C627.247 20.7676 627.269 20.7514 627.291 20.7325C627.294 20.7298 627.294 20.7298 627.294 20.7298C627.313 20.7137 627.33 20.6948 627.346 20.6759C627.357 20.6624 627.368 20.6463 627.376 20.6301C627.379 20.6274 627.382 20.6247 627.382 20.622C627.498 20.4333 627.432 20.1853 627.227 19.9157C627.225 19.9103 627.222 19.9049 627.216 19.8995C627.208 19.8887 627.203 19.8806 627.194 19.8698C626.725 19.2767 625.657 18.627 624.666 18.4194C624.661 18.4194 624.655 18.4194 624.65 18.4168C624.608 18.4087 624.564 18.4006 624.523 18.3925C624.512 18.3925 624.498 18.3898 624.487 18.3871C624.451 18.3817 624.415 18.3763 624.379 18.3736C624.365 18.3709 624.352 18.3682 624.338 18.3682C624.305 18.3655 624.269 18.3628 624.236 18.3601C624.222 18.3574 624.208 18.3574 624.197 18.3547C624.15 18.3547 624.106 18.3521 624.062 18.3521C623.99 18.3521 623.918 18.3521 623.849 18.3547C623.811 18.3547 623.772 18.3574 623.731 18.3601C623.703 18.3628 623.67 18.3628 623.642 18.3628C623.587 18.3682 623.535 18.3709 623.482 18.3763C623.468 18.3763 623.452 18.3763 623.438 18.379C623.377 18.3844 623.317 18.3898 623.259 18.3979C623.25 18.3979 623.245 18.3979 623.239 18.3979C623.176 18.406 623.115 18.4141 623.054 18.4248C623.052 18.4248 623.046 18.4248 623.043 18.4248C622.983 18.4329 622.922 18.4437 622.864 18.4545C622.861 18.4545 622.859 18.4572 622.853 18.4572C622.729 18.4788 622.607 18.5057 622.491 18.5354C622.489 18.5354 622.489 18.5381 622.489 18.5381C622.431 18.5515 622.373 18.5677 622.315 18.5839C622.26 18.6001 622.207 18.6189 622.158 18.6351C622.152 18.6351 622.149 18.6378 622.144 18.6378C622.094 18.6567 622.044 18.6729 621.995 18.6917C621.989 18.6944 621.984 18.6971 621.981 18.6971C621.931 18.716 621.887 18.7349 621.84 18.7564C621.835 18.7591 621.826 18.7591 621.821 18.7645C621.779 18.7807 621.735 18.8023 621.697 18.8211C621.686 18.8265 621.677 18.8292 621.669 18.8346C621.628 18.8535 621.589 18.8724 621.55 18.8939C621.539 18.8993 621.531 18.9047 621.52 18.9101C621.484 18.929 621.448 18.9505 621.412 18.9721C621.401 18.9775 621.39 18.9829 621.379 18.991C621.332 19.0179 621.288 19.0476 621.244 19.0746C621.192 19.1123 621.139 19.1473 621.092 19.1851C621.087 19.1851 621.084 19.1878 621.084 19.1905C620.849 19.3603 620.648 19.5409 620.482 19.7512C620.477 19.7593 620.468 19.7674 620.463 19.7755C620.444 19.8051 620.422 19.8321 620.402 19.8591C620.388 19.8806 620.375 19.9022 620.361 19.9238C620.35 19.9399 620.339 19.9561 620.33 19.9723C620.308 20.0073 620.289 20.0424 620.27 20.0801C620.267 20.0855 620.264 20.0882 620.261 20.0936C620.112 20.3821 620.027 20.7137 619.994 21.1154C619.994 21.1207 619.994 21.1261 619.991 21.1315C619.988 21.2016 619.983 21.2717 619.98 21.3472C619.98 21.4038 619.98 21.4604 619.983 21.517C619.983 21.5251 619.983 21.5332 619.983 21.5413C620.013 22.3123 620.372 22.892 621.02 23.3422C621.026 23.3449 621.031 23.3503 621.037 23.3529C621.065 23.3718 621.092 23.3907 621.12 23.4096C621.139 23.423 621.161 23.4338 621.181 23.4473C621.186 23.4527 621.194 23.4554 621.2 23.4581C621.84 23.8544 622.624 24.0808 623.278 24.2615C623.598 24.3531 623.885 24.4313 623.971 24.4556C623.99 24.461 624.009 24.4664 624.026 24.4744C624.418 24.6012 624.719 24.7036 624.967 24.8006C624.986 24.806 625.003 24.8141 625.022 24.8195C625.028 24.8222 625.036 24.8249 625.044 24.8303C625.185 24.8869 625.323 24.9462 625.456 25.0109C625.566 25.0648 625.668 25.1215 625.77 25.1808C626.032 25.3398 626.234 25.5124 626.369 25.7011C626.375 25.7065 626.377 25.7119 626.38 25.7173C626.394 25.7334 626.405 25.7496 626.413 25.7685C626.422 25.7793 626.427 25.7873 626.433 25.7981C626.441 25.8116 626.449 25.8251 626.455 25.8386C626.463 25.8521 626.468 25.8682 626.477 25.8817C626.482 25.8925 626.488 25.9033 626.493 25.9141C626.499 25.9302 626.507 25.9464 626.513 25.9653C626.515 25.9734 626.521 25.9842 626.524 25.9949C626.529 26.0138 626.535 26.0327 626.54 26.0515C626.543 26.0596 626.546 26.0677 626.548 26.0785C626.554 26.0974 626.56 26.1189 626.562 26.1378C626.565 26.1459 626.568 26.1567 626.568 26.1648C626.571 26.1863 626.573 26.2079 626.576 26.2295C626.579 26.2376 626.579 26.2457 626.579 26.2537C626.582 26.2861 626.584 26.3157 626.584 26.3481C626.584 26.3966 626.582 26.4425 626.579 26.4883C626.579 26.5018 626.576 26.5152 626.576 26.5287C626.573 26.5638 626.568 26.5988 626.56 26.6339C626.56 26.6446 626.557 26.6554 626.554 26.6662C626.537 26.7606 626.51 26.8495 626.474 26.9385C626.471 26.9412 626.471 26.9439 626.471 26.9466C626.452 26.987 626.433 27.0302 626.41 27.0679C626.408 27.0733 626.408 27.076 626.405 27.0787C626.358 27.165 626.303 27.2485 626.234 27.3267C626.201 27.3671 626.165 27.4049 626.129 27.4426C626.126 27.4426 626.126 27.4426 626.126 27.4453C626.052 27.5181 625.969 27.5855 625.883 27.6475C625.881 27.6502 625.878 27.6502 625.878 27.6529C625.836 27.6799 625.795 27.7095 625.754 27.7338C625.748 27.7392 625.743 27.7419 625.737 27.7446C625.665 27.7877 625.588 27.8308 625.511 27.8686C625.483 27.8821 625.456 27.8955 625.425 27.909C625.395 27.9225 625.362 27.9387 625.329 27.9522C625.301 27.9629 625.276 27.9737 625.249 27.9845C625.174 28.0115 625.102 28.0384 625.028 28.0627C625.017 28.0654 625.006 28.0681 624.995 28.0735C624.951 28.087 624.906 28.0977 624.862 28.1112C624.851 28.1139 624.837 28.1193 624.826 28.122C624.68 28.1597 624.537 28.1894 624.401 28.211C624.399 28.211 624.396 28.211 624.393 28.211C624.324 28.2217 624.258 28.2298 624.194 28.2379C624.169 28.2406 624.147 28.2433 624.123 28.2433C624.1 28.246 624.078 28.246 624.054 28.2487C624.001 28.2514 623.946 28.2541 623.896 28.2541C623.794 28.2541 623.695 28.2514 623.598 28.246C623.56 28.246 623.521 28.2433 623.482 28.2406C623.43 28.2352 623.375 28.2325 623.325 28.2271C623.278 28.2244 623.228 28.2191 623.184 28.2137C623.143 28.2083 623.104 28.2029 623.066 28.1975C622.98 28.184 622.9 28.1732 622.82 28.157C622.784 28.149 622.745 28.1436 622.71 28.1355C622.668 28.1247 622.627 28.1166 622.585 28.1058C622.538 28.095 622.494 28.0843 622.45 28.0708C622.42 28.0627 622.387 28.0546 622.359 28.0465C622.284 28.0249 622.21 28.0007 622.138 27.9737C622.122 27.9683 622.105 27.9629 622.089 27.9576C621.928 27.8982 621.771 27.8335 621.617 27.7581C621.611 27.7554 621.603 27.75 621.595 27.7473C621.495 27.6987 621.327 27.6071 621.167 27.5181C621.153 27.51 621.136 27.5019 621.123 27.4939C621.009 27.4292 620.913 27.3752 620.822 27.3321C620.813 27.3267 620.808 27.324 620.802 27.3213C620.797 27.3186 620.791 27.3159 620.789 27.3159C620.764 27.3051 620.744 27.2944 620.722 27.2863C620.714 27.2836 620.709 27.2809 620.703 27.2782C620.645 27.2566 620.593 27.2404 620.54 27.235C620.524 27.2324 620.507 27.2324 620.491 27.2324C620.485 27.2297 620.48 27.2297 620.474 27.2297C620.369 27.2297 620.278 27.2647 620.192 27.3429C620.173 27.3591 620.157 27.3752 620.14 27.3941C620.137 27.3995 620.132 27.4049 620.126 27.4103C620.115 27.4238 620.107 27.4345 620.099 27.4453C620.093 27.4534 620.088 27.4615 620.085 27.4669C620.077 27.4777 620.068 27.4885 620.063 27.4992C620.057 27.5073 620.054 27.5154 620.052 27.5235C620.046 27.5343 620.041 27.5451 620.035 27.5559C620.032 27.5639 620.03 27.5693 620.027 27.5774C620.021 27.5909 620.019 27.6017 620.016 27.6125C620.013 27.6206 620.01 27.626 620.01 27.634C620.008 27.6475 620.005 27.661 620.002 27.6745C620.002 27.6799 619.999 27.6853 619.999 27.6907C619.997 27.7095 619.997 27.7257 619.997 27.7419C619.997 27.7446 619.997 27.7473 619.997 27.75C619.997 27.7715 619.999 27.7904 620.005 27.812C620.005 27.8147 620.005 27.8201 620.005 27.8228C620.01 27.8389 620.013 27.8578 620.019 27.874C620.021 27.8821 620.024 27.8902 620.027 27.8982C620.032 27.9117 620.035 27.9279 620.043 27.9414C620.046 27.9495 620.049 27.9549 620.052 27.9602C620.088 28.0411 620.146 28.1247 620.22 28.2056C620.3 28.2918 620.402 28.3781 620.521 28.4671C620.524 28.4671 620.524 28.4671 620.524 28.4698C620.557 28.4913 620.59 28.5156 620.626 28.5399C620.634 28.5453 620.64 28.5506 620.648 28.5533C620.744 28.618 620.847 28.6801 620.963 28.7448C620.99 28.7609 621.018 28.7771 621.045 28.7906C621.073 28.8068 621.1 28.8202 621.128 28.8337C621.161 28.8526 621.2 28.8715 621.236 28.8903C621.261 28.9011 621.283 28.9146 621.307 28.9254C621.363 28.9523 621.421 28.9793 621.479 29.0063C621.487 29.0116 621.492 29.0143 621.501 29.017C621.564 29.0467 621.628 29.0737 621.691 29.0979C621.719 29.1087 621.744 29.1195 621.771 29.1303C621.777 29.133 621.782 29.1357 621.788 29.1357C622.378 29.3621 623.107 29.5131 623.75 29.54C623.797 29.5427 623.847 29.5454 623.893 29.5454H623.896C623.918 29.5454 623.938 29.5454 623.96 29.5427C624.009 29.5427 624.059 29.5427 624.109 29.5427C624.114 29.5427 624.12 29.5427 624.125 29.54C625.171 29.5077 626.03 29.2435 626.761 28.7205C626.761 28.7178 626.761 28.7178 626.761 28.7178C627.572 28.1193 628.02 27.2755 628.02 26.3454C628.02 26.2861 628.017 26.2268 628.014 26.1702C628.014 26.1486 628.011 26.127 628.011 26.1082Z" fill="#29B5E8"/>
<path d="M634.759 18.3738C634.756 18.3738 634.753 18.3738 634.751 18.3738C633.465 18.3738 632.25 18.886 631.373 19.7918V19.0208C631.373 18.6649 631.091 18.3738 630.735 18.3738C630.71 18.3738 630.688 18.3765 630.666 18.3765C630.509 18.3927 630.371 18.46 630.269 18.5598C630.266 18.5598 630.266 18.5598 630.263 18.5625C630.255 18.5733 630.244 18.5841 630.236 18.5948C630.23 18.5975 630.225 18.6029 630.222 18.6083C630.213 18.6164 630.208 18.6245 630.202 18.6326C630.197 18.6407 630.191 18.6488 630.183 18.6568C630.18 18.6622 630.178 18.6676 630.175 18.673C630.167 18.6865 630.158 18.7 630.15 18.7108C630.15 18.7135 630.15 18.7162 630.147 18.7189C630.139 18.735 630.131 18.7512 630.122 18.7674C630.109 18.8078 630.095 18.8483 630.087 18.8887C630.087 18.8914 630.087 18.8941 630.084 18.8941C630.081 18.9157 630.078 18.9345 630.075 18.9534C630.075 18.975 630.073 18.9965 630.073 19.0208V29.0334L630.064 29.0765L630.098 29.1035C630.098 29.117 630.1 29.1358 630.109 29.1547C630.109 29.1574 630.111 29.1628 630.111 29.1655C630.117 29.179 630.125 29.1951 630.139 29.2086C630.225 29.3677 630.382 29.489 630.567 29.5429L630.581 29.5456H630.735C630.76 29.5456 630.785 29.5456 630.81 29.5429C630.826 29.5402 630.843 29.5348 630.859 29.5321C630.868 29.5321 630.873 29.5321 630.881 29.5294C630.903 29.524 630.926 29.5186 630.948 29.5106C630.948 29.5106 630.948 29.5106 630.95 29.5106C631.066 29.4701 631.166 29.4 631.232 29.3057C631.235 29.303 631.237 29.3003 631.24 29.2976C631.284 29.2517 631.309 29.2032 631.334 29.1358C631.337 29.1277 631.34 29.1223 631.34 29.1169C631.342 29.1143 631.342 29.1143 631.342 29.1116C631.353 29.0792 631.362 29.0469 631.37 29.0145L631.373 29.0037V22.9433C631.417 21.1371 632.929 19.6678 634.745 19.6651C634.748 19.6651 634.748 19.6651 634.751 19.6651C636.6 19.6651 638.104 21.1344 638.104 22.9406V28.8986C638.104 28.9228 638.107 28.9444 638.11 28.966C638.123 29.1223 638.192 29.2571 638.294 29.3569C638.294 29.3569 638.297 29.3569 638.297 29.3596C638.308 29.3704 638.319 29.3785 638.33 29.3892C638.336 29.3946 638.339 29.3973 638.344 29.4C638.352 29.4081 638.361 29.4135 638.369 29.4189C638.377 29.427 638.385 29.4324 638.394 29.4378C638.402 29.4405 638.408 29.4432 638.413 29.4485C638.424 29.4566 638.438 29.462 638.449 29.4701C638.452 29.4701 638.454 29.4728 638.46 29.4728C638.474 29.4809 638.49 29.489 638.507 29.4971H638.51C638.548 29.5132 638.59 29.524 638.631 29.5321C638.637 29.5321 638.639 29.5348 638.642 29.5348C638.661 29.5375 638.678 29.5402 638.697 29.5429C638.719 29.5456 638.742 29.5456 638.766 29.5456C638.788 29.5456 638.811 29.5456 638.833 29.5429C638.852 29.5402 638.871 29.5375 638.888 29.5348C638.891 29.5348 638.896 29.5321 638.899 29.5321C638.943 29.524 638.982 29.5132 639.023 29.4971C639.04 29.489 639.056 29.4809 639.073 29.4728C639.075 29.4728 639.078 29.4701 639.081 29.4701C639.095 29.462 639.106 29.4566 639.12 29.4485C639.125 29.4432 639.131 29.4405 639.136 29.4378C639.144 29.4324 639.153 29.427 639.161 29.4189C639.169 29.4135 639.18 29.4081 639.189 29.4C639.191 29.3973 639.197 29.3946 639.2 29.3892C639.211 29.3785 639.224 29.3704 639.236 29.3596C639.236 29.3569 639.236 29.3569 639.236 29.3569C639.34 29.2571 639.409 29.1223 639.423 28.966C639.426 28.9444 639.426 28.9228 639.426 28.8986V22.9406C639.426 20.4254 637.334 18.3792 634.759 18.3738Z" fill="#29B5E8"/>
<path d="M646.665 18.3521C649.662 18.3521 652.099 20.8619 652.099 23.9487C652.099 27.0356 649.662 29.5454 646.665 29.5454C646.571 29.5454 646.48 29.5427 646.389 29.5373C646.375 29.5373 646.364 29.5373 646.351 29.5347C646.27 29.532 646.19 29.5239 646.113 29.5158C646.11 29.5158 646.108 29.5158 646.105 29.5158C644.921 29.3891 643.814 28.8607 642.934 27.9953C642.898 27.9602 642.859 27.9252 642.826 27.8875C642.823 27.8875 642.823 27.8848 642.821 27.8848C642.801 27.8659 642.785 27.8443 642.765 27.8228C642.724 27.7796 642.683 27.7338 642.641 27.688C642.608 27.6529 642.578 27.6125 642.545 27.5747C642.523 27.5451 642.498 27.5154 642.473 27.4858C642.423 27.4265 642.376 27.3645 642.332 27.3024C642.327 27.2944 642.321 27.2863 642.316 27.2782C641.777 26.5422 641.427 25.693 641.294 24.7926C641.281 24.709 641.272 24.6254 641.264 24.5418C641.261 24.5338 641.261 24.523 641.259 24.5122C641.25 24.434 641.245 24.3585 641.242 24.2803C641.239 24.2642 641.239 24.248 641.239 24.2291C641.234 24.1375 641.231 24.0431 641.231 23.9487C641.231 23.8544 641.234 23.76 641.239 23.6684C641.239 23.6495 641.239 23.6333 641.242 23.6171C641.245 23.539 641.25 23.4608 641.259 23.3853C641.261 23.3745 641.261 23.3637 641.264 23.3556C641.272 23.2721 641.281 23.1885 641.294 23.1049C641.427 22.2045 641.777 21.3553 642.316 20.6193C642.318 20.6112 642.324 20.6031 642.329 20.5977C642.376 20.533 642.423 20.471 642.473 20.409C642.495 20.3821 642.52 20.3551 642.542 20.3255C642.575 20.285 642.608 20.2473 642.641 20.2068C642.68 20.1637 642.719 20.1233 642.76 20.0801C642.779 20.0586 642.801 20.0343 642.821 20.0127C642.823 20.0127 642.823 20.01 642.826 20.01C642.857 19.975 642.892 19.9426 642.926 19.9103C643.806 19.0422 644.915 18.5084 646.105 18.3817C646.108 18.3817 646.11 18.3817 646.113 18.3817C646.19 18.3736 646.27 18.3682 646.351 18.3628C646.364 18.3628 646.375 18.3601 646.389 18.3601C646.48 18.3547 646.571 18.3521 646.665 18.3521ZM650.755 23.5093C650.755 23.5066 650.755 23.5066 650.755 23.5039C650.659 22.5334 650.25 21.6572 649.64 20.9806C649.613 20.9509 649.588 20.9212 649.56 20.8916C649.544 20.8754 649.527 20.8592 649.511 20.8431C649.477 20.8107 649.447 20.7784 649.414 20.746C649.384 20.7164 649.351 20.6894 649.32 20.6624C649.301 20.6463 649.284 20.6274 649.265 20.6112C649.215 20.5681 649.166 20.5276 649.116 20.4872C649.116 20.4872 649.113 20.4872 649.113 20.4845C648.536 20.0289 647.844 19.7297 647.098 19.6461C647.09 19.6461 647.085 19.6434 647.079 19.6434C647.021 19.6353 646.966 19.6326 646.908 19.6299C646.894 19.6272 646.883 19.6272 646.872 19.6272C646.803 19.6218 646.734 19.6218 646.665 19.6218C646.596 19.6218 646.527 19.6218 646.458 19.6272C646.447 19.6272 646.436 19.6272 646.422 19.6299C646.364 19.6326 646.309 19.6353 646.251 19.6434C646.246 19.6434 646.24 19.6461 646.232 19.6461C645.487 19.7297 644.794 20.0289 644.217 20.4845C644.217 20.4872 644.214 20.4872 644.214 20.4872C644.165 20.5276 644.115 20.5681 644.065 20.6112C644.046 20.6274 644.029 20.6436 644.01 20.6597C643.98 20.6894 643.947 20.7164 643.916 20.746C643.886 20.7757 643.856 20.808 643.822 20.8404C643.806 20.8565 643.789 20.8727 643.77 20.8916C643.745 20.9185 643.72 20.9482 643.693 20.9779C643.083 21.6545 642.672 22.5334 642.575 23.5039C642.575 23.5066 642.575 23.5066 642.575 23.5093C642.569 23.5713 642.564 23.6333 642.561 23.698C642.561 23.7088 642.558 23.7196 642.558 23.7304C642.556 23.8032 642.553 23.876 642.553 23.9487C642.553 26.3184 644.419 28.2541 646.665 28.2541C648.912 28.2541 650.777 26.3184 650.777 23.9487C650.777 23.876 650.775 23.8032 650.772 23.7304C650.772 23.7196 650.769 23.7088 650.769 23.698C650.766 23.6333 650.761 23.5713 650.755 23.5093Z" fill="#29B5E8"/>
<path d="M668.071 18.6298C668.066 18.6244 668.063 18.619 668.057 18.6136C667.991 18.5327 667.903 18.468 667.804 18.4276C667.804 18.4276 667.804 18.4276 667.801 18.4276C667.79 18.4195 667.776 18.4168 667.765 18.4114C667.759 18.4114 667.754 18.4087 667.746 18.406C667.657 18.3763 667.561 18.371 667.467 18.3844H667.464C667.274 18.4141 667.091 18.5273 666.989 18.6945C666.989 18.6945 666.989 18.6945 666.987 18.6945C666.973 18.7214 666.956 18.7484 666.945 18.7753L666.942 18.778V18.7807L663.78 27.2378L661.296 21.4632C661.271 21.4092 661.238 21.3607 661.199 21.3149C661.064 21.1612 660.857 21.0642 660.644 21.0642C660.611 21.0642 660.581 21.0642 660.548 21.0722C660.545 21.0722 660.542 21.0722 660.537 21.0722C660.316 21.11 660.109 21.261 660.015 21.4632C660.015 21.4659 660.015 21.4659 660.015 21.4659L657.531 27.2405L656.328 24.0458L654.346 18.7807C654.335 18.7511 654.324 18.7268 654.31 18.6999C654.308 18.6972 654.308 18.6972 654.305 18.6945C654.244 18.5839 654.148 18.4977 654.032 18.4437C654.032 18.4437 654.029 18.4437 654.029 18.441C653.971 18.4168 653.91 18.3979 653.847 18.3871C653.841 18.3871 653.839 18.3871 653.833 18.3844C653.803 18.3817 653.77 18.379 653.739 18.379H653.736C653.728 18.379 653.723 18.379 653.717 18.379C653.703 18.379 653.689 18.379 653.676 18.3817C653.667 18.3817 653.656 18.3844 653.648 18.3844C653.634 18.3871 653.623 18.3871 653.612 18.3898C653.604 18.3925 653.596 18.3925 653.587 18.3952C653.574 18.3979 653.56 18.4006 653.546 18.406C653.54 18.4087 653.535 18.4087 653.529 18.4114C653.516 18.4168 653.502 18.4195 653.488 18.4276C653.488 18.4276 653.488 18.4276 653.485 18.4276C653.372 18.4761 653.281 18.5597 653.215 18.6567C653.212 18.6621 653.209 18.6648 653.207 18.6702C653.204 18.6756 653.201 18.681 653.198 18.6864C653.149 18.7673 653.118 18.8616 653.107 18.956C653.096 19.0557 653.11 19.1609 653.151 19.2579L655.445 25.2779L656.916 29.1384C656.916 29.1384 656.916 29.1384 656.916 29.1411C656.977 29.2867 657.065 29.3864 657.186 29.4403C657.189 29.443 657.195 29.4457 657.197 29.4484C657.2 29.4511 657.203 29.4538 657.208 29.4565C657.208 29.4592 657.211 29.4592 657.214 29.4619C657.219 29.4646 657.222 29.4673 657.228 29.4727C657.23 29.4727 657.23 29.4727 657.233 29.4727C657.255 29.4862 657.283 29.4969 657.319 29.4996C657.322 29.4996 657.324 29.5023 657.327 29.5023C657.338 29.505 657.349 29.5104 657.36 29.5131C657.366 29.5131 657.371 29.5158 657.377 29.5158C657.446 29.5374 657.49 29.5455 657.545 29.5455C657.575 29.5455 657.603 29.5428 657.633 29.5374C657.655 29.5347 657.68 29.5293 657.702 29.5212C657.708 29.5185 657.713 29.5185 657.719 29.5158C657.741 29.5104 657.763 29.5023 657.785 29.4916C657.793 29.4889 657.802 29.4862 657.81 29.4808C657.824 29.4727 657.84 29.4646 657.857 29.4565C657.868 29.4484 657.882 29.4403 657.896 29.4322C657.904 29.4268 657.912 29.4188 657.92 29.4134C657.94 29.3999 657.956 29.3864 657.976 29.3702C657.978 29.3675 657.981 29.3648 657.984 29.3595C658.003 29.3406 658.023 29.3217 658.042 29.3001C658.042 29.2974 658.045 29.2948 658.047 29.2921C658.064 29.2705 658.08 29.2462 658.094 29.222C658.108 29.195 658.122 29.1653 658.133 29.1357L658.136 29.1276L658.144 29.1168L658.152 29.0979L660.644 23.2856L663.159 29.1195C663.178 29.1788 663.208 29.2327 663.25 29.284C663.255 29.2921 663.261 29.2974 663.266 29.3055C663.28 29.3217 663.294 29.3379 663.31 29.3541C663.319 29.3595 663.327 29.3675 663.335 29.3729C663.349 29.3864 663.366 29.3999 663.382 29.4134C663.39 29.4188 663.396 29.4242 663.404 29.4268C663.424 29.4403 663.443 29.4538 663.462 29.4646C663.468 29.4673 663.473 29.47 663.479 29.4727C663.501 29.4835 663.52 29.4942 663.545 29.5023C663.551 29.505 663.556 29.5077 663.564 29.5077C663.584 29.5158 663.603 29.5239 663.625 29.5293C663.653 29.5347 663.68 29.5401 663.705 29.5455H663.788C663.821 29.5455 663.851 29.5428 663.882 29.5374C663.89 29.5374 663.896 29.5374 663.904 29.5347C663.931 29.5293 663.956 29.5239 663.981 29.5158C663.989 29.5131 663.995 29.5104 664 29.5077C664.028 29.4996 664.056 29.4862 664.08 29.4727C664.083 29.4727 664.086 29.47 664.089 29.47C664.119 29.4511 664.149 29.4322 664.174 29.4134C664.285 29.3325 664.365 29.2274 664.42 29.0979V29.0953L665.974 25.0083L668.16 19.2579C668.245 19.0557 668.212 18.8346 668.093 18.6621C668.088 18.6513 668.08 18.6405 668.071 18.6298Z" fill="#29B5E8"/>
<path d="M703.168 18.8104C703.168 18.7996 703.165 18.7861 703.163 18.7753C703.163 18.7672 703.16 18.7591 703.157 18.751C703.154 18.7376 703.152 18.7241 703.149 18.7133C703.146 18.7052 703.143 18.6971 703.141 18.6917C703.138 18.6756 703.132 18.6621 703.124 18.6486C703.124 18.6432 703.121 18.6405 703.119 18.6351C703.11 18.6163 703.102 18.6001 703.091 18.5839C703.091 18.5812 703.091 18.5812 703.091 18.5812C703.058 18.5246 703.016 18.4761 702.97 18.4329C702.967 18.4302 702.967 18.4302 702.967 18.4302C702.964 18.4275 702.964 18.4275 702.964 18.4275C702.729 18.1984 702.398 18.1687 702.139 18.3467C702.131 18.3521 702.125 18.3574 702.117 18.3601C702.106 18.3682 702.095 18.3763 702.084 18.3844C702.067 18.4006 702.05 18.4141 702.034 18.4302C702.034 18.4302 702.031 18.4302 702.031 18.4329L695.565 24.5904V14.292C695.565 14.2705 695.565 14.2489 695.562 14.2273C695.537 13.9901 695.374 13.7933 695.154 13.7016C695.151 13.7016 695.151 13.6989 695.148 13.6989C695.134 13.6935 695.12 13.6881 695.107 13.6854C695.101 13.6828 695.093 13.6801 695.085 13.6774C695.074 13.6747 695.062 13.672 695.049 13.6693C695.04 13.6666 695.029 13.6639 695.018 13.6612C695.007 13.6585 694.993 13.6558 694.982 13.6558C694.971 13.6531 694.963 13.6531 694.952 13.6504C694.927 13.6477 694.905 13.6477 694.883 13.6477C694.522 13.6477 694.221 13.9416 694.221 14.292V28.8984C694.221 29.2516 694.522 29.5454 694.883 29.5454C694.905 29.5454 694.93 29.5454 694.952 29.5427C694.955 29.5427 694.958 29.54 694.963 29.54C694.982 29.5374 695.002 29.5374 695.018 29.532C695.024 29.532 695.029 29.5293 695.035 29.5293C695.051 29.5239 695.068 29.5212 695.085 29.5158C695.087 29.5158 695.09 29.5131 695.093 29.5131C695.347 29.4349 695.534 29.2219 695.562 28.9658C695.565 28.9443 695.565 28.9227 695.565 28.8984V26.4344L697.742 24.31L701.973 29.2974C702.001 29.3406 702.031 29.3783 702.07 29.4079C702.078 29.416 702.084 29.4214 702.092 29.4268C702.103 29.4349 702.114 29.443 702.125 29.4484C702.139 29.4592 702.153 29.4646 702.166 29.4727C702.172 29.4753 702.18 29.4807 702.186 29.4834C702.205 29.4915 702.222 29.4969 702.241 29.505C702.246 29.5077 702.252 29.5077 702.255 29.5104C702.277 29.5158 702.296 29.5212 702.318 29.5266C702.321 29.5266 702.326 29.5293 702.332 29.5293C702.354 29.5347 702.373 29.5374 702.398 29.54C702.404 29.54 702.409 29.54 702.415 29.5427C702.442 29.5427 702.47 29.5454 702.5 29.5454C702.544 29.5454 702.586 29.5427 702.625 29.5374C702.627 29.5374 702.627 29.5374 702.627 29.5374C702.705 29.5266 702.776 29.5023 702.843 29.47C702.845 29.47 702.845 29.4673 702.845 29.4673C702.876 29.4511 702.906 29.4322 702.936 29.4106L702.945 29.4026C703.196 29.1572 703.234 28.8229 703.052 28.5453C703.036 28.521 703.019 28.4967 703 28.4725L698.703 23.3745L702.97 19.3468C703.083 19.2336 703.152 19.0961 703.168 18.9478C703.168 18.9452 703.168 18.9425 703.171 18.9398C703.171 18.9263 703.171 18.9101 703.171 18.8966C703.171 18.8885 703.174 18.8805 703.174 18.8751C703.174 18.8697 703.174 18.867 703.174 18.8643C703.174 18.8535 703.171 18.8454 703.171 18.8346C703.171 18.8265 703.168 18.8184 703.168 18.8104Z" fill="#29B5E8"/>
<path d="M769.068 32.3408C768.523 32.342 767.987 32.1981 767.516 31.9238C767.044 31.6495 766.654 31.2546 766.384 30.7795C766.119 30.3078 765.986 29.7725 766.001 29.2311C766.016 28.6898 766.177 28.1626 766.468 27.7062L771.996 19.0052C772.279 18.5375 772.681 18.1536 773.16 17.8924C773.64 17.6313 774.18 17.5025 774.725 17.519C775.27 17.5321 775.802 17.6901 776.266 17.9768C776.73 18.2635 777.11 18.6686 777.366 19.1507C777.882 20.1274 777.817 21.3025 777.2 22.2193L771.675 30.9204C771.395 31.3579 771.009 31.7175 770.554 31.9659C770.098 32.2142 769.587 32.3431 769.068 32.3408V32.3408Z" fill="#F62B54"/>
<path d="M778.551 32.3407C777.436 32.3407 776.41 31.7431 775.871 30.7829C775.606 30.3124 775.474 29.7786 775.489 29.2386C775.504 28.6987 775.665 28.1729 775.955 27.7178L781.473 19.0367C781.752 18.5625 782.152 18.1717 782.632 17.9048C783.112 17.6379 783.655 17.5046 784.204 17.5189C785.328 17.5435 786.347 18.1739 786.863 19.16C787.374 20.1461 787.299 21.3282 786.663 22.2427L781.147 30.9238C780.868 31.3595 780.484 31.7177 780.03 31.9653C779.576 32.2129 779.067 32.342 778.551 32.3407V32.3407Z" fill="#FFCC00"/>
<path d="M787.821 32.4134C789.392 32.4134 790.667 31.163 790.667 29.6206C790.667 28.0782 789.392 26.8279 787.821 26.8279C786.249 26.8279 784.975 28.0782 784.975 29.6206C784.975 31.163 786.249 32.4134 787.821 32.4134Z" fill="#00CA72"/>
<path d="M911.458 26.99C912.318 26.99 912.832 27.6028 912.832 28.6065V32.046H914V28.5278C914 26.821 913.197 25.8314 911.689 25.8314C911.099 25.8314 910.162 25.9934 909.603 27.0816C909.473 26.7606 909.259 26.4809 908.983 26.2721C908.708 26.0633 908.381 25.9333 908.037 25.8959C907.821 25.8562 907.601 25.8432 907.381 25.8572C906.901 25.8959 906.046 26.1953 905.726 26.8738V25.9617H904.558V32.046H905.726V28.7626C905.726 27.4854 906.56 26.99 907.395 26.99C908.178 26.99 908.692 27.5899 908.692 28.5936V32.046H909.854V28.7626C909.854 27.746 910.463 26.9783 911.458 26.99ZM900.268 31.0294C900.802 31.0412 901.317 30.8275 901.691 30.4401C902.065 30.0527 902.264 29.5257 902.245 28.9845C902.245 27.7589 901.345 26.99 900.268 26.99C899.189 26.99 898.291 27.7589 898.291 28.9845C898.269 29.5245 898.469 30.0504 898.841 30.4366C899.213 30.824 899.726 31.0388 900.258 31.0294H900.268ZM900.268 32.1705C898.56 32.1705 897.135 30.9062 897.135 28.9774C897.135 27.0487 898.56 25.8243 900.268 25.8243C901.975 25.8243 903.412 27.0487 903.412 28.9774C903.412 30.9062 901.967 32.1763 900.259 32.1763L900.268 32.1705ZM891.121 28.9774L891.109 28.9845C891.109 27.0557 892.572 25.8314 894.291 25.8243C894.723 25.8159 895.152 25.8985 895.55 26.0668C895.948 26.235 896.306 26.4852 896.602 26.801L895.716 27.557C895.528 27.3719 895.305 27.226 895.061 27.1277C894.816 27.0293 894.555 26.9805 894.291 26.9841C893.213 26.9841 892.276 27.753 892.276 28.9774C892.276 29.805 892.767 30.5505 893.52 30.8674C894.273 31.1844 895.14 31.0083 895.716 30.4237L896.615 31.1797C896.318 31.4988 895.958 31.7519 895.558 31.9226C895.158 32.0932 894.726 32.1777 894.291 32.1705C892.585 32.1705 891.121 30.9062 891.121 28.9774ZM887.381 30.878C887.38 30.7716 887.399 30.6661 887.439 30.5673C887.478 30.4686 887.537 30.3786 887.611 30.3025C887.685 30.2264 887.774 30.1657 887.871 30.1238C887.969 30.082 888.074 30.0598 888.18 30.0586C888.286 30.0598 888.391 30.082 888.488 30.1238C888.586 30.1657 888.674 30.2264 888.748 30.3025C888.823 30.3786 888.881 30.4686 888.921 30.5673C888.96 30.6661 888.98 30.7716 888.978 30.878C888.968 31.084 888.88 31.2783 888.731 31.4212C888.583 31.564 888.385 31.6448 888.18 31.6469C887.974 31.6448 887.777 31.564 887.628 31.4212C887.48 31.2783 887.391 31.084 887.381 30.878Z" fill="#333333"/>
<path fill-rule="evenodd" clip-rule="evenodd" d="M890.576 18.2266H886.417L883.502 25.7596L880.602 18.2266H876.444L881.5 30.1301L878.355 38H882.483L890.576 18.2266ZM865.283 24.8475C865.283 26.7492 866.942 28.0006 868.571 28.0006C870.172 28.0006 871.745 26.8361 871.745 24.8463C871.745 22.8565 870.172 21.6908 868.571 21.6908C866.942 21.6908 865.283 22.9434 865.283 24.8463V24.8475ZM871.745 31.4942V29.988C870.901 31.2676 868.934 31.7512 867.924 31.7512C864.582 31.7512 861.238 29.1099 861.238 24.8463C861.238 20.5838 864.581 17.9425 867.924 17.9425C868.766 17.9425 870.734 18.2243 871.745 19.7034V18.2313H875.621V31.4965L871.745 31.4953V31.4942ZM860.135 31.4942H856.258V29.846C855.61 31.0669 854.04 31.7783 852.409 31.7783C849.038 31.7783 846.059 29.0794 846.059 24.9003C846.059 20.6425 849.038 17.9402 852.409 17.9402C854.037 17.9402 855.613 18.621 856.258 19.8431V11H860.135V31.4942ZM856.174 24.8169C856.174 22.8283 854.741 21.6626 853.14 21.6626C851.482 21.6626 850.105 22.9129 850.105 24.8169C850.105 26.7821 851.482 28.0264 853.139 28.0264C854.771 28.0288 856.174 26.721 856.174 24.8169V24.8169ZM836.474 24.4742C836.474 22.4574 837.514 21.7753 838.89 21.7753C840.21 21.7753 841.166 22.6558 841.166 24.4166V31.4918H845.071V23.5656C845.071 19.7879 843.216 17.9402 840.265 17.9402C838.721 17.9402 837.176 18.8206 836.473 20.1565V18.2266H832.571V31.4918H836.474V24.4742ZM824.642 31.7196C820.934 31.7196 817.841 28.9926 817.841 24.8158C817.841 20.6366 820.93 17.9366 824.642 17.9366C828.353 17.9366 831.47 20.6366 831.47 24.8158C831.47 28.9949 828.35 31.7207 824.642 31.7207V31.7196ZM824.642 27.8574C826.27 27.8574 827.62 26.6623 827.62 24.8169C827.62 23.0267 826.271 21.8047 824.642 21.8047C824.249 21.7985 823.86 21.8725 823.497 22.022C823.134 22.1716 822.806 22.3936 822.531 22.6746C822.255 22.957 822.039 23.2922 821.894 23.6603C821.75 24.0283 821.681 24.4217 821.691 24.8169C821.693 26.6647 823.041 27.8574 824.642 27.8574ZM810.84 21.7765C811.992 21.7765 813.004 22.6863 813.004 24.4178V31.4942H816.88V23.96C816.88 19.9546 814.937 17.9378 811.823 17.9378C810.898 17.9378 809.155 18.2196 807.89 20.295C807.159 18.7607 805.755 17.9648 803.68 17.9648C802.959 17.9611 802.253 18.1656 801.645 18.5536C801.037 18.9416 800.554 19.4969 800.253 20.153V18.2278H796.346V31.493H800.249V24.4742C800.249 22.4574 801.346 21.7753 802.525 21.7753C803.649 21.7753 804.659 22.6558 804.688 24.3321V31.493H808.593V24.4742C808.593 22.5454 809.605 21.7777 810.84 21.7777V21.7765Z" fill="#333333"/>
<path d="M1039.42 16.9302L1046.38 14.3256L1039.42 11.6465V8L1051.35 12.8372V15.814L1039.42 20.6512V16.9302Z" fill="#A100FF"/>
<path d="M973.591 40C971.073 40 969 38.7349 969 35.9069V35.7581C969 32.3348 971.962 31.1441 975.591 31.1441H977.294V30.4744C977.294 29.0604 976.701 28.2418 975.22 28.2418C973.887 28.2418 973.221 28.986 973.147 30.0279H969.444C969.741 26.9023 972.184 25.4139 975.442 25.4139C978.775 25.4139 981.218 26.8279 981.218 30.3255V39.7023H977.442V38.0651C976.701 39.1069 975.442 40 973.591 40ZM977.294 35.0883V33.7488H975.739C973.813 33.7488 972.851 34.2697 972.851 35.5348V35.6837C972.851 36.6511 973.443 37.3209 974.776 37.3209C976.109 37.2465 977.294 36.5023 977.294 35.0883ZM990.031 40C986.18 40 983.366 37.6186 983.366 32.8558V32.6325C983.366 27.8697 986.328 25.3395 990.031 25.3395C993.215 25.3395 995.807 26.9767 996.103 30.6232H992.4C992.178 29.2837 991.438 28.3907 990.105 28.3907C988.476 28.3907 987.291 29.7302 987.291 32.4837V32.9302C987.291 35.7581 988.327 37.0232 990.105 37.0232C991.438 37.0232 992.4 36.0558 992.622 34.493H996.177C995.955 37.7674 993.807 40 990.031 40ZM1004.54 40C1000.69 40 997.88 37.6186 997.88 32.8558V32.6325C997.88 27.8697 1000.84 25.3395 1004.54 25.3395C1007.73 25.3395 1010.32 26.9767 1010.62 30.6232H1006.91C1006.69 29.2837 1005.95 28.3907 1004.62 28.3907C1002.99 28.3907 1001.8 29.7302 1001.8 32.4837V32.9302C1001.8 35.7581 1002.84 37.0232 1004.62 37.0232C1005.95 37.0232 1006.91 36.0558 1007.14 34.493H1010.69C1010.47 37.7674 1008.32 40 1004.54 40ZM1019.13 40C1015.13 40 1012.39 37.6186 1012.39 32.9302V32.6325C1012.39 27.9441 1015.28 25.3395 1019.06 25.3395C1022.54 25.3395 1025.43 27.2744 1025.43 31.9628V33.6744H1016.32C1016.47 36.2046 1017.58 37.1721 1019.21 37.1721C1020.69 37.1721 1021.5 36.3535 1021.8 35.386H1025.43C1024.98 37.9907 1022.76 40 1019.13 40ZM1016.39 31.0697H1021.58C1021.5 28.986 1020.54 28.093 1018.98 28.093C1017.8 28.1674 1016.69 28.8372 1016.39 31.0697ZM1027.8 25.7116H1031.72V27.7953C1032.39 26.4558 1033.79 25.4139 1035.94 25.4139C1038.46 25.4139 1040.16 26.9767 1040.16 30.3255V39.7023H1036.24V30.9209C1036.24 29.2837 1035.57 28.5395 1034.17 28.5395C1032.83 28.5395 1031.72 29.3581 1031.72 31.1441V39.7023H1027.8V25.7116V25.7116ZM1047.35 21.4697V25.7116H1050.01V28.6139H1047.35V35.2372C1047.35 36.279 1047.79 36.8 1048.75 36.8C1049.35 36.8 1049.72 36.7255 1050.09 36.5767V39.6279C1049.64 39.7767 1048.83 39.9256 1047.86 39.9256C1044.83 39.9256 1043.42 38.5116 1043.42 35.6837V28.6139H1041.79V25.7116H1043.42V23.1069L1047.35 21.4697ZM1064.67 39.7023H1060.82V37.6186C1060.16 38.9581 1058.82 40 1056.75 40C1054.23 40 1052.38 38.4372 1052.38 35.1628V25.7116H1056.31V34.6418C1056.31 36.279 1056.97 37.0232 1058.31 37.0232C1059.64 37.0232 1060.75 36.1302 1060.75 34.4186V25.7116H1064.67V39.7023ZM1067.56 25.7116H1071.49V28.3162C1072.3 26.4558 1073.63 25.5628 1075.71 25.5628V29.4325C1073.04 29.4325 1071.49 30.2511 1071.49 32.5581V39.7767H1067.56V25.7116ZM1083.63 40C1079.63 40 1076.89 37.6186 1076.89 32.9302V32.6325C1076.89 27.9441 1079.78 25.3395 1083.56 25.3395C1087.04 25.3395 1089.93 27.2744 1089.93 31.9628V33.6744H1080.89C1081.04 36.2046 1082.15 37.1721 1083.78 37.1721C1085.26 37.1721 1086.08 36.3535 1086.37 35.386H1090C1089.41 37.9907 1087.26 40 1083.63 40ZM1080.82 31.0697H1086.08C1086 28.986 1085.04 28.093 1083.48 28.093C1082.3 28.1674 1081.19 28.8372 1080.82 31.0697Z" fill="black"/>
<path d="M1220.58 25.2307C1222.84 25.2307 1224.06 24.2271 1224.79 23.0814L1224.75 23.2557C1224.54 24.33 1225.43 24.9879 1226.27 24.9879H1227L1229.03 13.45H1226.52L1226.18 15.2093C1225.73 14.3007 1224.45 13.21 1222.39 13.21C1218.74 13.21 1216.58 16.2193 1216.22 19.4243C1215.8 23.0886 1218.17 25.2307 1220.58 25.2307H1220.58ZM1222.75 15.0914C1226.95 15.325 1225.58 23.3679 1221.31 23.1307C1217.45 22.915 1218.65 14.8621 1222.75 15.0914V15.0914ZM1188.17 12.67C1188.17 10.0607 1186.5 8.84571 1183.56 8.84571C1181.75 8.84571 1178.91 8.84071 1177.87 8.84071L1175 24.9879L1180.21 24.9857C1181.4 24.9857 1182.53 24.9471 1183.17 24.8129C1186.09 24.1943 1187.28 22.0664 1187.52 20.5057C1187.84 18.3436 1186.48 16.9143 1184.93 16.5679C1186.09 16.3164 1188.17 15.1164 1188.17 12.67V12.67ZM1182.06 23.0057C1181.73 23.0843 1181.21 23.1286 1180.12 23.1286H1178.22L1179.18 17.7143H1181.99C1185.7 17.7143 1185.37 22.1836 1182.06 23.005V23.0057ZM1183.16 15.6429C1182.81 15.7614 1182.33 15.795 1181.46 15.795H1179.52L1180.43 10.6286H1182.97C1186.02 10.6286 1185.78 14.7814 1183.16 15.6436V15.6429ZM1199.24 13.46H1198.49C1198.49 13.46 1197.39 19.8 1197.27 20.5221C1197 22.075 1196.25 23.1386 1194.15 23.1386C1192.96 23.1386 1191.79 22.4157 1192.06 20.7971C1192.17 20.1707 1192.96 15.5636 1193.03 15.1921C1193.25 13.9457 1192.19 13.46 1191.32 13.46H1190.65C1190.49 14.4236 1189.76 18.4764 1189.49 20.065C1189.37 20.7043 1189.33 21.3521 1189.38 21.7729C1189.63 23.925 1191.52 25.2386 1193.85 25.2386C1197.89 25.2386 1199.4 23.13 1199.88 20.6229C1200.04 19.7971 1200.81 15.6136 1200.87 15.1921C1201.04 13.9457 1200.01 13.46 1199.24 13.46V13.46ZM1203.39 29.5407L1204.56 23.1757C1205.02 24.0843 1206.31 25.2386 1208.38 25.2386C1212.1 25.2386 1214.4 22.3314 1214.63 18.9264C1214.88 15.3079 1212.75 13.2243 1210.29 13.2243C1208.16 13.2243 1206.7 14.265 1205.96 15.3479L1205.99 15.1921C1206.22 14.0793 1205.28 13.46 1204.47 13.46H1203.67C1203.67 13.46 1201.51 25.8793 1201.21 27.3743C1200.86 29.1314 1202.28 29.5407 1202.73 29.5407H1203.39ZM1209.46 15.2929C1213.32 15.5093 1212.12 23.5843 1208.02 23.3571C1203.81 23.1236 1205.18 15.0571 1209.46 15.2929ZM1263.49 29.8436C1262.42 29.8436 1260.95 29.7821 1260.08 29.4836C1259.05 29.13 1258.14 28.4271 1257.17 27.685C1256.69 27.3136 1256.19 26.9271 1255.65 26.5686C1254.99 26.1314 1254.45 25.9271 1253.92 25.9271C1253.22 25.9271 1252.54 26.3093 1251.7 27.1686C1250.58 28.3279 1248.79 30.9586 1248.07 32.0357C1248.03 32.1021 1247.96 32.1764 1247.87 32.1764C1247.7 32.1764 1247.69 31.9464 1247.69 31.8714C1247.66 28.8593 1247.19 12.425 1246.86 7.51786C1246.71 5.34786 1246.04 4 1245.1 4C1244.35 4 1243.22 5.00429 1242.51 7.83571C1240.71 15.0429 1236.87 31.0671 1235.22 39.2064C1235.17 39.43 1234.92 39.4279 1234.87 39.2064C1234.69 38.3736 1234.53 37.43 1234.37 36.635C1233.88 34.125 1233.45 31.9564 1232.61 30.7636C1231.65 29.4079 1230.23 29.3229 1228.51 30.4643C1228.13 30.7171 1227.76 31.0321 1227.38 31.3664C1226.27 32.3171 1225.03 33.3979 1222.95 33.3979H1202.68L1202.19 36.0879H1223.51C1225.69 36.0879 1227.72 34.8307 1228.92 33.9636C1229.54 33.5229 1229.96 33.2679 1230.3 33.2679C1230.77 33.2679 1230.98 33.7443 1231.15 34.4607C1231.24 34.8107 1231.34 35.2964 1231.46 35.8571C1231.87 37.7157 1232.47 40.645 1233.24 42.5929C1233.6 43.4986 1234.13 44 1234.74 44C1235.67 44 1236.62 42.8964 1237.16 41.1886C1237.88 38.9129 1242.19 20.2036 1244.01 12.3679C1244.09 12.0471 1244.13 11.865 1244.13 11.8514C1244.16 11.7136 1244.25 11.6214 1244.36 11.6214C1244.46 11.6214 1244.56 11.7029 1244.57 11.88L1244.57 11.91C1244.71 19.8386 1245.1 33.7629 1245.69 35.1929C1246.02 35.9829 1246.52 36.4014 1247.14 36.4014C1247.85 36.4014 1248.72 35.8229 1249.33 34.9264C1249.64 34.4764 1250.03 33.8879 1250.45 33.2679C1251.48 31.735 1252.65 30.0007 1252.99 29.63C1253.5 29.0843 1254.09 29.0836 1254.93 29.6564C1255.05 29.7386 1255.2 29.8443 1255.37 29.9679C1256.26 30.6171 1257.76 31.5107 1259.44 31.975C1260.56 32.2807 1261.99 32.3457 1263 32.3457C1263.65 32.3457 1264.34 32.3193 1264.54 32.3064L1265 29.8136C1264.76 29.825 1264.1 29.8443 1263.49 29.8443L1263.49 29.8436Z" fill="#00AEEF"/>
<path d="M1375 13.1404C1368.29 13.1404 1362.69 15.927 1362.69 24.3326C1362.69 30.9919 1366.45 35.1863 1375.18 35.1863C1385.44 35.1863 1386.1 28.5726 1386.1 28.5726H1381.13C1381.13 28.5726 1380.06 32.1336 1374.87 32.1336C1370.65 32.1336 1367.61 29.3427 1367.61 25.4304H1386.62V22.9756C1386.62 19.1055 1384.11 13.1404 1375 13.1404V13.1404ZM1374.83 16.2775C1378.85 16.2775 1381.59 18.6867 1381.59 22.2975H1367.72C1367.72 18.4638 1371.3 16.2766 1374.83 16.2766L1374.83 16.2775Z" fill="#E53238"/>
<path d="M1386.62 5V30.9641C1386.62 32.4385 1386.51 34.5074 1386.51 34.5074H1391.25C1391.25 34.5074 1391.43 33.0212 1391.43 31.6633C1391.43 31.6633 1393.77 35.2497 1400.14 35.2497C1406.86 35.2497 1411.42 30.6922 1411.42 24.163C1411.42 18.0889 1407.23 13.2038 1400.15 13.2038C1393.53 13.2038 1391.47 16.7015 1391.47 16.7015V5H1386.62V5ZM1398.93 16.4152C1403.49 16.4152 1406.39 19.7237 1406.39 24.163C1406.39 28.924 1403.04 32.0383 1398.96 32.0383C1394.1 32.0383 1391.47 28.3227 1391.47 24.2052C1391.47 20.368 1393.83 16.4152 1398.93 16.4152V16.4152Z" fill="#0064D2"/>
<path d="M1423.21 13.1404C1413.1 13.1404 1412.46 18.5499 1412.46 19.4146H1417.48C1417.48 19.4146 1417.75 16.2564 1422.86 16.2564C1426.18 16.2564 1428.76 17.7426 1428.76 20.6019V21.6194H1422.86C1415.03 21.6194 1410.9 23.8581 1410.9 28.4029C1410.9 32.875 1414.72 35.3079 1419.89 35.3079C1426.93 35.3079 1429.2 31.5028 1429.2 31.5028C1429.2 33.0161 1429.31 34.5074 1429.31 34.5074H1433.79C1433.79 34.5074 1433.61 32.6589 1433.61 31.4758V21.2546C1433.61 14.5514 1428.08 13.1412 1423.21 13.1412L1423.21 13.1404ZM1428.76 24.6721V26.0283C1428.76 27.7982 1427.64 32.197 1421.07 32.197C1417.47 32.197 1415.92 30.4405 1415.92 28.4029C1415.92 24.6958 1421.12 24.6721 1428.76 24.6721Z" fill="#F5AF02"/>
<path d="M1430.9 13.989H1436.56L1444.68 29.8967L1452.78 13.989H1457.91L1443.15 42.3091H1437.78L1442.03 34.4144L1430.9 13.989H1430.9Z" fill="#86B817"/>
<path d="M1551 5H1649V37.5714H1600V43H1578.22V37.5714H1551V5ZM1556.44 32.1429H1567.33V15.8571H1572.78V32.1429H1578.22V10.4286H1556.44V32.1429ZM1583.67 10.4286V37.5714H1594.56V32.1429H1605.44V10.4286H1583.67ZM1594.56 15.8571H1600V26.7143H1594.56V15.8571ZM1610.89 10.4286V32.1429H1621.78V15.8571H1627.22V32.1429H1632.67V15.8571H1638.11V32.1429H1643.56V10.4286H1610.89Z" fill="#CB3837"/>
<path d="M1556.44 32.1428H1567.33V15.857H1572.78V32.1428H1578.22V10.4285H1556.44V32.1428Z" fill="white"/>
<path d="M1583.67 10.4285V37.5713H1594.56V32.1427H1605.44V10.4285H1583.67ZM1600 26.7142H1594.56V15.857H1600V26.7142Z" fill="white"/>
<path d="M1610.89 10.4285V32.1428H1621.78V15.857H1627.22V32.1428H1632.67V15.857H1638.11V32.1428H1643.56V10.4285H1610.89Z" fill="white"/>
<path d="M1839.33 16.8892C1837.99 16.8892 1836.69 17.063 1835.43 17.4084C1834.83 17.5722 1834.27 17.7815 1833.75 18.0328C1833.65 17.8778 1833.52 17.7317 1833.38 17.5944C1832.89 17.1239 1832.29 16.8892 1831.6 16.8892H1828.92V36.819H1834.12V26.4721C1834.12 24.4594 1834.47 23.6756 1835.17 22.9793C1835.86 22.2873 1836.92 21.9408 1838.36 21.9408H1840.61V16.8892H1839.33ZM1744.36 11H1741.68V34.3673C1741.68 35.0615 1741.93 35.6416 1742.42 36.1132C1742.92 36.5837 1743.51 36.8195 1744.21 36.8195H1746.88V13.4511C1746.88 12.7592 1746.63 12.1779 1746.14 11.7052C1745.64 11.2358 1745.05 11 1744.36 11ZM1757.98 32.7731C1761.07 32.7731 1762.05 29.5305 1762.05 26.786C1762.05 24.0426 1761.07 20.7579 1757.98 20.7579C1754.88 20.7579 1753.94 24.0426 1753.94 26.786C1753.94 29.5305 1754.88 32.7731 1757.98 32.7731ZM1757.98 16.4059C1763.85 16.4059 1767.1 20.273 1767.1 26.7218C1767.1 33.144 1763.85 37 1757.98 37C1752 37 1748.89 33.144 1748.89 26.7218C1748.89 20.273 1752 16.4059 1757.98 16.4059ZM1731.08 32.7731C1727.99 32.7731 1727.05 29.5305 1727.05 26.786C1727.05 24.0426 1727.99 20.7579 1731.08 20.7579C1732.69 20.7579 1733.72 21.6491 1734.35 22.8846H1739.75C1738.67 18.7707 1735.68 16.4059 1731.09 16.4059C1725.1 16.4059 1722 20.273 1722 26.7218C1722 33.144 1725.1 37 1731.09 37C1735.68 37 1738.66 34.6375 1739.75 30.5379H1736.2C1736.2 30.5379 1735.25 30.5634 1734.71 31.0704C1733.78 31.9528 1733.01 32.7731 1731.08 32.7731ZM1785.62 17.6109C1785.15 17.1149 1784.54 16.868 1783.79 16.868H1781.19V29.356C1781.19 30.545 1780.83 31.4119 1780.12 31.9565C1779.4 32.5012 1778.58 32.7736 1777.69 32.7736C1776.8 32.7736 1775.99 32.5012 1775.27 31.9565C1774.55 31.4119 1774.19 30.545 1774.19 29.356V19.3933C1774.19 18.7003 1773.95 18.1069 1773.48 17.6109C1773.01 17.1149 1772.41 16.868 1771.66 16.868H1769.06V28.457C1769.06 31.9743 1770.05 34.1508 1771.81 35.3664C1773.57 36.5775 1775.51 36.9993 1777.69 36.9993C1779.87 36.9993 1781.82 36.5775 1783.57 35.3664C1785.33 34.1508 1786.32 31.9743 1786.32 28.457V19.3933C1786.32 18.7003 1786.09 18.1069 1785.62 17.6109ZM1806.15 11.7057C1805.66 11.2363 1805.06 11.0004 1804.37 11.0004H1801.76V18.3892C1800.97 17.6596 1799.3 16.4064 1796.78 16.4064C1791.47 16.4064 1788.4 20.2723 1788.4 26.7211C1788.4 33.1444 1791.55 36.9993 1797.63 36.9993C1803.57 36.9993 1806.87 33.1754 1806.9 26.8019H1806.9V13.4515C1806.9 12.7585 1806.65 12.1784 1806.15 11.7057ZM1797.62 32.7736C1794.48 32.7736 1793.53 29.5298 1793.53 26.7864C1793.53 24.042 1794.48 20.7583 1797.62 20.7583C1800.75 20.7583 1801.75 24.0032 1801.76 26.7366V26.8019C1801.76 29.542 1800.76 32.7736 1797.62 32.7736ZM1827.01 25.5611C1827.01 25.9862 1826.92 26.3748 1826.74 26.7258C1826.63 26.9461 1826.48 27.152 1826.3 27.3435C1825.83 27.8384 1825.25 28.0864 1824.55 28.0864H1813.98C1814.12 30.4589 1815.33 32.7738 1817.94 32.7738C1819.87 32.7738 1820.63 31.9523 1821.57 31.0711C1822.11 30.5652 1823.06 30.5375 1823.06 30.5375H1826.61C1825.52 34.637 1822.54 36.9996 1817.95 36.9996C1811.96 36.9996 1808.86 33.1447 1808.86 26.7224C1808.86 20.2725 1811.96 16.4066 1817.95 16.4066C1822.54 16.4066 1825.53 18.7713 1826.61 22.8853C1826.81 23.6215 1826.93 24.4153 1827 25.2578L1827.01 25.5611ZM1817.94 20.7586C1815.79 20.7586 1814.36 22.3517 1814.2 24.2448H1821.71C1821.7 22.3517 1820.04 20.7586 1817.94 20.7586ZM1858 21.9265C1858 20.1607 1857.28 18.7868 1855.84 17.8048C1854.46 16.8738 1852.38 16.4066 1849.6 16.4066C1847.12 16.4066 1845.21 16.9712 1843.88 18.0993C1842.69 19.0802 1841.96 20.4198 1841.77 21.9409H1846.75C1846.99 21.3232 1847.42 20.9457 1847.97 20.7497C1848.51 20.5537 1849.13 20.4541 1849.82 20.4541C1850.69 20.4541 1851.3 20.5648 1851.94 20.7862C1852.7 21.0475 1853.09 21.4848 1853.09 22.221C1853.09 23.0093 1852.01 23.7455 1849.82 24.0289C1847.2 24.3688 1845.13 24.6511 1843.25 26.0349C1842.04 26.9228 1841.28 28.5514 1841.28 30.6116C1841.28 32.8203 1841.96 34.378 1843.28 35.36C1844.46 36.2357 1846.37 36.9841 1849.46 36.9841C1852.24 36.9841 1854.32 36.3785 1855.71 35.4463C1857.14 34.4654 1857.95 33.334 1858 31.267V21.9265ZM1852.41 31.6169C1851.62 32.3874 1850.53 32.7727 1849.14 32.7727C1848.71 32.7727 1847.34 32.6764 1846.78 32.1317C1846.36 31.7353 1846.11 31.329 1846.11 30.6072C1846.11 30.0769 1846.3 29.5743 1846.63 29.2245C1847.36 28.4495 1848.16 28.3399 1849.9 27.9602C1851.04 27.7078 1852.45 27.286 1853.17 26.8808V28.3809C1853.17 29.7304 1853.21 30.8475 1852.41 31.6169Z" fill="#004E6F"/>
<path d="M1928.87 41.4274C1921.79 41.341 1916 41.0993 1916 40.8904C1916 40.2504 1965.6 39.8236 2005.25 40.1225C2025.91 40.2782 2042.91 40.5044 2043.03 40.6251C2043.15 40.7459 2043.14 40.9624 2042.99 41.1064C2042.69 41.4031 1948.56 41.6679 1928.87 41.4274L1928.87 41.4274ZM1927.19 33.5544C1927.19 33.3697 1927.57 32.8107 1928.04 32.3122C1928.51 31.8137 1930.44 27.5536 1932.33 22.845C1936.24 13.0829 1937.26 11.1753 1939.61 9.21859L1941.29 7.82026L1937.03 8.06981C1932.17 8.35507 1929.31 9.19968 1927.53 10.8737C1926.17 12.1468 1925.34 14.4117 1925.71 15.8101C1926.04 17.0416 1925.15 16.9313 1923.76 15.5689C1922.11 13.9557 1922.53 11.7672 1924.88 9.59688C1927.83 6.8824 1929.84 6.5076 1943.08 6.20094C1949.48 6.05268 1954.78 5.9675 1954.86 6.01166C1954.95 6.05582 1954.45 6.45345 1953.77 6.89533C1952.83 7.49657 1951.44 7.73593 1948.25 7.84665C1944.38 7.98045 1943.86 8.10226 1942.76 9.11982C1941.5 10.2877 1938.96 15.8628 1935.71 24.6011C1933.86 29.5691 1932.37 32.1102 1930.86 32.8847C1929.71 33.4771 1927.19 33.9366 1927.19 33.5544L1927.19 33.5544ZM1965.23 33.6066C1965.23 33.4366 1965.6 32.7731 1966.05 32.1321C1966.51 31.4912 1966.99 30.6705 1967.12 30.3083C1967.26 29.9461 1967.79 28.6175 1968.31 27.356L1969.24 25.0623L1967.22 26.5699C1963.78 29.146 1960.09 29.6998 1958.27 27.9136C1956.35 26.0308 1957.11 21.9148 1960.11 17.8898C1963.49 13.374 1969.71 11.7057 1969.71 15.318C1969.71 16.9754 1967.17 19.793 1963.91 21.7699C1961.18 23.4197 1960.38 24.8468 1961.26 26.4622C1961.8 27.4429 1962.75 27.4267 1965.01 26.3989C1967.81 25.1205 1970.38 22.17 1971.69 18.7317C1972.32 17.0731 1972.84 15.6545 1972.84 15.5794C1972.84 15.5042 1972.39 15.3596 1971.83 15.258C1970.9 15.0871 1970.93 15.0296 1972.23 14.491C1973 14.1708 1973.99 13.3017 1974.42 12.5598C1976.83 8.40489 1980.04 6.53157 1985.22 6.25235C1988.69 6.06581 1988.94 6.11545 1990.04 7.18624C1990.67 7.80825 1991.19 8.53888 1991.19 8.80989C1991.19 9.48616 1988.71 11.8692 1988 11.8692C1987.56 11.8692 1987.55 11.7522 1987.97 11.3424C1988.26 11.0526 1988.5 10.267 1988.5 9.59644C1988.5 6.94057 1984.37 6.24151 1981.31 8.3796C1980.04 9.26608 1977.31 12.8761 1977.31 13.6698C1977.31 13.8412 1979.33 13.8726 1981.79 13.7396C1986.54 13.4828 1987.45 13.8799 1984.98 15.1321C1981.37 16.9644 1977.9 26.7535 1980.73 27.1486C1982.87 27.448 1986.71 20.7389 1986.71 16.7091C1986.71 15.5415 1986.87 15.4601 1990.74 14.5738C1995.62 13.4574 1996.3 13.6122 1995.98 15.7762C1995.86 16.6456 1995.6 17.7265 1995.42 18.1784C1995.23 18.6302 1996.02 18.009 1997.18 16.7979C1999.52 14.3428 2001.37 13.3916 2003.01 13.7959C2005.18 14.3294 2004.97 15.4831 2001.31 23.5032C2000.29 25.7363 1999.7 27.6949 1999.7 28.8812C1999.69 31.0334 1999.22 31.1997 1997.6 29.6161C1996.05 28.0955 1996.32 26.0606 1998.74 20.8111C1999.75 18.606 2000.59 16.581 2000.59 16.3111C2000.59 14.3095 1996.08 19.4203 1993.2 24.6776C1991.15 28.4374 1990.85 28.7827 1989.51 28.9091C1988.71 28.9848 1988.06 28.8996 1988.06 28.7198C1988.06 28.54 1989.06 25.8582 1990.29 22.7601C1992.94 16.0979 1993.06 15.24 1991.3 15.6531C1989.55 16.0625 1989.4 16.1953 1989.4 17.273C1989.4 18.5066 1987.09 23.2903 1985.54 25.294C1983.12 28.3987 1979.14 29.7997 1976.97 28.3078C1974.7 26.7479 1976.37 20.2025 1979.9 16.8484L1981.67 15.1618L1979.08 15.3088L1976.49 15.4559L1974.62 20.5771C1972.03 27.6559 1969.97 31.8727 1968.74 32.6577C1967.51 33.4358 1965.23 34.053 1965.23 33.6064L1965.23 33.6066ZM1965.31 19.0437C1966.99 17.3036 1967.68 15.4336 1966.77 15.0909C1965.5 14.6133 1962.92 17.759 1961.88 21.0449L1961.55 22.0986L1962.83 21.1948C1963.53 20.6978 1964.65 19.7297 1965.31 19.0436L1965.31 19.0437ZM1951.64 29.8371C1950.71 29.1219 1950.46 28.5468 1950.46 27.1507V25.3744L1948.89 26.5465C1945.35 29.2011 1942.18 29.6866 1940.32 27.8609C1939.28 26.8408 1939.2 26.5147 1939.47 24.5045C1940.18 19.2038 1944.33 14.3688 1948.98 13.42C1950.08 13.1955 1950.61 13.3324 1951.31 14.0186C1952.07 14.7675 1952.14 15.1149 1951.75 16.2128C1951.18 17.8243 1947.64 21.1299 1945.15 22.3736C1943.46 23.2231 1943.3 23.4466 1943.3 25.0226C1943.3 25.9693 1943.48 26.8534 1943.7 26.9873C1944.77 27.6347 1947.22 26.518 1949.35 24.4151C1951.2 22.5856 1952.17 20.9696 1954.73 15.4072C1957.68 9.02242 1957.95 8.60623 1959.35 8.24974C1960.17 8.04166 1961.01 7.93118 1961.22 8.00423C1961.43 8.07727 1960.12 11.4284 1958.32 15.4514C1954.43 24.1186 1953.47 26.8054 1953.47 29.0651C1953.47 30.9991 1953.26 31.0879 1951.64 29.8373L1951.64 29.8371ZM1946.92 19.5727C1948.99 17.6416 1949.86 15.9312 1949.12 15.2096C1948.79 14.879 1948.42 14.8804 1947.88 15.2141C1946.13 16.2839 1942.79 22.5344 1944.46 21.6208C1944.8 21.4323 1945.91 20.5107 1946.92 19.5726L1946.92 19.5727ZM2030.82 29.8055C2029.79 29.0145 2029.62 28.5935 2029.76 27.1713C2029.85 26.2403 2029.77 25.4786 2029.58 25.4786C2029.39 25.4786 2029.23 25.675 2029.23 25.9149C2029.23 26.7792 2025.53 28.9908 2024.09 28.9908C2022.52 28.9908 2021.18 27.8719 2021.18 26.5749C2021.18 25.8147 2021.11 25.8205 2020.17 26.6678C2017.38 29.1733 2013.82 29.7128 2011.98 27.9092L2010.87 26.8276L2009.25 27.9092C2007.36 29.1641 2005.01 29.3173 2003.93 28.2559C2002.86 27.201 2003.28 25.4178 2005.98 19.5465C2008.28 14.5491 2008.29 14.5359 2010.15 14.1566C2011.17 13.9474 2012.07 13.8246 2012.15 13.8837C2012.23 13.9429 2011.18 16.4481 2009.8 19.451C2007.21 25.103 2006.8 26.7959 2007.99 26.7959C2009.05 26.7959 2011.33 24.9671 2011.33 24.1156C2011.33 22.8044 2013.11 19.2174 2014.71 17.3028C2016.54 15.1104 2019.44 13.6252 2021.9 13.6252C2024.86 13.6252 2025.73 15.4418 2023.58 17.1055C2022.14 18.2173 2021.42 18.2761 2021.85 17.2471C2022.85 14.8664 2021.35 14.1993 2019.3 16.109C2015.49 19.6526 2013.62 27.9266 2016.84 26.9924C2019.03 26.3576 2021.12 24.4744 2022.53 21.8725C2025.6 16.2372 2028.82 13.9428 2033.78 13.8814C2035.42 13.861 2036.91 13.9884 2037.09 14.1645C2037.27 14.3406 2036.9 15.6247 2036.26 17.0182C2034.33 21.2567 2032.72 26.4585 2032.65 28.6598C2032.62 29.807 2032.46 30.7458 2032.31 30.7461C2032.16 30.7464 2031.49 30.3229 2030.82 29.8051L2030.82 29.8055ZM2028.02 25.2616C2029.5 23.7719 2033.96 15.4832 2033.52 15.0516C2033 14.5397 2030.74 15.5556 2029.48 16.8666C2027.72 18.7027 2025.81 22.1621 2025.28 24.4868C2024.63 27.3455 2025.67 27.6403 2028.02 25.2619L2028.02 25.2616ZM2011.89 11.1241C2011.12 10.8416 2011.18 9.02269 2011.98 8.37429C2012.99 7.54972 2014.24 7.99824 2014.24 9.18732C2014.24 10.2946 2012.82 11.4665 2011.89 11.1242L2011.89 11.1241Z" fill="#2F4F5A"/>
<path d="M2135.3 24C2135.3 33.1177 2127.75 40.5095 2118.42 40.5095C2109.1 40.5095 2101.54 33.1177 2101.54 24C2101.54 14.8823 2109.1 7.49048 2118.42 7.49048C2127.75 7.49048 2135.3 14.8823 2135.3 24Z" fill="#EE3023"/>
<path d="M2118.55 33.2058C2113.92 33.2212 2109.09 29.3506 2109.07 23.1327C2109.05 19.0227 2111.32 15.0644 2114.22 12.7168C2117.05 10.4298 2120.92 8.95866 2124.44 8.94653C2124.89 8.94653 2125.36 8.98287 2125.65 9.07994C2122.58 9.70174 2120.14 12.4983 2120.15 15.668C2120.15 15.7741 2120.16 15.8863 2120.17 15.9379C2125.31 17.1633 2127.64 20.1965 2127.66 24.3913C2127.67 28.5892 2124.28 33.1875 2118.55 33.2057" fill="white"/>
<path d="M2146.21 30.8367L2141.04 18.792H2144.42L2147.64 26.7904L2150.76 18.792H2153.98L2148.97 30.8367H2146.21Z" fill="#EE3023"/>
<path d="M2162.96 24.7523C2162.96 24.2518 2162.9 23.7756 2162.78 23.3237C2162.66 22.8717 2162.48 22.4835 2162.24 22.1589C2162 21.8314 2161.72 21.5735 2161.38 21.3824C2161.03 21.1883 2160.63 21.0912 2160.17 21.0912C2159.72 21.0912 2159.31 21.1883 2158.97 21.3824C2158.63 21.5735 2158.34 21.8314 2158.11 22.1589C2157.87 22.4835 2157.69 22.8717 2157.57 23.3237C2157.45 23.7756 2157.39 24.2518 2157.39 24.7523C2157.39 25.271 2157.45 25.7532 2157.57 26.196C2157.69 26.6389 2157.86 27.0272 2158.09 27.3608C2158.32 27.6945 2158.61 27.9583 2158.96 28.1524C2159.31 28.3435 2159.72 28.4406 2160.17 28.4406C2160.63 28.4406 2161.03 28.3435 2161.38 28.1524C2161.72 27.9583 2162 27.6945 2162.24 27.3608C2162.48 27.0272 2162.66 26.6389 2162.78 26.196C2162.9 25.7532 2162.96 25.271 2162.96 24.7523ZM2166.08 24.7655C2166.08 25.5511 2165.95 26.3215 2165.71 27.0798C2165.46 27.8381 2165.09 28.5145 2164.61 29.115C2164.12 29.7156 2163.51 30.1979 2162.77 30.5649C2162.03 30.9319 2161.16 31.1139 2160.17 31.1139C2159.19 31.1139 2158.32 30.9319 2157.58 30.5649C2156.84 30.1979 2156.23 29.7156 2155.74 29.115C2155.25 28.5145 2154.89 27.8381 2154.64 27.0798C2154.4 26.3215 2154.27 25.5511 2154.27 24.7655C2154.27 23.9829 2154.4 23.2186 2154.64 22.4663C2154.89 21.7171 2155.25 21.0468 2155.74 20.4554C2156.23 19.8639 2156.84 19.3907 2157.58 19.0328C2158.32 18.6749 2159.19 18.4929 2160.17 18.4929C2161.16 18.4929 2162.02 18.6749 2162.76 19.0328C2163.49 19.3907 2164.1 19.8639 2164.59 20.4554C2165.09 21.0468 2165.46 21.7171 2165.71 22.4663C2165.95 23.2186 2166.08 23.9829 2166.08 24.7655Z" fill="#EE3023"/>
<path d="M2175.6 21.443C2174.99 21.2094 2174.42 21.0911 2173.89 21.0911C2173.35 21.0911 2172.88 21.1944 2172.5 21.3944C2172.1 21.5945 2171.78 21.8646 2171.53 22.2073C2171.27 22.5501 2171.08 22.9353 2170.96 23.363C2170.83 23.7876 2170.76 24.2274 2170.76 24.6794C2170.76 25.1798 2170.82 25.659 2170.93 26.1201C2171.04 26.5781 2171.21 26.9815 2171.44 27.3243C2171.67 27.667 2171.96 27.943 2172.3 28.1523C2172.65 28.3586 2173.06 28.4647 2173.54 28.4647C2173.93 28.4647 2174.33 28.3587 2174.73 28.1523C2175.14 27.943 2175.43 27.6943 2175.6 27.4122L2175.6 21.443ZM2175.85 30.8367L2175.73 29.9146C2175.44 30.2301 2175.05 30.5091 2174.58 30.7487C2174.1 30.9913 2173.54 31.1127 2172.9 31.1127C2172.05 31.1127 2171.3 30.9368 2170.66 30.588C2170.01 30.2392 2169.47 29.772 2169.02 29.1897C2168.58 28.6073 2168.25 27.9309 2168.02 27.1635C2167.79 26.3992 2167.68 25.5984 2167.68 24.7643C2167.68 23.9817 2167.79 23.2143 2168.03 22.4651C2168.27 21.7159 2168.63 21.0456 2169.11 20.4542C2169.6 19.8627 2170.2 19.3895 2170.94 19.0316C2171.66 18.6737 2172.52 18.4917 2173.51 18.4917C2174.15 18.4917 2174.85 18.6099 2175.6 18.8405V14.1694H2178.76V30.8367H2175.85Z" fill="#EE3023"/>
<path d="M2187.69 25.1892C2187.35 25.2068 2186.99 25.2378 2186.63 25.2772C2186.27 25.3197 2185.93 25.3743 2185.6 25.441C2184.92 25.5744 2184.44 25.8019 2184.17 26.1265C2183.91 26.4541 2183.78 26.8059 2183.78 27.1911C2183.78 27.5885 2183.93 27.91 2184.23 28.1526C2184.53 28.3923 2184.95 28.5136 2185.5 28.5136C2185.91 28.5136 2186.31 28.4317 2186.7 28.2649C2187.08 28.098 2187.41 27.8887 2187.69 27.64V25.1892ZM2187.94 30.8279L2187.82 29.927C2187.47 30.297 2187.04 30.5882 2186.51 30.7975C2185.98 31.0068 2185.4 31.113 2184.76 31.113C2184.23 31.113 2183.72 31.0249 2183.24 30.8491C2182.75 30.6763 2182.32 30.4244 2181.94 30.0999C2181.57 29.7753 2181.26 29.378 2181.03 28.9018C2180.8 28.4256 2180.69 27.8887 2180.69 27.2882C2180.69 26.6906 2180.8 26.1598 2181.04 25.7018C2181.28 25.2438 2181.61 24.8586 2182.02 24.5401C2182.43 24.2246 2182.9 23.9668 2183.43 23.7667C2183.96 23.5666 2184.52 23.4148 2185.1 23.3147C2185.51 23.2328 2185.96 23.172 2186.44 23.1296C2186.93 23.0871 2187.34 23.0508 2187.66 23.0173V22.8415C2187.66 22.1742 2187.49 21.701 2187.13 21.4159C2186.78 21.1338 2186.3 20.9912 2185.69 20.9912C2185.33 20.9912 2184.98 21.0337 2184.66 21.1187C2184.33 21.2005 2184.04 21.3038 2183.78 21.428C2183.53 21.5555 2183.3 21.6798 2183.1 21.8042C2182.91 21.9285 2182.75 22.0407 2182.63 22.1408L2181.58 19.9691C2181.71 19.8509 2181.92 19.7113 2182.21 19.5445C2182.49 19.3776 2182.83 19.2138 2183.23 19.0561C2183.63 18.8983 2184.08 18.7649 2184.58 18.6557C2185.08 18.5465 2185.63 18.4919 2186.2 18.4919C2186.89 18.4919 2187.51 18.58 2188.07 18.7559C2188.63 18.9317 2189.12 19.2048 2189.53 19.5809C2189.94 19.9539 2190.25 20.4271 2190.49 21.0034C2190.72 21.5767 2190.83 22.2713 2190.83 23.0872V30.8279H2187.94Z" fill="#EE3023"/>
<path d="M2200.62 16.9176C2200.52 16.8692 2200.32 16.7964 2200.02 16.7052C2199.72 16.6143 2199.33 16.5688 2198.83 16.5688C2198.39 16.5688 2198.02 16.6993 2197.72 16.957C2197.42 17.2148 2197.27 17.6364 2197.27 18.2188V18.7921H2199.93V21.2914H2197.3V30.8368H2194.13V21.2914H2192.49V18.7921H2194.13V18.143C2194.13 17.3604 2194.23 16.6992 2194.44 16.1563C2194.64 15.6164 2194.93 15.1735 2195.29 14.8338C2195.66 14.4911 2196.09 14.2393 2196.58 14.0816C2197.08 13.9238 2197.62 13.845 2198.2 13.845C2198.96 13.845 2199.59 13.9147 2200.1 14.0574C2200.6 14.2 2200.89 14.294 2200.98 14.3455L2200.62 16.9176Z" fill="#EE3023"/>
<path d="M2209.26 24.7523C2209.26 24.2518 2209.2 23.7756 2209.08 23.3237C2208.96 22.8717 2208.78 22.4835 2208.54 22.1589C2208.31 21.8314 2208.02 21.5735 2207.68 21.3824C2207.33 21.1883 2206.93 21.0912 2206.47 21.0912C2206.02 21.0912 2205.61 21.1883 2205.27 21.3824C2204.93 21.5735 2204.64 21.8314 2204.4 22.1589C2204.17 22.4835 2203.99 22.8717 2203.87 23.3237C2203.75 23.7756 2203.69 24.2518 2203.69 24.7523C2203.69 25.271 2203.75 25.7532 2203.87 26.196C2203.99 26.6389 2204.16 27.0272 2204.39 27.3608C2204.62 27.6945 2204.91 27.9583 2205.26 28.1524C2205.61 28.3435 2206.02 28.4406 2206.47 28.4406C2206.93 28.4406 2207.33 28.3435 2207.68 28.1524C2208.02 27.9583 2208.31 27.6945 2208.54 27.3608C2208.78 27.0272 2208.96 26.6389 2209.08 26.196C2209.2 25.7532 2209.26 25.271 2209.26 24.7523ZM2212.38 24.7655C2212.38 25.5511 2212.25 26.3215 2212.01 27.0798C2211.76 27.8381 2211.39 28.5145 2210.91 29.115C2210.42 29.7156 2209.81 30.1979 2209.07 30.5649C2208.33 30.9319 2207.46 31.1139 2206.47 31.1139C2205.49 31.1139 2204.62 30.9319 2203.88 30.5649C2203.14 30.1979 2202.53 29.7156 2202.04 29.115C2201.56 28.5145 2201.19 27.8381 2200.94 27.0798C2200.69 26.3215 2200.57 25.5511 2200.57 24.7655C2200.57 23.9829 2200.69 23.2186 2200.94 22.4663C2201.19 21.7171 2201.56 21.0468 2202.04 20.4554C2202.53 19.8639 2203.14 19.3907 2203.88 19.0328C2204.62 18.6749 2205.49 18.4929 2206.47 18.4929C2207.46 18.4929 2208.32 18.6749 2209.06 19.0328C2209.79 19.3907 2210.4 19.8639 2210.9 20.4554C2211.39 21.0468 2211.76 21.7171 2212.01 22.4663C2212.25 23.2186 2212.38 23.9829 2212.38 24.7655Z" fill="#EE3023"/>
<path d="M2222.21 30.8368V23.9667C2222.21 23.0507 2222.02 22.3409 2221.63 21.8405C2221.23 21.343 2220.69 21.0913 2219.99 21.0913C2219.5 21.0913 2219.04 21.2156 2218.63 21.4673C2218.21 21.7161 2217.84 21.9921 2217.54 22.2924V30.8368H2214.37V18.7921H2217.26L2217.41 19.7415C2217.91 19.3442 2218.46 19.0348 2219.08 18.8194C2219.71 18.6011 2220.33 18.4949 2220.96 18.4949C2221.61 18.4949 2222.21 18.5889 2222.75 18.78C2223.3 18.9741 2223.77 19.2774 2224.16 19.6929C2224.55 20.1085 2224.85 20.6514 2225.07 21.3157C2225.28 21.983 2225.38 22.7838 2225.38 23.7149V30.8368H2222.21Z" fill="#EE3023"/>
<path d="M2235.24 23.3661C2235.21 22.9505 2235.12 22.5865 2234.97 22.2802C2234.83 21.9708 2234.65 21.7221 2234.43 21.531C2234.22 21.3368 2233.99 21.1973 2233.74 21.1033C2233.49 21.0124 2233.24 20.9668 2232.98 20.9668C2232.43 20.9668 2231.91 21.1669 2231.42 21.5674C2230.92 21.9678 2230.63 22.5653 2230.54 23.3661H2235.24ZM2230.47 25.5893C2230.53 26.6054 2230.86 27.3395 2231.44 27.7884C2232.02 28.2373 2232.77 28.4648 2233.7 28.4648C2234.12 28.4648 2234.53 28.4254 2234.9 28.3525C2235.28 28.2768 2235.61 28.1826 2235.9 28.0644C2236.2 27.9491 2236.44 27.8309 2236.65 27.7156C2236.85 27.5974 2237.01 27.4881 2237.11 27.388L2237.95 29.9146C2237.83 29.9965 2237.64 30.1088 2237.38 30.2513C2237.11 30.3939 2236.78 30.5243 2236.39 30.6517C2236 30.776 2235.54 30.8822 2235.01 30.9762C2234.49 31.0671 2233.91 31.1127 2233.28 31.1127C2232.47 31.1127 2231.71 30.9883 2230.99 30.7396C2230.26 30.4879 2229.63 30.0996 2229.09 29.5749C2228.54 29.0502 2228.11 28.398 2227.78 27.6155C2227.46 26.8329 2227.3 25.8987 2227.3 24.8159C2227.3 23.7997 2227.44 22.8989 2227.74 22.1163C2228.04 21.3338 2228.45 20.6756 2228.97 20.1417C2229.49 19.6109 2230.09 19.2015 2230.78 18.9163C2231.47 18.6343 2232.21 18.4917 2232.99 18.4917C2233.78 18.4917 2234.5 18.6191 2235.17 18.8678C2235.83 19.1165 2236.41 19.5048 2236.89 20.0295C2237.38 20.5543 2237.76 21.2337 2238.04 22.0678C2238.32 22.8989 2238.46 23.8908 2238.46 25.0403V25.5893L2230.47 25.5893Z" fill="#EE3023"/>
</svg>
